G04 EAGLE Gerber RS-274X export*
G75*
%MOMM*%
%FSLAX34Y34*%
%LPD*%
%INBottom Copper*%
%IPPOS*%
%AMOC8*
5,1,8,0,0,1.08239X$1,22.5*%
G01*
%ADD10P,1.632244X8X202.500000*%
%ADD11P,1.429621X8X202.500000*%
%ADD12P,1.632244X8X22.500000*%
%ADD13C,1.320800*%
%ADD14C,1.117600*%
%ADD15P,1.429621X8X112.500000*%
%ADD16P,1.632244X8X112.500000*%
%ADD17C,0.152400*%


D10*
X444500Y431800D03*
X419100Y431800D03*
X76200Y431800D03*
X50800Y431800D03*
D11*
X152400Y101600D03*
X101600Y101600D03*
X152400Y38100D03*
X101600Y38100D03*
D12*
X419100Y330200D03*
X419100Y355600D03*
D13*
X260604Y241300D02*
X247396Y241300D01*
X247396Y215900D02*
X260604Y215900D01*
X260604Y88900D02*
X247396Y88900D01*
X247396Y63500D02*
X260604Y63500D01*
X260604Y190500D02*
X247396Y190500D01*
X247396Y165100D02*
X260604Y165100D01*
X260604Y114300D02*
X247396Y114300D01*
X247396Y139700D02*
X260604Y139700D01*
X260604Y38100D02*
X247396Y38100D01*
X323596Y38100D02*
X336804Y38100D01*
X336804Y63500D02*
X323596Y63500D01*
X323596Y88900D02*
X336804Y88900D01*
X336804Y114300D02*
X323596Y114300D01*
X323596Y139700D02*
X336804Y139700D01*
X336804Y165100D02*
X323596Y165100D01*
X323596Y190500D02*
X336804Y190500D01*
X336804Y215900D02*
X323596Y215900D01*
X323596Y241300D02*
X336804Y241300D01*
X260604Y381000D02*
X247396Y381000D01*
X247396Y355600D02*
X260604Y355600D01*
X323596Y355600D02*
X336804Y355600D01*
X336804Y381000D02*
X323596Y381000D01*
X260604Y330200D02*
X247396Y330200D01*
X247396Y304800D02*
X260604Y304800D01*
X323596Y330200D02*
X336804Y330200D01*
X336804Y304800D02*
X323596Y304800D01*
D12*
X444500Y38100D03*
X444500Y63500D03*
D14*
X196088Y50800D02*
X184912Y50800D01*
X184912Y101600D02*
X196088Y101600D01*
D15*
X88900Y317500D03*
X88900Y393700D03*
X88900Y215900D03*
X88900Y292100D03*
X482600Y304800D03*
X482600Y381000D03*
X165100Y177800D03*
X165100Y254000D03*
X38100Y317500D03*
X38100Y393700D03*
X38100Y215900D03*
X38100Y292100D03*
D16*
X444500Y114300D03*
X444500Y139700D03*
X444500Y165100D03*
X444500Y190500D03*
D17*
X304800Y356108D02*
X254508Y356108D01*
X304800Y356108D02*
X329184Y380492D01*
X254508Y356108D02*
X254000Y355600D01*
X329184Y380492D02*
X330200Y381000D01*
X50292Y430784D02*
X12192Y392684D01*
X12192Y278384D01*
X36576Y254000D01*
X50292Y254000D01*
X88392Y215900D01*
X50292Y430784D02*
X50800Y431800D01*
X88392Y215900D02*
X88900Y215900D01*
X277368Y241808D02*
X329184Y241808D01*
X277368Y241808D02*
X265176Y254000D01*
X165100Y254000D01*
X329184Y241808D02*
X330200Y241300D01*
X419100Y382016D02*
X419100Y431800D01*
X419100Y382016D02*
X345948Y308864D01*
X345948Y257048D01*
X330200Y241300D01*
X252984Y215900D02*
X243840Y206756D01*
X155448Y206756D01*
X102108Y260096D01*
X102108Y304292D01*
X88900Y317500D01*
X252984Y215900D02*
X254000Y215900D01*
X152400Y63500D02*
X152400Y38100D01*
X152400Y63500D02*
X190500Y101600D01*
X15240Y369824D02*
X38100Y392684D01*
X15240Y369824D02*
X15240Y279908D01*
X38100Y257048D01*
X96012Y257048D01*
X152400Y200660D01*
X193548Y200660D01*
X242316Y151892D01*
X266700Y151892D01*
X329184Y89408D01*
X38100Y392684D02*
X38100Y393700D01*
X329184Y89408D02*
X330200Y88900D01*
X330708Y189992D02*
X443484Y189992D01*
X330708Y189992D02*
X330200Y190500D01*
X443484Y189992D02*
X444500Y190500D01*
X70104Y260096D02*
X38100Y292100D01*
X70104Y260096D02*
X97536Y260096D01*
X153924Y203708D01*
X316992Y203708D01*
X330200Y190500D01*
X352044Y186944D02*
X330200Y165100D01*
X352044Y186944D02*
X422148Y186944D01*
X443484Y165608D01*
X444500Y165100D01*
M02*
