G04 EAGLE Gerber RS-274X export*
G75*
%MOMM*%
%FSLAX34Y34*%
%LPD*%
%INTop Copper*%
%IPPOS*%
%AMOC8*
5,1,8,0,0,1.08239X$1,22.5*%
G01*
%ADD10P,1.632244X8X202.500000*%
%ADD11P,1.429621X8X202.500000*%
%ADD12P,1.632244X8X22.500000*%
%ADD13C,1.320800*%
%ADD14C,1.117600*%
%ADD15P,1.429621X8X112.500000*%
%ADD16P,1.632244X8X112.500000*%
%ADD17C,0.152400*%

G36*
X493798Y10164D02*
X493798Y10164D01*
X493817Y10162D01*
X493919Y10184D01*
X494021Y10200D01*
X494038Y10210D01*
X494058Y10214D01*
X494147Y10267D01*
X494238Y10316D01*
X494252Y10330D01*
X494269Y10340D01*
X494336Y10419D01*
X494408Y10494D01*
X494416Y10512D01*
X494429Y10527D01*
X494468Y10623D01*
X494511Y10717D01*
X494513Y10737D01*
X494521Y10755D01*
X494539Y10922D01*
X494539Y471578D01*
X494536Y471598D01*
X494538Y471617D01*
X494516Y471719D01*
X494500Y471821D01*
X494490Y471838D01*
X494486Y471858D01*
X494433Y471947D01*
X494384Y472038D01*
X494370Y472052D01*
X494360Y472069D01*
X494281Y472136D01*
X494206Y472208D01*
X494188Y472216D01*
X494173Y472229D01*
X494077Y472268D01*
X493983Y472311D01*
X493963Y472313D01*
X493945Y472321D01*
X493778Y472339D01*
X10922Y472339D01*
X10902Y472336D01*
X10883Y472338D01*
X10781Y472316D01*
X10679Y472300D01*
X10662Y472290D01*
X10642Y472286D01*
X10553Y472233D01*
X10462Y472184D01*
X10448Y472170D01*
X10431Y472160D01*
X10364Y472081D01*
X10292Y472006D01*
X10284Y471988D01*
X10271Y471973D01*
X10232Y471877D01*
X10189Y471783D01*
X10187Y471763D01*
X10179Y471745D01*
X10161Y471578D01*
X10161Y293616D01*
X10172Y293546D01*
X10174Y293474D01*
X10192Y293425D01*
X10200Y293374D01*
X10234Y293310D01*
X10259Y293243D01*
X10291Y293202D01*
X10316Y293156D01*
X10367Y293107D01*
X10412Y293051D01*
X10456Y293023D01*
X10494Y292987D01*
X10559Y292957D01*
X10619Y292918D01*
X10670Y292905D01*
X10717Y292883D01*
X10788Y292875D01*
X10858Y292858D01*
X10910Y292862D01*
X10961Y292856D01*
X11032Y292871D01*
X11103Y292877D01*
X11151Y292897D01*
X11202Y292908D01*
X11263Y292945D01*
X11329Y292973D01*
X11385Y293018D01*
X11413Y293035D01*
X11428Y293052D01*
X11460Y293078D01*
X30705Y312323D01*
X30717Y312339D01*
X30732Y312351D01*
X30788Y312439D01*
X30848Y312523D01*
X30854Y312542D01*
X30865Y312558D01*
X30890Y312659D01*
X30921Y312758D01*
X30920Y312778D01*
X30925Y312797D01*
X30917Y312900D01*
X30914Y313004D01*
X30908Y313022D01*
X30906Y313042D01*
X30866Y313137D01*
X30830Y313235D01*
X30817Y313250D01*
X30810Y313268D01*
X30705Y313399D01*
X29971Y314133D01*
X29971Y320867D01*
X34733Y325629D01*
X41467Y325629D01*
X46229Y320867D01*
X46229Y314133D01*
X41467Y309371D01*
X34537Y309371D01*
X34446Y309357D01*
X34356Y309349D01*
X34326Y309337D01*
X34294Y309332D01*
X34213Y309289D01*
X34129Y309253D01*
X34097Y309227D01*
X34076Y309216D01*
X34054Y309193D01*
X33998Y309148D01*
X14702Y289852D01*
X14649Y289778D01*
X14589Y289708D01*
X14577Y289678D01*
X14558Y289652D01*
X14531Y289565D01*
X14497Y289480D01*
X14493Y289439D01*
X14486Y289417D01*
X14487Y289385D01*
X14479Y289313D01*
X14479Y243071D01*
X14480Y243064D01*
X14480Y243062D01*
X14493Y242980D01*
X14501Y242890D01*
X14513Y242860D01*
X14518Y242828D01*
X14561Y242747D01*
X14597Y242663D01*
X14623Y242631D01*
X14634Y242610D01*
X14657Y242588D01*
X14702Y242532D01*
X33431Y223803D01*
X33447Y223791D01*
X33459Y223776D01*
X33547Y223720D01*
X33631Y223660D01*
X33650Y223654D01*
X33666Y223643D01*
X33767Y223618D01*
X33866Y223587D01*
X33886Y223588D01*
X33905Y223583D01*
X34008Y223591D01*
X34111Y223594D01*
X34130Y223600D01*
X34150Y223602D01*
X34245Y223642D01*
X34343Y223678D01*
X34358Y223691D01*
X34376Y223698D01*
X34507Y223803D01*
X34733Y224029D01*
X41467Y224029D01*
X41693Y223803D01*
X41709Y223791D01*
X41721Y223776D01*
X41808Y223720D01*
X41892Y223660D01*
X41911Y223654D01*
X41928Y223643D01*
X42029Y223618D01*
X42127Y223587D01*
X42147Y223588D01*
X42167Y223583D01*
X42270Y223591D01*
X42373Y223594D01*
X42392Y223600D01*
X42412Y223602D01*
X42507Y223642D01*
X42604Y223678D01*
X42620Y223691D01*
X42638Y223698D01*
X42769Y223803D01*
X75253Y256287D01*
X156210Y256287D01*
X156230Y256290D01*
X156249Y256288D01*
X156351Y256310D01*
X156453Y256326D01*
X156470Y256336D01*
X156490Y256340D01*
X156579Y256393D01*
X156670Y256442D01*
X156684Y256456D01*
X156701Y256466D01*
X156768Y256545D01*
X156840Y256620D01*
X156848Y256638D01*
X156861Y256653D01*
X156900Y256749D01*
X156943Y256843D01*
X156945Y256863D01*
X156953Y256881D01*
X156971Y257048D01*
X156971Y257367D01*
X161733Y262129D01*
X168467Y262129D01*
X173229Y257367D01*
X173229Y250633D01*
X168467Y245871D01*
X161733Y245871D01*
X156971Y250633D01*
X156971Y250952D01*
X156968Y250972D01*
X156970Y250991D01*
X156948Y251093D01*
X156932Y251195D01*
X156922Y251212D01*
X156918Y251232D01*
X156865Y251321D01*
X156816Y251412D01*
X156802Y251426D01*
X156792Y251443D01*
X156713Y251510D01*
X156638Y251582D01*
X156620Y251590D01*
X156605Y251603D01*
X156509Y251642D01*
X156415Y251685D01*
X156395Y251687D01*
X156377Y251695D01*
X156210Y251713D01*
X77463Y251713D01*
X77372Y251699D01*
X77282Y251691D01*
X77252Y251679D01*
X77220Y251674D01*
X77139Y251631D01*
X77055Y251595D01*
X77023Y251569D01*
X77002Y251558D01*
X76980Y251535D01*
X76924Y251490D01*
X46003Y220569D01*
X45991Y220553D01*
X45976Y220541D01*
X45920Y220453D01*
X45860Y220369D01*
X45854Y220350D01*
X45843Y220334D01*
X45818Y220233D01*
X45787Y220134D01*
X45788Y220114D01*
X45783Y220095D01*
X45791Y219992D01*
X45794Y219889D01*
X45800Y219870D01*
X45802Y219850D01*
X45842Y219755D01*
X45878Y219657D01*
X45891Y219642D01*
X45898Y219624D01*
X46003Y219493D01*
X46229Y219267D01*
X46229Y212533D01*
X41467Y207771D01*
X34733Y207771D01*
X29971Y212533D01*
X29971Y219267D01*
X30197Y219493D01*
X30209Y219509D01*
X30224Y219521D01*
X30280Y219608D01*
X30340Y219692D01*
X30346Y219711D01*
X30357Y219728D01*
X30382Y219829D01*
X30413Y219927D01*
X30412Y219947D01*
X30417Y219967D01*
X30409Y220070D01*
X30406Y220173D01*
X30400Y220192D01*
X30398Y220212D01*
X30358Y220307D01*
X30322Y220404D01*
X30309Y220420D01*
X30302Y220438D01*
X30197Y220569D01*
X11469Y239297D01*
X11461Y239305D01*
X11403Y239347D01*
X11350Y239397D01*
X11304Y239419D01*
X11262Y239449D01*
X11193Y239470D01*
X11127Y239501D01*
X11076Y239506D01*
X11027Y239522D01*
X10955Y239520D01*
X10883Y239528D01*
X10832Y239517D01*
X10781Y239516D01*
X10713Y239491D01*
X10642Y239476D01*
X10598Y239449D01*
X10550Y239432D01*
X10493Y239386D01*
X10431Y239349D01*
X10398Y239310D01*
X10358Y239278D01*
X10318Y239217D01*
X10271Y239162D01*
X10252Y239115D01*
X10224Y239072D01*
X10206Y239002D01*
X10179Y238934D01*
X10171Y238864D01*
X10164Y238833D01*
X10165Y238810D01*
X10161Y238768D01*
X10161Y10922D01*
X10164Y10902D01*
X10162Y10883D01*
X10184Y10781D01*
X10200Y10679D01*
X10210Y10662D01*
X10214Y10642D01*
X10267Y10553D01*
X10316Y10462D01*
X10330Y10448D01*
X10340Y10431D01*
X10419Y10364D01*
X10494Y10292D01*
X10512Y10284D01*
X10527Y10271D01*
X10623Y10232D01*
X10717Y10189D01*
X10737Y10187D01*
X10755Y10179D01*
X10922Y10161D01*
X493778Y10161D01*
X493798Y10164D01*
G37*
%LPC*%
G36*
X245779Y233171D02*
X245779Y233171D01*
X242791Y234409D01*
X240505Y236695D01*
X239267Y239683D01*
X239267Y242917D01*
X240505Y245905D01*
X242791Y248191D01*
X245779Y249429D01*
X251460Y249429D01*
X251480Y249432D01*
X251499Y249430D01*
X251601Y249452D01*
X251703Y249468D01*
X251720Y249478D01*
X251740Y249482D01*
X251829Y249535D01*
X251920Y249584D01*
X251934Y249598D01*
X251951Y249608D01*
X252018Y249687D01*
X252090Y249762D01*
X252098Y249780D01*
X252111Y249795D01*
X252150Y249891D01*
X252193Y249985D01*
X252195Y250005D01*
X252203Y250023D01*
X252221Y250190D01*
X252221Y282379D01*
X267238Y297396D01*
X267283Y297459D01*
X267308Y297485D01*
X267313Y297495D01*
X267351Y297540D01*
X267363Y297570D01*
X267382Y297596D01*
X267409Y297683D01*
X267443Y297768D01*
X267447Y297809D01*
X267454Y297831D01*
X267453Y297863D01*
X267461Y297935D01*
X267461Y298324D01*
X267450Y298394D01*
X267448Y298466D01*
X267430Y298515D01*
X267422Y298566D01*
X267388Y298630D01*
X267363Y298697D01*
X267331Y298738D01*
X267306Y298784D01*
X267254Y298833D01*
X267210Y298889D01*
X267166Y298917D01*
X267128Y298953D01*
X267063Y298983D01*
X267003Y299022D01*
X266952Y299035D01*
X266905Y299057D01*
X266834Y299065D01*
X266764Y299082D01*
X266712Y299078D01*
X266661Y299084D01*
X266590Y299069D01*
X266519Y299063D01*
X266471Y299043D01*
X266420Y299032D01*
X266359Y298995D01*
X266293Y298967D01*
X266237Y298922D01*
X266209Y298905D01*
X266194Y298888D01*
X266162Y298862D01*
X265209Y297909D01*
X262221Y296671D01*
X245779Y296671D01*
X242791Y297909D01*
X240505Y300195D01*
X239267Y303183D01*
X239267Y306417D01*
X240505Y309405D01*
X242795Y311695D01*
X242807Y311711D01*
X242822Y311723D01*
X242878Y311810D01*
X242938Y311894D01*
X242944Y311913D01*
X242955Y311930D01*
X242980Y312031D01*
X243011Y312129D01*
X243010Y312149D01*
X243015Y312169D01*
X243007Y312272D01*
X243004Y312375D01*
X242998Y312394D01*
X242996Y312414D01*
X242956Y312509D01*
X242920Y312606D01*
X242907Y312622D01*
X242900Y312640D01*
X242795Y312771D01*
X230924Y324642D01*
X230850Y324695D01*
X230780Y324755D01*
X230750Y324767D01*
X230724Y324786D01*
X230637Y324813D01*
X230552Y324847D01*
X230511Y324851D01*
X230489Y324858D01*
X230457Y324857D01*
X230385Y324865D01*
X105156Y324865D01*
X105136Y324862D01*
X105117Y324864D01*
X105015Y324842D01*
X104913Y324826D01*
X104896Y324816D01*
X104876Y324812D01*
X104787Y324759D01*
X104696Y324710D01*
X104682Y324696D01*
X104665Y324686D01*
X104598Y324607D01*
X104526Y324532D01*
X104518Y324514D01*
X104505Y324499D01*
X104466Y324403D01*
X104423Y324309D01*
X104421Y324289D01*
X104413Y324271D01*
X104395Y324104D01*
X104395Y303345D01*
X97252Y296202D01*
X97199Y296128D01*
X97139Y296058D01*
X97127Y296028D01*
X97108Y296002D01*
X97081Y295915D01*
X97047Y295830D01*
X97043Y295789D01*
X97036Y295767D01*
X97037Y295735D01*
X97029Y295663D01*
X97029Y288733D01*
X92267Y283971D01*
X85533Y283971D01*
X80771Y288733D01*
X80771Y295467D01*
X85533Y300229D01*
X92267Y300229D01*
X93001Y299495D01*
X93017Y299483D01*
X93029Y299468D01*
X93116Y299412D01*
X93200Y299352D01*
X93219Y299346D01*
X93236Y299335D01*
X93337Y299310D01*
X93435Y299279D01*
X93455Y299280D01*
X93475Y299275D01*
X93578Y299283D01*
X93681Y299286D01*
X93700Y299292D01*
X93720Y299294D01*
X93815Y299334D01*
X93912Y299370D01*
X93928Y299383D01*
X93946Y299390D01*
X94077Y299495D01*
X99598Y305016D01*
X99645Y305081D01*
X99661Y305098D01*
X99664Y305105D01*
X99711Y305160D01*
X99723Y305190D01*
X99742Y305216D01*
X99769Y305303D01*
X99803Y305388D01*
X99807Y305429D01*
X99814Y305451D01*
X99813Y305483D01*
X99821Y305555D01*
X99821Y379229D01*
X99807Y379320D01*
X99799Y379410D01*
X99787Y379440D01*
X99782Y379472D01*
X99739Y379553D01*
X99703Y379637D01*
X99677Y379669D01*
X99666Y379690D01*
X99643Y379712D01*
X99598Y379768D01*
X93569Y385797D01*
X93553Y385809D01*
X93541Y385824D01*
X93453Y385880D01*
X93369Y385940D01*
X93350Y385946D01*
X93334Y385957D01*
X93233Y385982D01*
X93134Y386013D01*
X93114Y386012D01*
X93095Y386017D01*
X92992Y386009D01*
X92889Y386006D01*
X92870Y386000D01*
X92850Y385998D01*
X92755Y385958D01*
X92657Y385922D01*
X92642Y385909D01*
X92624Y385902D01*
X92493Y385797D01*
X92267Y385571D01*
X85533Y385571D01*
X80771Y390333D01*
X80771Y397067D01*
X85533Y401829D01*
X92267Y401829D01*
X97029Y397067D01*
X97029Y390333D01*
X96803Y390107D01*
X96791Y390091D01*
X96776Y390079D01*
X96720Y389992D01*
X96660Y389908D01*
X96654Y389889D01*
X96643Y389872D01*
X96618Y389771D01*
X96587Y389673D01*
X96588Y389653D01*
X96583Y389633D01*
X96591Y389530D01*
X96594Y389427D01*
X96600Y389408D01*
X96602Y389388D01*
X96642Y389293D01*
X96678Y389196D01*
X96691Y389180D01*
X96698Y389162D01*
X96803Y389031D01*
X104395Y381439D01*
X104395Y330200D01*
X104398Y330180D01*
X104396Y330161D01*
X104418Y330059D01*
X104434Y329957D01*
X104444Y329940D01*
X104448Y329920D01*
X104501Y329831D01*
X104550Y329740D01*
X104564Y329726D01*
X104574Y329709D01*
X104653Y329642D01*
X104728Y329570D01*
X104746Y329562D01*
X104761Y329549D01*
X104857Y329510D01*
X104951Y329467D01*
X104971Y329465D01*
X104989Y329457D01*
X105156Y329439D01*
X172474Y329439D01*
X172544Y329450D01*
X172616Y329452D01*
X172665Y329470D01*
X172716Y329478D01*
X172780Y329512D01*
X172847Y329537D01*
X172888Y329569D01*
X172934Y329594D01*
X172983Y329645D01*
X173039Y329690D01*
X173067Y329734D01*
X173103Y329772D01*
X173133Y329837D01*
X173172Y329897D01*
X173185Y329948D01*
X173207Y329995D01*
X173215Y330066D01*
X173232Y330136D01*
X173228Y330188D01*
X173234Y330239D01*
X173219Y330310D01*
X173213Y330381D01*
X173193Y330429D01*
X173182Y330480D01*
X173145Y330541D01*
X173117Y330607D01*
X173072Y330663D01*
X173055Y330691D01*
X173038Y330706D01*
X173012Y330738D01*
X81023Y422727D01*
X81007Y422739D01*
X80994Y422754D01*
X80907Y422810D01*
X80823Y422871D01*
X80804Y422876D01*
X80787Y422887D01*
X80687Y422912D01*
X80588Y422943D01*
X80568Y422942D01*
X80549Y422947D01*
X80446Y422939D01*
X80342Y422937D01*
X80324Y422930D01*
X80304Y422928D01*
X80209Y422888D01*
X80111Y422852D01*
X80096Y422840D01*
X80077Y422832D01*
X79957Y422735D01*
X72445Y422735D01*
X67135Y428045D01*
X67135Y435555D01*
X72445Y440865D01*
X79955Y440865D01*
X85265Y435555D01*
X85265Y428045D01*
X84257Y427038D01*
X84245Y427021D01*
X84230Y427009D01*
X84174Y426922D01*
X84113Y426838D01*
X84108Y426819D01*
X84097Y426802D01*
X84071Y426702D01*
X84041Y426603D01*
X84042Y426583D01*
X84037Y426563D01*
X84045Y426460D01*
X84047Y426357D01*
X84054Y426338D01*
X84056Y426318D01*
X84096Y426223D01*
X84132Y426126D01*
X84144Y426110D01*
X84152Y426092D01*
X84257Y425961D01*
X86330Y423888D01*
X86388Y423846D01*
X86440Y423797D01*
X86487Y423775D01*
X86529Y423745D01*
X86598Y423724D01*
X86663Y423693D01*
X86715Y423688D01*
X86765Y423672D01*
X86836Y423674D01*
X86907Y423666D01*
X86958Y423677D01*
X87010Y423679D01*
X87078Y423703D01*
X87148Y423718D01*
X87192Y423745D01*
X87241Y423763D01*
X87297Y423808D01*
X87359Y423845D01*
X87393Y423884D01*
X87433Y423917D01*
X87472Y423977D01*
X87519Y424032D01*
X87538Y424080D01*
X87566Y424124D01*
X87584Y424193D01*
X87611Y424260D01*
X87619Y424331D01*
X87627Y424362D01*
X87625Y424386D01*
X87629Y424426D01*
X87629Y442976D01*
X87626Y442996D01*
X87628Y443015D01*
X87606Y443117D01*
X87590Y443219D01*
X87580Y443236D01*
X87576Y443256D01*
X87523Y443345D01*
X87474Y443436D01*
X87460Y443450D01*
X87450Y443467D01*
X87371Y443534D01*
X87296Y443606D01*
X87278Y443614D01*
X87263Y443627D01*
X87167Y443666D01*
X87073Y443709D01*
X87053Y443711D01*
X87035Y443719D01*
X86868Y443737D01*
X65271Y443737D01*
X65180Y443723D01*
X65090Y443715D01*
X65060Y443703D01*
X65028Y443698D01*
X64947Y443655D01*
X64863Y443619D01*
X64831Y443593D01*
X64810Y443582D01*
X64788Y443559D01*
X64732Y443514D01*
X58857Y437639D01*
X58845Y437623D01*
X58830Y437610D01*
X58774Y437523D01*
X58713Y437439D01*
X58708Y437420D01*
X58697Y437404D01*
X58671Y437303D01*
X58641Y437204D01*
X58642Y437184D01*
X58637Y437165D01*
X58645Y437062D01*
X58647Y436958D01*
X58654Y436940D01*
X58656Y436920D01*
X58696Y436825D01*
X58732Y436727D01*
X58744Y436712D01*
X58752Y436693D01*
X58857Y436562D01*
X59865Y435555D01*
X59865Y428045D01*
X54555Y422735D01*
X47045Y422735D01*
X41735Y428045D01*
X41735Y435555D01*
X47045Y440865D01*
X54558Y440865D01*
X54563Y440861D01*
X54575Y440846D01*
X54662Y440790D01*
X54746Y440729D01*
X54765Y440724D01*
X54782Y440713D01*
X54882Y440688D01*
X54981Y440657D01*
X55001Y440658D01*
X55021Y440653D01*
X55124Y440661D01*
X55227Y440663D01*
X55246Y440670D01*
X55266Y440672D01*
X55361Y440712D01*
X55458Y440748D01*
X55474Y440760D01*
X55492Y440768D01*
X55623Y440873D01*
X63061Y448311D01*
X89339Y448311D01*
X92203Y445447D01*
X92203Y422903D01*
X92217Y422812D01*
X92225Y422722D01*
X92237Y422692D01*
X92242Y422660D01*
X92285Y422579D01*
X92321Y422495D01*
X92347Y422463D01*
X92358Y422442D01*
X92381Y422420D01*
X92426Y422364D01*
X179032Y335758D01*
X179106Y335705D01*
X179176Y335645D01*
X179206Y335633D01*
X179232Y335614D01*
X179319Y335587D01*
X179404Y335553D01*
X179445Y335549D01*
X179467Y335542D01*
X179499Y335543D01*
X179571Y335535D01*
X230385Y335535D01*
X230476Y335549D01*
X230566Y335557D01*
X230596Y335569D01*
X230628Y335574D01*
X230709Y335617D01*
X230793Y335653D01*
X230825Y335679D01*
X230846Y335690D01*
X230868Y335713D01*
X230924Y335758D01*
X242795Y347629D01*
X242807Y347645D01*
X242822Y347657D01*
X242851Y347703D01*
X242875Y347728D01*
X242891Y347762D01*
X242938Y347829D01*
X242944Y347848D01*
X242955Y347864D01*
X242975Y347943D01*
X242978Y347951D01*
X242980Y347962D01*
X242980Y347965D01*
X243011Y348064D01*
X243010Y348084D01*
X243015Y348103D01*
X243007Y348206D01*
X243004Y348309D01*
X242998Y348328D01*
X242996Y348348D01*
X242956Y348443D01*
X242920Y348541D01*
X242907Y348556D01*
X242900Y348574D01*
X242795Y348705D01*
X240505Y350995D01*
X239267Y353983D01*
X239267Y357217D01*
X240505Y360205D01*
X242791Y362491D01*
X245779Y363729D01*
X262221Y363729D01*
X265209Y362491D01*
X266162Y361538D01*
X266220Y361496D01*
X266272Y361447D01*
X266319Y361425D01*
X266361Y361394D01*
X266430Y361373D01*
X266495Y361343D01*
X266547Y361337D01*
X266597Y361322D01*
X266668Y361324D01*
X266739Y361316D01*
X266790Y361327D01*
X266842Y361328D01*
X266910Y361353D01*
X266980Y361368D01*
X267025Y361395D01*
X267073Y361413D01*
X267129Y361458D01*
X267191Y361495D01*
X267225Y361534D01*
X267265Y361567D01*
X267304Y361627D01*
X267351Y361681D01*
X267370Y361730D01*
X267398Y361774D01*
X267416Y361843D01*
X267443Y361910D01*
X267451Y361981D01*
X267459Y362012D01*
X267457Y362035D01*
X267461Y362076D01*
X267461Y363989D01*
X267447Y364080D01*
X267439Y364170D01*
X267427Y364200D01*
X267422Y364232D01*
X267379Y364313D01*
X267343Y364397D01*
X267317Y364429D01*
X267306Y364450D01*
X267283Y364472D01*
X267238Y364528D01*
X259118Y372648D01*
X259044Y372701D01*
X258974Y372761D01*
X258944Y372773D01*
X258918Y372792D01*
X258831Y372819D01*
X258746Y372853D01*
X258705Y372857D01*
X258683Y372864D01*
X258651Y372863D01*
X258579Y372871D01*
X245779Y372871D01*
X242791Y374109D01*
X240505Y376395D01*
X239267Y379383D01*
X239267Y382617D01*
X240505Y385605D01*
X242791Y387891D01*
X245779Y389129D01*
X262221Y389129D01*
X265209Y387891D01*
X267495Y385605D01*
X268733Y382617D01*
X268733Y379383D01*
X267495Y376395D01*
X265205Y374105D01*
X265193Y374089D01*
X265178Y374077D01*
X265122Y373990D01*
X265062Y373906D01*
X265056Y373887D01*
X265045Y373870D01*
X265020Y373769D01*
X264989Y373671D01*
X264990Y373651D01*
X264985Y373631D01*
X264993Y373528D01*
X264996Y373425D01*
X265002Y373406D01*
X265004Y373386D01*
X265044Y373291D01*
X265080Y373194D01*
X265093Y373178D01*
X265100Y373160D01*
X265205Y373029D01*
X272035Y366199D01*
X272035Y295725D01*
X257018Y280708D01*
X256965Y280634D01*
X256905Y280564D01*
X256893Y280534D01*
X256874Y280508D01*
X256847Y280421D01*
X256813Y280336D01*
X256809Y280295D01*
X256802Y280273D01*
X256803Y280241D01*
X256795Y280169D01*
X256795Y250190D01*
X256798Y250170D01*
X256796Y250151D01*
X256818Y250049D01*
X256834Y249947D01*
X256844Y249930D01*
X256848Y249910D01*
X256901Y249821D01*
X256950Y249730D01*
X256964Y249716D01*
X256974Y249699D01*
X257053Y249632D01*
X257128Y249560D01*
X257146Y249552D01*
X257161Y249539D01*
X257257Y249500D01*
X257351Y249457D01*
X257371Y249455D01*
X257389Y249447D01*
X257556Y249429D01*
X262221Y249429D01*
X265209Y248191D01*
X267495Y245905D01*
X268733Y242917D01*
X268733Y239683D01*
X267495Y236695D01*
X265209Y234409D01*
X262221Y233171D01*
X245779Y233171D01*
G37*
%LPD*%
%LPC*%
G36*
X440745Y29035D02*
X440745Y29035D01*
X435435Y34345D01*
X435435Y41855D01*
X435935Y42354D01*
X435947Y42371D01*
X435962Y42383D01*
X435997Y42438D01*
X436025Y42466D01*
X436041Y42502D01*
X436079Y42554D01*
X436084Y42573D01*
X436095Y42590D01*
X436111Y42653D01*
X436128Y42689D01*
X436133Y42730D01*
X436151Y42789D01*
X436150Y42809D01*
X436155Y42829D01*
X436150Y42891D01*
X436155Y42934D01*
X436146Y42976D01*
X436145Y43035D01*
X436138Y43054D01*
X436136Y43074D01*
X436113Y43128D01*
X436103Y43174D01*
X436079Y43214D01*
X436060Y43266D01*
X436048Y43282D01*
X436040Y43300D01*
X435992Y43360D01*
X435977Y43385D01*
X435960Y43400D01*
X435935Y43431D01*
X430568Y48798D01*
X430494Y48851D01*
X430424Y48911D01*
X430394Y48923D01*
X430368Y48942D01*
X430281Y48969D01*
X430196Y49003D01*
X430155Y49007D01*
X430133Y49014D01*
X430101Y49013D01*
X430029Y49021D01*
X267963Y49021D01*
X267872Y49007D01*
X267782Y48999D01*
X267752Y48987D01*
X267720Y48982D01*
X267639Y48939D01*
X267555Y48903D01*
X267523Y48877D01*
X267502Y48866D01*
X267480Y48843D01*
X267424Y48798D01*
X264889Y46263D01*
X264862Y46226D01*
X264828Y46195D01*
X264791Y46126D01*
X264745Y46063D01*
X264732Y46019D01*
X264710Y45979D01*
X264696Y45903D01*
X264673Y45828D01*
X264674Y45782D01*
X264666Y45737D01*
X264677Y45660D01*
X264679Y45582D01*
X264695Y45539D01*
X264702Y45494D01*
X264737Y45424D01*
X264764Y45351D01*
X264792Y45315D01*
X264813Y45274D01*
X264869Y45220D01*
X264917Y45159D01*
X264956Y45134D01*
X264989Y45102D01*
X265109Y45036D01*
X265124Y45026D01*
X265129Y45025D01*
X265136Y45021D01*
X265209Y44991D01*
X267495Y42705D01*
X268733Y39717D01*
X268733Y36483D01*
X267495Y33495D01*
X265209Y31209D01*
X262221Y29971D01*
X245779Y29971D01*
X242791Y31209D01*
X240505Y33495D01*
X239267Y36483D01*
X239267Y39717D01*
X240505Y42705D01*
X242474Y44674D01*
X242516Y44732D01*
X242565Y44784D01*
X242587Y44831D01*
X242618Y44873D01*
X242639Y44942D01*
X242669Y45007D01*
X242675Y45059D01*
X242690Y45109D01*
X242688Y45180D01*
X242696Y45251D01*
X242685Y45302D01*
X242684Y45354D01*
X242659Y45422D01*
X242644Y45492D01*
X242617Y45537D01*
X242599Y45585D01*
X242554Y45641D01*
X242517Y45703D01*
X242478Y45737D01*
X242445Y45777D01*
X242385Y45816D01*
X242331Y45863D01*
X242282Y45882D01*
X242238Y45910D01*
X242169Y45928D01*
X242102Y45955D01*
X242031Y45963D01*
X242000Y45971D01*
X241977Y45969D01*
X241936Y45973D01*
X211574Y45973D01*
X211484Y45959D01*
X211393Y45951D01*
X211364Y45939D01*
X211332Y45934D01*
X211251Y45891D01*
X211167Y45855D01*
X211135Y45829D01*
X211114Y45818D01*
X211092Y45795D01*
X211036Y45750D01*
X203678Y38392D01*
X202115Y36829D01*
X174313Y36829D01*
X162344Y48798D01*
X162270Y48851D01*
X162200Y48911D01*
X162170Y48923D01*
X162144Y48942D01*
X162057Y48969D01*
X161972Y49003D01*
X161931Y49007D01*
X161909Y49014D01*
X161877Y49013D01*
X161805Y49021D01*
X105156Y49021D01*
X105136Y49018D01*
X105117Y49020D01*
X105015Y48998D01*
X104913Y48982D01*
X104896Y48972D01*
X104876Y48968D01*
X104787Y48915D01*
X104696Y48866D01*
X104682Y48852D01*
X104665Y48842D01*
X104598Y48763D01*
X104526Y48688D01*
X104518Y48670D01*
X104505Y48655D01*
X104466Y48559D01*
X104423Y48465D01*
X104421Y48445D01*
X104413Y48427D01*
X104395Y48260D01*
X104395Y46990D01*
X104398Y46970D01*
X104396Y46951D01*
X104418Y46849D01*
X104434Y46747D01*
X104444Y46730D01*
X104448Y46710D01*
X104501Y46621D01*
X104550Y46530D01*
X104564Y46516D01*
X104574Y46499D01*
X104653Y46432D01*
X104728Y46360D01*
X104746Y46352D01*
X104761Y46339D01*
X104857Y46300D01*
X104928Y46267D01*
X109729Y41467D01*
X109729Y34733D01*
X104967Y29971D01*
X98233Y29971D01*
X93471Y34733D01*
X93471Y41467D01*
X98233Y46229D01*
X99060Y46229D01*
X99080Y46232D01*
X99099Y46230D01*
X99201Y46252D01*
X99303Y46268D01*
X99320Y46278D01*
X99340Y46282D01*
X99429Y46335D01*
X99520Y46384D01*
X99534Y46398D01*
X99551Y46408D01*
X99618Y46487D01*
X99690Y46562D01*
X99698Y46580D01*
X99711Y46595D01*
X99750Y46691D01*
X99793Y46785D01*
X99795Y46805D01*
X99803Y46823D01*
X99821Y46990D01*
X99821Y92710D01*
X99818Y92730D01*
X99820Y92749D01*
X99798Y92851D01*
X99782Y92953D01*
X99772Y92970D01*
X99768Y92990D01*
X99715Y93079D01*
X99666Y93170D01*
X99652Y93184D01*
X99642Y93201D01*
X99563Y93268D01*
X99488Y93340D01*
X99470Y93348D01*
X99455Y93361D01*
X99359Y93400D01*
X99265Y93443D01*
X99245Y93445D01*
X99227Y93453D01*
X99060Y93471D01*
X98233Y93471D01*
X93471Y98233D01*
X93471Y105163D01*
X93457Y105254D01*
X93449Y105344D01*
X93437Y105374D01*
X93432Y105406D01*
X93389Y105487D01*
X93353Y105571D01*
X93327Y105603D01*
X93316Y105624D01*
X93293Y105646D01*
X93248Y105702D01*
X87629Y111321D01*
X87629Y207010D01*
X87626Y207030D01*
X87628Y207049D01*
X87606Y207151D01*
X87590Y207253D01*
X87580Y207270D01*
X87576Y207290D01*
X87523Y207379D01*
X87474Y207470D01*
X87460Y207484D01*
X87450Y207501D01*
X87371Y207568D01*
X87296Y207640D01*
X87278Y207648D01*
X87263Y207661D01*
X87167Y207700D01*
X87073Y207743D01*
X87053Y207745D01*
X87035Y207753D01*
X86868Y207771D01*
X85533Y207771D01*
X80771Y212533D01*
X80771Y219267D01*
X85533Y224029D01*
X92267Y224029D01*
X97029Y219267D01*
X97029Y212533D01*
X92426Y207930D01*
X92373Y207856D01*
X92313Y207787D01*
X92301Y207756D01*
X92282Y207730D01*
X92255Y207643D01*
X92221Y207558D01*
X92217Y207517D01*
X92210Y207495D01*
X92211Y207463D01*
X92203Y207392D01*
X92203Y113531D01*
X92217Y113440D01*
X92225Y113350D01*
X92237Y113320D01*
X92242Y113288D01*
X92285Y113207D01*
X92321Y113123D01*
X92347Y113091D01*
X92358Y113070D01*
X92381Y113048D01*
X92426Y112992D01*
X96423Y108995D01*
X96439Y108983D01*
X96451Y108968D01*
X96539Y108912D01*
X96623Y108852D01*
X96642Y108846D01*
X96658Y108835D01*
X96759Y108810D01*
X96858Y108779D01*
X96878Y108780D01*
X96897Y108775D01*
X97000Y108783D01*
X97103Y108786D01*
X97122Y108792D01*
X97142Y108794D01*
X97237Y108834D01*
X97335Y108870D01*
X97350Y108883D01*
X97368Y108890D01*
X97499Y108995D01*
X98233Y109729D01*
X104967Y109729D01*
X109729Y104967D01*
X109729Y98233D01*
X104930Y93434D01*
X104913Y93432D01*
X104896Y93422D01*
X104876Y93418D01*
X104787Y93365D01*
X104696Y93316D01*
X104682Y93302D01*
X104665Y93292D01*
X104598Y93213D01*
X104526Y93138D01*
X104518Y93120D01*
X104505Y93105D01*
X104466Y93009D01*
X104423Y92915D01*
X104421Y92895D01*
X104413Y92877D01*
X104395Y92710D01*
X104395Y54356D01*
X104398Y54336D01*
X104396Y54317D01*
X104418Y54215D01*
X104434Y54113D01*
X104444Y54096D01*
X104448Y54076D01*
X104501Y53987D01*
X104550Y53896D01*
X104564Y53882D01*
X104574Y53865D01*
X104653Y53798D01*
X104728Y53726D01*
X104746Y53718D01*
X104761Y53705D01*
X104857Y53666D01*
X104951Y53623D01*
X104971Y53621D01*
X104989Y53613D01*
X105156Y53595D01*
X164015Y53595D01*
X175984Y41626D01*
X176058Y41573D01*
X176128Y41513D01*
X176158Y41501D01*
X176184Y41482D01*
X176271Y41455D01*
X176356Y41421D01*
X176397Y41417D01*
X176419Y41410D01*
X176451Y41411D01*
X176523Y41403D01*
X199906Y41403D01*
X199996Y41417D01*
X200087Y41425D01*
X200116Y41437D01*
X200148Y41442D01*
X200229Y41485D01*
X200313Y41521D01*
X200345Y41547D01*
X200366Y41558D01*
X200388Y41581D01*
X200444Y41626D01*
X206540Y47722D01*
X206582Y47780D01*
X206631Y47832D01*
X206653Y47879D01*
X206683Y47921D01*
X206704Y47990D01*
X206735Y48055D01*
X206740Y48107D01*
X206756Y48157D01*
X206754Y48228D01*
X206762Y48299D01*
X206751Y48350D01*
X206749Y48402D01*
X206725Y48470D01*
X206710Y48540D01*
X206683Y48584D01*
X206665Y48633D01*
X206620Y48689D01*
X206583Y48751D01*
X206544Y48785D01*
X206511Y48825D01*
X206451Y48864D01*
X206396Y48911D01*
X206348Y48930D01*
X206304Y48958D01*
X206235Y48976D01*
X206168Y49003D01*
X206097Y49011D01*
X206066Y49019D01*
X206042Y49017D01*
X206002Y49021D01*
X203559Y49021D01*
X203444Y49002D01*
X203328Y48985D01*
X203322Y48983D01*
X203316Y48982D01*
X203213Y48927D01*
X203108Y48874D01*
X203104Y48869D01*
X203099Y48866D01*
X203019Y48782D01*
X202936Y48698D01*
X202933Y48692D01*
X202929Y48688D01*
X202921Y48671D01*
X202855Y48551D01*
X202118Y46771D01*
X200117Y44770D01*
X197503Y43687D01*
X183497Y43687D01*
X180883Y44770D01*
X178882Y46771D01*
X177799Y49385D01*
X177799Y52215D01*
X178882Y54829D01*
X180775Y56722D01*
X180787Y56738D01*
X180802Y56751D01*
X180859Y56838D01*
X180919Y56922D01*
X180925Y56941D01*
X180935Y56958D01*
X180961Y57058D01*
X180991Y57157D01*
X180991Y57177D01*
X180996Y57196D01*
X180988Y57299D01*
X180985Y57403D01*
X180978Y57422D01*
X180976Y57441D01*
X180936Y57536D01*
X180900Y57634D01*
X180888Y57650D01*
X180880Y57668D01*
X180775Y57799D01*
X150113Y88461D01*
X150113Y92710D01*
X150110Y92730D01*
X150112Y92749D01*
X150090Y92851D01*
X150074Y92953D01*
X150064Y92970D01*
X150060Y92990D01*
X150007Y93079D01*
X149958Y93170D01*
X149944Y93184D01*
X149934Y93201D01*
X149855Y93268D01*
X149780Y93340D01*
X149762Y93348D01*
X149747Y93361D01*
X149651Y93400D01*
X149557Y93443D01*
X149537Y93445D01*
X149519Y93453D01*
X149352Y93471D01*
X149033Y93471D01*
X144271Y98233D01*
X144271Y104967D01*
X149033Y109729D01*
X155767Y109729D01*
X160529Y104967D01*
X160529Y98233D01*
X155767Y93471D01*
X155448Y93471D01*
X155428Y93468D01*
X155409Y93470D01*
X155307Y93448D01*
X155205Y93432D01*
X155188Y93422D01*
X155168Y93418D01*
X155079Y93365D01*
X154988Y93316D01*
X154974Y93302D01*
X154957Y93292D01*
X154890Y93213D01*
X154818Y93138D01*
X154810Y93120D01*
X154797Y93105D01*
X154758Y93009D01*
X154715Y92915D01*
X154713Y92895D01*
X154705Y92877D01*
X154687Y92710D01*
X154687Y90671D01*
X154701Y90580D01*
X154709Y90490D01*
X154721Y90460D01*
X154726Y90428D01*
X154769Y90347D01*
X154805Y90263D01*
X154831Y90231D01*
X154842Y90210D01*
X154865Y90188D01*
X154910Y90132D01*
X186906Y58136D01*
X186980Y58083D01*
X187050Y58023D01*
X187080Y58011D01*
X187106Y57992D01*
X187193Y57965D01*
X187278Y57931D01*
X187319Y57927D01*
X187341Y57920D01*
X187373Y57921D01*
X187445Y57913D01*
X197503Y57913D01*
X200117Y56830D01*
X202118Y54829D01*
X202434Y54065D01*
X202496Y53965D01*
X202556Y53865D01*
X202561Y53861D01*
X202564Y53856D01*
X202654Y53781D01*
X202743Y53705D01*
X202749Y53703D01*
X202754Y53699D01*
X202862Y53657D01*
X202971Y53613D01*
X202979Y53612D01*
X202983Y53611D01*
X203001Y53610D01*
X203138Y53595D01*
X239529Y53595D01*
X239620Y53609D01*
X239710Y53617D01*
X239740Y53629D01*
X239772Y53634D01*
X239853Y53677D01*
X239937Y53713D01*
X239969Y53739D01*
X239990Y53750D01*
X240012Y53773D01*
X240068Y53818D01*
X242287Y56037D01*
X242299Y56053D01*
X242314Y56065D01*
X242370Y56153D01*
X242430Y56237D01*
X242436Y56256D01*
X242447Y56272D01*
X242472Y56373D01*
X242503Y56472D01*
X242502Y56492D01*
X242507Y56511D01*
X242499Y56614D01*
X242496Y56717D01*
X242490Y56736D01*
X242488Y56756D01*
X242448Y56851D01*
X242412Y56949D01*
X242399Y56964D01*
X242392Y56982D01*
X242312Y57082D01*
X242308Y57088D01*
X242305Y57091D01*
X242287Y57113D01*
X240505Y58895D01*
X239267Y61883D01*
X239267Y65117D01*
X240505Y68105D01*
X242791Y70391D01*
X245779Y71629D01*
X262221Y71629D01*
X265209Y70391D01*
X267495Y68105D01*
X268733Y65117D01*
X268733Y61883D01*
X267495Y58895D01*
X265209Y56609D01*
X262221Y55371D01*
X248405Y55371D01*
X248314Y55357D01*
X248224Y55349D01*
X248194Y55337D01*
X248162Y55332D01*
X248081Y55289D01*
X247997Y55253D01*
X247965Y55227D01*
X247944Y55216D01*
X247922Y55193D01*
X247866Y55148D01*
X244564Y51846D01*
X244552Y51830D01*
X244537Y51818D01*
X244509Y51774D01*
X244473Y51736D01*
X244451Y51689D01*
X244421Y51647D01*
X244415Y51627D01*
X244404Y51611D01*
X244391Y51560D01*
X244369Y51513D01*
X244364Y51461D01*
X244348Y51411D01*
X244349Y51391D01*
X244344Y51372D01*
X244348Y51321D01*
X244342Y51269D01*
X244353Y51218D01*
X244355Y51166D01*
X244362Y51147D01*
X244363Y51127D01*
X244383Y51079D01*
X244394Y51028D01*
X244421Y50983D01*
X244439Y50935D01*
X244452Y50919D01*
X244459Y50901D01*
X244504Y50845D01*
X244521Y50817D01*
X244539Y50802D01*
X244564Y50770D01*
X248882Y46452D01*
X248956Y46399D01*
X249026Y46339D01*
X249056Y46327D01*
X249082Y46308D01*
X249169Y46281D01*
X249254Y46247D01*
X249295Y46243D01*
X249317Y46236D01*
X249349Y46237D01*
X249421Y46229D01*
X258072Y46229D01*
X258162Y46243D01*
X258253Y46251D01*
X258282Y46263D01*
X258314Y46268D01*
X258395Y46311D01*
X258479Y46347D01*
X258511Y46373D01*
X258532Y46384D01*
X258554Y46407D01*
X258610Y46452D01*
X265753Y53595D01*
X359926Y53595D01*
X359996Y53606D01*
X360068Y53608D01*
X360117Y53626D01*
X360168Y53634D01*
X360232Y53668D01*
X360299Y53693D01*
X360340Y53725D01*
X360386Y53750D01*
X360435Y53802D01*
X360491Y53846D01*
X360519Y53890D01*
X360555Y53928D01*
X360585Y53993D01*
X360624Y54053D01*
X360637Y54104D01*
X360659Y54151D01*
X360667Y54222D01*
X360684Y54292D01*
X360680Y54344D01*
X360686Y54395D01*
X360671Y54466D01*
X360665Y54537D01*
X360645Y54585D01*
X360634Y54636D01*
X360597Y54697D01*
X360569Y54763D01*
X360524Y54819D01*
X360507Y54847D01*
X360490Y54862D01*
X360464Y54894D01*
X334810Y80548D01*
X334736Y80601D01*
X334666Y80661D01*
X334636Y80673D01*
X334610Y80692D01*
X334523Y80719D01*
X334438Y80753D01*
X334397Y80757D01*
X334375Y80764D01*
X334343Y80763D01*
X334271Y80771D01*
X321979Y80771D01*
X318991Y82009D01*
X316705Y84295D01*
X315467Y87283D01*
X315467Y90517D01*
X316705Y93505D01*
X318991Y95791D01*
X321979Y97029D01*
X338421Y97029D01*
X341409Y95791D01*
X343695Y93505D01*
X344933Y90517D01*
X344933Y87283D01*
X343695Y84295D01*
X341409Y82009D01*
X341336Y81979D01*
X341297Y81954D01*
X341254Y81939D01*
X341193Y81890D01*
X341127Y81849D01*
X341098Y81814D01*
X341062Y81785D01*
X341020Y81720D01*
X340970Y81660D01*
X340953Y81617D01*
X340929Y81578D01*
X340910Y81503D01*
X340882Y81430D01*
X340880Y81384D01*
X340869Y81340D01*
X340875Y81262D01*
X340871Y81184D01*
X340884Y81140D01*
X340888Y81094D01*
X340918Y81023D01*
X340940Y80948D01*
X340966Y80910D01*
X340984Y80868D01*
X341069Y80761D01*
X341080Y80746D01*
X341084Y80743D01*
X341089Y80737D01*
X364960Y56866D01*
X365034Y56813D01*
X365104Y56753D01*
X365134Y56741D01*
X365160Y56722D01*
X365247Y56695D01*
X365332Y56661D01*
X365373Y56657D01*
X365395Y56650D01*
X365427Y56651D01*
X365499Y56643D01*
X433077Y56643D01*
X433168Y56657D01*
X433258Y56665D01*
X433288Y56677D01*
X433320Y56682D01*
X433401Y56725D01*
X433485Y56761D01*
X433517Y56787D01*
X433538Y56798D01*
X433560Y56821D01*
X433616Y56866D01*
X435427Y58677D01*
X435439Y58693D01*
X435454Y58706D01*
X435510Y58793D01*
X435571Y58877D01*
X435576Y58896D01*
X435587Y58913D01*
X435612Y59013D01*
X435643Y59112D01*
X435642Y59132D01*
X435647Y59151D01*
X435639Y59254D01*
X435637Y59358D01*
X435630Y59376D01*
X435628Y59396D01*
X435588Y59491D01*
X435552Y59589D01*
X435540Y59604D01*
X435532Y59623D01*
X435435Y59743D01*
X435435Y67255D01*
X440745Y72565D01*
X448255Y72565D01*
X453565Y67255D01*
X453565Y59745D01*
X448255Y54435D01*
X440745Y54435D01*
X439738Y55443D01*
X439721Y55455D01*
X439709Y55470D01*
X439622Y55526D01*
X439538Y55587D01*
X439519Y55592D01*
X439502Y55603D01*
X439402Y55629D01*
X439303Y55659D01*
X439283Y55658D01*
X439263Y55663D01*
X439160Y55655D01*
X439057Y55653D01*
X439038Y55646D01*
X439018Y55644D01*
X438923Y55604D01*
X438826Y55568D01*
X438810Y55556D01*
X438792Y55548D01*
X438661Y55443D01*
X435064Y51846D01*
X435053Y51830D01*
X435037Y51818D01*
X435009Y51774D01*
X434973Y51736D01*
X434951Y51689D01*
X434921Y51647D01*
X434915Y51628D01*
X434904Y51611D01*
X434891Y51560D01*
X434869Y51513D01*
X434864Y51461D01*
X434848Y51411D01*
X434849Y51392D01*
X434844Y51372D01*
X434848Y51320D01*
X434842Y51269D01*
X434853Y51217D01*
X434855Y51166D01*
X434861Y51147D01*
X434863Y51127D01*
X434883Y51079D01*
X434894Y51028D01*
X434921Y50983D01*
X434939Y50935D01*
X434951Y50919D01*
X434959Y50901D01*
X435004Y50845D01*
X435021Y50817D01*
X435038Y50802D01*
X435064Y50770D01*
X439169Y46665D01*
X439185Y46653D01*
X439198Y46638D01*
X439285Y46582D01*
X439369Y46521D01*
X439388Y46516D01*
X439405Y46505D01*
X439505Y46479D01*
X439604Y46449D01*
X439624Y46450D01*
X439643Y46445D01*
X439746Y46453D01*
X439850Y46455D01*
X439868Y46462D01*
X439888Y46464D01*
X439983Y46504D01*
X440081Y46540D01*
X440096Y46552D01*
X440115Y46560D01*
X440246Y46665D01*
X440745Y47165D01*
X448255Y47165D01*
X453565Y41855D01*
X453565Y34345D01*
X448255Y29035D01*
X440745Y29035D01*
G37*
%LPD*%
%LPC*%
G36*
X440745Y105235D02*
X440745Y105235D01*
X435435Y110545D01*
X435435Y112268D01*
X435432Y112288D01*
X435434Y112307D01*
X435412Y112409D01*
X435396Y112511D01*
X435386Y112528D01*
X435382Y112548D01*
X435329Y112637D01*
X435280Y112728D01*
X435266Y112742D01*
X435256Y112759D01*
X435177Y112826D01*
X435102Y112898D01*
X435084Y112906D01*
X435069Y112919D01*
X434973Y112958D01*
X434879Y113001D01*
X434859Y113003D01*
X434841Y113011D01*
X434674Y113029D01*
X345585Y113029D01*
X345470Y113010D01*
X345354Y112993D01*
X345348Y112991D01*
X345342Y112990D01*
X345239Y112935D01*
X345135Y112882D01*
X345130Y112877D01*
X345125Y112874D01*
X345045Y112790D01*
X344962Y112706D01*
X344959Y112700D01*
X344955Y112696D01*
X344947Y112679D01*
X344881Y112559D01*
X343695Y109695D01*
X341409Y107409D01*
X338421Y106171D01*
X321979Y106171D01*
X318991Y107409D01*
X316705Y109695D01*
X315467Y112683D01*
X315467Y115917D01*
X316705Y118905D01*
X318991Y121191D01*
X321979Y122429D01*
X338421Y122429D01*
X341409Y121191D01*
X343695Y118905D01*
X344040Y118073D01*
X344101Y117973D01*
X344161Y117873D01*
X344166Y117869D01*
X344169Y117864D01*
X344259Y117789D01*
X344348Y117713D01*
X344354Y117711D01*
X344359Y117707D01*
X344468Y117665D01*
X344576Y117621D01*
X344584Y117620D01*
X344588Y117619D01*
X344607Y117618D01*
X344743Y117603D01*
X347734Y117603D01*
X347804Y117614D01*
X347876Y117616D01*
X347925Y117634D01*
X347976Y117642D01*
X348040Y117676D01*
X348107Y117701D01*
X348148Y117733D01*
X348194Y117758D01*
X348243Y117810D01*
X348299Y117854D01*
X348327Y117898D01*
X348363Y117936D01*
X348393Y118001D01*
X348432Y118061D01*
X348445Y118112D01*
X348467Y118159D01*
X348475Y118230D01*
X348492Y118300D01*
X348488Y118352D01*
X348494Y118403D01*
X348479Y118474D01*
X348473Y118545D01*
X348453Y118593D01*
X348442Y118644D01*
X348405Y118705D01*
X348377Y118771D01*
X348332Y118827D01*
X348315Y118855D01*
X348298Y118870D01*
X348272Y118902D01*
X335826Y131348D01*
X335752Y131401D01*
X335682Y131461D01*
X335652Y131473D01*
X335626Y131492D01*
X335539Y131519D01*
X335454Y131553D01*
X335413Y131557D01*
X335391Y131564D01*
X335359Y131563D01*
X335287Y131571D01*
X321979Y131571D01*
X318991Y132809D01*
X316705Y135095D01*
X315467Y138083D01*
X315467Y141317D01*
X316705Y144305D01*
X318991Y146591D01*
X321979Y147829D01*
X338421Y147829D01*
X341409Y146591D01*
X343695Y144305D01*
X344933Y141317D01*
X344933Y138083D01*
X343695Y135095D01*
X341659Y133059D01*
X341647Y133043D01*
X341632Y133031D01*
X341576Y132944D01*
X341516Y132860D01*
X341510Y132841D01*
X341499Y132824D01*
X341474Y132723D01*
X341443Y132625D01*
X341444Y132605D01*
X341439Y132585D01*
X341447Y132482D01*
X341450Y132379D01*
X341456Y132360D01*
X341458Y132340D01*
X341498Y132245D01*
X341534Y132148D01*
X341547Y132132D01*
X341554Y132114D01*
X341659Y131983D01*
X352768Y120874D01*
X352842Y120821D01*
X352912Y120761D01*
X352942Y120749D01*
X352968Y120730D01*
X353055Y120703D01*
X353140Y120669D01*
X353181Y120665D01*
X353203Y120658D01*
X353235Y120659D01*
X353307Y120651D01*
X420885Y120651D01*
X420976Y120665D01*
X421066Y120673D01*
X421096Y120685D01*
X421128Y120690D01*
X421209Y120733D01*
X421293Y120769D01*
X421325Y120795D01*
X421346Y120806D01*
X421368Y120829D01*
X421424Y120874D01*
X435427Y134877D01*
X435439Y134893D01*
X435454Y134906D01*
X435510Y134993D01*
X435571Y135077D01*
X435576Y135096D01*
X435587Y135113D01*
X435612Y135213D01*
X435643Y135312D01*
X435642Y135332D01*
X435647Y135351D01*
X435639Y135454D01*
X435637Y135558D01*
X435630Y135576D01*
X435628Y135596D01*
X435588Y135691D01*
X435552Y135789D01*
X435540Y135804D01*
X435532Y135823D01*
X435435Y135943D01*
X435435Y143455D01*
X440745Y148765D01*
X448255Y148765D01*
X453565Y143455D01*
X453565Y135945D01*
X448255Y130635D01*
X440745Y130635D01*
X439738Y131643D01*
X439721Y131655D01*
X439709Y131670D01*
X439622Y131726D01*
X439538Y131787D01*
X439519Y131792D01*
X439502Y131803D01*
X439402Y131829D01*
X439303Y131859D01*
X439283Y131858D01*
X439263Y131863D01*
X439160Y131855D01*
X439057Y131853D01*
X439038Y131846D01*
X439018Y131844D01*
X438923Y131804D01*
X438826Y131768D01*
X438810Y131756D01*
X438792Y131748D01*
X438661Y131643D01*
X425920Y118902D01*
X425878Y118844D01*
X425829Y118792D01*
X425807Y118745D01*
X425777Y118703D01*
X425756Y118634D01*
X425725Y118569D01*
X425720Y118517D01*
X425704Y118467D01*
X425706Y118396D01*
X425698Y118325D01*
X425709Y118274D01*
X425711Y118222D01*
X425735Y118154D01*
X425750Y118084D01*
X425777Y118040D01*
X425795Y117991D01*
X425840Y117935D01*
X425877Y117873D01*
X425916Y117839D01*
X425949Y117799D01*
X426009Y117760D01*
X426064Y117713D01*
X426112Y117694D01*
X426156Y117666D01*
X426225Y117648D01*
X426292Y117621D01*
X426363Y117613D01*
X426394Y117605D01*
X426418Y117607D01*
X426458Y117603D01*
X434674Y117603D01*
X434694Y117606D01*
X434713Y117604D01*
X434815Y117626D01*
X434835Y117629D01*
X434855Y117631D01*
X434862Y117633D01*
X434917Y117642D01*
X434934Y117652D01*
X434954Y117656D01*
X435043Y117709D01*
X435056Y117716D01*
X435081Y117727D01*
X435091Y117735D01*
X435134Y117758D01*
X435148Y117772D01*
X435165Y117782D01*
X435197Y117819D01*
X435212Y117832D01*
X440745Y123365D01*
X448255Y123365D01*
X453565Y118055D01*
X453565Y110545D01*
X448255Y105235D01*
X440745Y105235D01*
G37*
%LPD*%
%LPC*%
G36*
X415345Y346535D02*
X415345Y346535D01*
X410035Y351845D01*
X410035Y353060D01*
X410032Y353080D01*
X410034Y353099D01*
X410012Y353201D01*
X409996Y353303D01*
X409986Y353320D01*
X409982Y353340D01*
X409929Y353429D01*
X409880Y353520D01*
X409866Y353534D01*
X409856Y353551D01*
X409777Y353618D01*
X409702Y353690D01*
X409684Y353698D01*
X409669Y353711D01*
X409573Y353750D01*
X409479Y353793D01*
X409459Y353795D01*
X409441Y353803D01*
X409274Y353821D01*
X345374Y353821D01*
X345260Y353802D01*
X345143Y353785D01*
X345138Y353783D01*
X345132Y353782D01*
X345029Y353727D01*
X344924Y353674D01*
X344920Y353669D01*
X344914Y353666D01*
X344834Y353582D01*
X344752Y353498D01*
X344748Y353492D01*
X344745Y353488D01*
X344737Y353471D01*
X344671Y353351D01*
X343695Y350995D01*
X341409Y348709D01*
X338421Y347471D01*
X321979Y347471D01*
X318991Y348709D01*
X316705Y350995D01*
X315467Y353983D01*
X315467Y357217D01*
X316705Y360205D01*
X318991Y362491D01*
X321979Y363729D01*
X338421Y363729D01*
X341409Y362491D01*
X343695Y360205D01*
X344250Y358865D01*
X344312Y358765D01*
X344372Y358665D01*
X344377Y358661D01*
X344380Y358656D01*
X344470Y358581D01*
X344559Y358505D01*
X344564Y358503D01*
X344569Y358499D01*
X344678Y358457D01*
X344787Y358413D01*
X344794Y358412D01*
X344799Y358411D01*
X344817Y358410D01*
X344954Y358395D01*
X409274Y358395D01*
X409294Y358398D01*
X409313Y358396D01*
X409415Y358418D01*
X409517Y358434D01*
X409534Y358444D01*
X409554Y358448D01*
X409643Y358501D01*
X409734Y358550D01*
X409748Y358564D01*
X409765Y358574D01*
X409832Y358653D01*
X409904Y358728D01*
X409912Y358746D01*
X409925Y358761D01*
X409964Y358857D01*
X410007Y358951D01*
X410009Y358971D01*
X410017Y358989D01*
X410035Y359156D01*
X410035Y359355D01*
X415345Y364665D01*
X422855Y364665D01*
X423100Y364419D01*
X423117Y364407D01*
X423129Y364392D01*
X423216Y364336D01*
X423300Y364275D01*
X423319Y364270D01*
X423336Y364259D01*
X423436Y364233D01*
X423535Y364203D01*
X423555Y364204D01*
X423575Y364199D01*
X423678Y364207D01*
X423781Y364209D01*
X423800Y364216D01*
X423820Y364218D01*
X423915Y364258D01*
X424012Y364294D01*
X424028Y364306D01*
X424046Y364314D01*
X424177Y364419D01*
X442537Y382779D01*
X473710Y382779D01*
X473730Y382782D01*
X473749Y382780D01*
X473851Y382802D01*
X473953Y382818D01*
X473970Y382828D01*
X473990Y382832D01*
X474079Y382885D01*
X474170Y382934D01*
X474184Y382948D01*
X474201Y382958D01*
X474268Y383037D01*
X474340Y383112D01*
X474348Y383130D01*
X474361Y383145D01*
X474400Y383241D01*
X474443Y383335D01*
X474445Y383355D01*
X474453Y383373D01*
X474471Y383540D01*
X474471Y384367D01*
X479233Y389129D01*
X485967Y389129D01*
X490729Y384367D01*
X490729Y377633D01*
X485967Y372871D01*
X479233Y372871D01*
X474434Y377670D01*
X474432Y377687D01*
X474422Y377704D01*
X474418Y377724D01*
X474365Y377813D01*
X474316Y377904D01*
X474302Y377918D01*
X474292Y377935D01*
X474213Y378002D01*
X474138Y378074D01*
X474120Y378082D01*
X474105Y378095D01*
X474009Y378134D01*
X473915Y378177D01*
X473895Y378179D01*
X473877Y378187D01*
X473710Y378205D01*
X444747Y378205D01*
X444656Y378191D01*
X444566Y378183D01*
X444536Y378171D01*
X444504Y378166D01*
X444423Y378123D01*
X444339Y378087D01*
X444307Y378061D01*
X444286Y378050D01*
X444264Y378027D01*
X444208Y377982D01*
X427411Y361185D01*
X427399Y361169D01*
X427384Y361156D01*
X427328Y361069D01*
X427267Y360985D01*
X427262Y360966D01*
X427251Y360949D01*
X427225Y360849D01*
X427195Y360750D01*
X427196Y360730D01*
X427191Y360711D01*
X427199Y360608D01*
X427201Y360504D01*
X427208Y360486D01*
X427210Y360466D01*
X427250Y360371D01*
X427286Y360273D01*
X427298Y360258D01*
X427306Y360239D01*
X427411Y360108D01*
X428165Y359355D01*
X428165Y351845D01*
X422855Y346535D01*
X415345Y346535D01*
G37*
%LPD*%
%LPC*%
G36*
X479233Y296671D02*
X479233Y296671D01*
X474471Y301433D01*
X474471Y302768D01*
X474468Y302788D01*
X474470Y302807D01*
X474448Y302909D01*
X474432Y303011D01*
X474422Y303028D01*
X474418Y303048D01*
X474365Y303137D01*
X474316Y303228D01*
X474302Y303242D01*
X474292Y303259D01*
X474213Y303326D01*
X474138Y303398D01*
X474120Y303406D01*
X474105Y303419D01*
X474009Y303458D01*
X473915Y303501D01*
X473895Y303503D01*
X473877Y303511D01*
X473710Y303529D01*
X442537Y303529D01*
X424431Y321635D01*
X424415Y321647D01*
X424402Y321662D01*
X424315Y321718D01*
X424231Y321779D01*
X424212Y321784D01*
X424195Y321795D01*
X424095Y321821D01*
X423996Y321851D01*
X423976Y321850D01*
X423957Y321855D01*
X423854Y321847D01*
X423750Y321845D01*
X423732Y321838D01*
X423712Y321836D01*
X423617Y321796D01*
X423519Y321760D01*
X423504Y321748D01*
X423485Y321740D01*
X423354Y321635D01*
X422855Y321135D01*
X415345Y321135D01*
X410035Y326445D01*
X410035Y327152D01*
X410032Y327172D01*
X410034Y327191D01*
X410012Y327293D01*
X409996Y327395D01*
X409986Y327412D01*
X409982Y327432D01*
X409929Y327521D01*
X409880Y327612D01*
X409866Y327626D01*
X409856Y327643D01*
X409777Y327710D01*
X409702Y327782D01*
X409684Y327790D01*
X409669Y327803D01*
X409573Y327842D01*
X409479Y327885D01*
X409459Y327887D01*
X409441Y327895D01*
X409274Y327913D01*
X345164Y327913D01*
X345049Y327894D01*
X344933Y327877D01*
X344927Y327875D01*
X344921Y327874D01*
X344819Y327819D01*
X344714Y327766D01*
X344709Y327761D01*
X344704Y327758D01*
X344624Y327674D01*
X344541Y327590D01*
X344538Y327584D01*
X344534Y327580D01*
X344527Y327563D01*
X344461Y327443D01*
X343695Y325595D01*
X341409Y323309D01*
X338421Y322071D01*
X321979Y322071D01*
X318991Y323309D01*
X316705Y325595D01*
X315467Y328583D01*
X315467Y331817D01*
X316705Y334805D01*
X318991Y337091D01*
X321979Y338329D01*
X338421Y338329D01*
X341409Y337091D01*
X343695Y334805D01*
X344461Y332957D01*
X344523Y332857D01*
X344582Y332757D01*
X344587Y332753D01*
X344590Y332748D01*
X344681Y332673D01*
X344769Y332597D01*
X344775Y332595D01*
X344780Y332591D01*
X344888Y332549D01*
X344997Y332505D01*
X345005Y332504D01*
X345009Y332503D01*
X345028Y332502D01*
X345164Y332487D01*
X409274Y332487D01*
X409294Y332490D01*
X409313Y332488D01*
X409415Y332510D01*
X409517Y332526D01*
X409534Y332536D01*
X409554Y332540D01*
X409643Y332593D01*
X409734Y332642D01*
X409748Y332656D01*
X409765Y332666D01*
X409832Y332745D01*
X409904Y332820D01*
X409912Y332838D01*
X409925Y332853D01*
X409964Y332949D01*
X410007Y333043D01*
X410009Y333063D01*
X410017Y333081D01*
X410035Y333248D01*
X410035Y333955D01*
X415345Y339265D01*
X422855Y339265D01*
X428165Y333955D01*
X428165Y326445D01*
X427665Y325946D01*
X427653Y325929D01*
X427638Y325917D01*
X427582Y325830D01*
X427521Y325746D01*
X427516Y325727D01*
X427505Y325710D01*
X427479Y325610D01*
X427449Y325511D01*
X427450Y325491D01*
X427445Y325471D01*
X427453Y325368D01*
X427455Y325265D01*
X427462Y325246D01*
X427464Y325226D01*
X427504Y325131D01*
X427540Y325034D01*
X427552Y325018D01*
X427560Y325000D01*
X427665Y324869D01*
X444208Y308326D01*
X444282Y308273D01*
X444352Y308213D01*
X444382Y308201D01*
X444408Y308182D01*
X444495Y308155D01*
X444580Y308121D01*
X444621Y308117D01*
X444643Y308110D01*
X444675Y308111D01*
X444747Y308103D01*
X474092Y308103D01*
X474182Y308117D01*
X474273Y308125D01*
X474302Y308137D01*
X474334Y308142D01*
X474415Y308185D01*
X474499Y308221D01*
X474531Y308247D01*
X474552Y308258D01*
X474574Y308281D01*
X474630Y308326D01*
X479233Y312929D01*
X485967Y312929D01*
X490729Y308167D01*
X490729Y301433D01*
X485967Y296671D01*
X479233Y296671D01*
G37*
%LPD*%
%LPC*%
G36*
X161733Y169671D02*
X161733Y169671D01*
X156971Y174433D01*
X156971Y181167D01*
X161733Y185929D01*
X168467Y185929D01*
X173229Y181167D01*
X173229Y180848D01*
X173232Y180828D01*
X173230Y180809D01*
X173252Y180707D01*
X173268Y180605D01*
X173278Y180588D01*
X173282Y180568D01*
X173335Y180479D01*
X173384Y180388D01*
X173398Y180374D01*
X173408Y180357D01*
X173487Y180290D01*
X173562Y180218D01*
X173580Y180210D01*
X173595Y180197D01*
X173691Y180158D01*
X173785Y180115D01*
X173805Y180113D01*
X173823Y180105D01*
X173990Y180087D01*
X289821Y180087D01*
X289912Y180101D01*
X290002Y180109D01*
X290032Y180121D01*
X290064Y180126D01*
X290145Y180169D01*
X290229Y180205D01*
X290261Y180231D01*
X290282Y180242D01*
X290304Y180265D01*
X290360Y180310D01*
X318487Y208437D01*
X318499Y208453D01*
X318514Y208465D01*
X318570Y208553D01*
X318630Y208637D01*
X318636Y208655D01*
X318647Y208672D01*
X318672Y208773D01*
X318703Y208872D01*
X318702Y208892D01*
X318707Y208911D01*
X318699Y209014D01*
X318696Y209117D01*
X318690Y209136D01*
X318688Y209156D01*
X318648Y209251D01*
X318612Y209349D01*
X318599Y209364D01*
X318592Y209382D01*
X318487Y209513D01*
X316705Y211295D01*
X315467Y214283D01*
X315467Y217517D01*
X316705Y220505D01*
X318991Y222791D01*
X321979Y224029D01*
X338421Y224029D01*
X341409Y222791D01*
X343695Y220505D01*
X344933Y217517D01*
X344933Y214283D01*
X343695Y211295D01*
X341409Y209009D01*
X338421Y207771D01*
X324604Y207771D01*
X324514Y207757D01*
X324423Y207749D01*
X324394Y207737D01*
X324362Y207732D01*
X324281Y207689D01*
X324197Y207653D01*
X324165Y207627D01*
X324144Y207616D01*
X324122Y207593D01*
X324066Y207548D01*
X292031Y175513D01*
X173990Y175513D01*
X173970Y175510D01*
X173951Y175512D01*
X173849Y175490D01*
X173747Y175474D01*
X173730Y175464D01*
X173710Y175460D01*
X173621Y175407D01*
X173530Y175358D01*
X173516Y175344D01*
X173499Y175334D01*
X173432Y175255D01*
X173360Y175180D01*
X173352Y175162D01*
X173339Y175147D01*
X173300Y175051D01*
X173257Y174957D01*
X173255Y174937D01*
X173247Y174919D01*
X173229Y174752D01*
X173229Y174433D01*
X168467Y169671D01*
X161733Y169671D01*
G37*
%LPD*%
%LPC*%
G36*
X321979Y372871D02*
X321979Y372871D01*
X318991Y374109D01*
X316705Y376395D01*
X315467Y379383D01*
X315467Y382617D01*
X316705Y385605D01*
X318991Y387891D01*
X321979Y389129D01*
X338421Y389129D01*
X341409Y387891D01*
X343695Y385605D01*
X344040Y384773D01*
X344101Y384673D01*
X344161Y384573D01*
X344166Y384569D01*
X344169Y384564D01*
X344259Y384489D01*
X344348Y384413D01*
X344354Y384411D01*
X344359Y384407D01*
X344467Y384365D01*
X344576Y384321D01*
X344584Y384320D01*
X344589Y384319D01*
X344607Y384318D01*
X344743Y384303D01*
X393453Y384303D01*
X393544Y384317D01*
X393634Y384325D01*
X393664Y384337D01*
X393696Y384342D01*
X393777Y384385D01*
X393861Y384421D01*
X393893Y384447D01*
X393914Y384458D01*
X393936Y384481D01*
X393992Y384526D01*
X435935Y426469D01*
X435947Y426485D01*
X435962Y426498D01*
X436018Y426585D01*
X436079Y426669D01*
X436084Y426688D01*
X436095Y426705D01*
X436121Y426805D01*
X436151Y426904D01*
X436150Y426924D01*
X436155Y426943D01*
X436147Y427046D01*
X436145Y427150D01*
X436138Y427168D01*
X436136Y427188D01*
X436096Y427283D01*
X436060Y427381D01*
X436048Y427396D01*
X436040Y427415D01*
X435935Y427546D01*
X435435Y428045D01*
X435435Y435555D01*
X440745Y440865D01*
X448255Y440865D01*
X453565Y435555D01*
X453565Y428045D01*
X448255Y422735D01*
X440745Y422735D01*
X440246Y423235D01*
X440229Y423247D01*
X440217Y423262D01*
X440130Y423318D01*
X440046Y423379D01*
X440027Y423384D01*
X440010Y423395D01*
X439910Y423421D01*
X439811Y423451D01*
X439791Y423450D01*
X439771Y423455D01*
X439668Y423447D01*
X439565Y423445D01*
X439546Y423438D01*
X439526Y423436D01*
X439431Y423396D01*
X439334Y423360D01*
X439318Y423348D01*
X439300Y423340D01*
X439169Y423235D01*
X397226Y381292D01*
X395663Y379729D01*
X345585Y379729D01*
X345470Y379710D01*
X345354Y379693D01*
X345348Y379691D01*
X345342Y379690D01*
X345239Y379635D01*
X345135Y379582D01*
X345130Y379577D01*
X345125Y379574D01*
X345045Y379490D01*
X344962Y379406D01*
X344959Y379400D01*
X344955Y379396D01*
X344947Y379379D01*
X344881Y379259D01*
X343695Y376395D01*
X341409Y374109D01*
X338421Y372871D01*
X321979Y372871D01*
G37*
%LPD*%
%LPC*%
G36*
X245779Y80771D02*
X245779Y80771D01*
X242791Y82009D01*
X240505Y84295D01*
X239267Y87283D01*
X239267Y90517D01*
X240505Y93505D01*
X242541Y95541D01*
X242553Y95557D01*
X242568Y95569D01*
X242624Y95656D01*
X242684Y95740D01*
X242690Y95759D01*
X242701Y95776D01*
X242726Y95877D01*
X242757Y95975D01*
X242756Y95995D01*
X242761Y96015D01*
X242753Y96118D01*
X242750Y96221D01*
X242744Y96240D01*
X242742Y96260D01*
X242702Y96355D01*
X242666Y96452D01*
X242653Y96468D01*
X242646Y96486D01*
X242541Y96617D01*
X240068Y99090D01*
X239994Y99143D01*
X239924Y99203D01*
X239894Y99215D01*
X239868Y99234D01*
X239781Y99261D01*
X239696Y99295D01*
X239655Y99299D01*
X239633Y99306D01*
X239601Y99305D01*
X239529Y99313D01*
X203348Y99313D01*
X203233Y99294D01*
X203117Y99277D01*
X203112Y99275D01*
X203105Y99274D01*
X203003Y99219D01*
X202898Y99166D01*
X202894Y99161D01*
X202888Y99158D01*
X202808Y99074D01*
X202726Y98990D01*
X202722Y98984D01*
X202719Y98980D01*
X202711Y98963D01*
X202645Y98843D01*
X202118Y97571D01*
X200117Y95570D01*
X197503Y94487D01*
X183497Y94487D01*
X180883Y95570D01*
X178882Y97571D01*
X177799Y100185D01*
X177799Y103015D01*
X178882Y105629D01*
X180883Y107630D01*
X183497Y108713D01*
X197503Y108713D01*
X200117Y107630D01*
X202118Y105629D01*
X202645Y104357D01*
X202707Y104257D01*
X202766Y104157D01*
X202771Y104153D01*
X202774Y104148D01*
X202865Y104073D01*
X202953Y103997D01*
X202959Y103995D01*
X202964Y103991D01*
X203072Y103949D01*
X203181Y103905D01*
X203189Y103904D01*
X203194Y103903D01*
X203212Y103902D01*
X203348Y103887D01*
X241739Y103887D01*
X248374Y97252D01*
X248448Y97199D01*
X248518Y97139D01*
X248548Y97127D01*
X248574Y97108D01*
X248661Y97081D01*
X248746Y97047D01*
X248787Y97043D01*
X248809Y97036D01*
X248841Y97037D01*
X248913Y97029D01*
X262221Y97029D01*
X265209Y95791D01*
X267495Y93505D01*
X268733Y90517D01*
X268733Y87283D01*
X267495Y84295D01*
X265209Y82009D01*
X262221Y80771D01*
X245779Y80771D01*
G37*
%LPD*%
%LPC*%
G36*
X321979Y296671D02*
X321979Y296671D01*
X318991Y297909D01*
X316705Y300195D01*
X315467Y303183D01*
X315467Y306417D01*
X316705Y309405D01*
X318991Y311691D01*
X321979Y312929D01*
X338421Y312929D01*
X341409Y311691D01*
X343695Y309405D01*
X344933Y306417D01*
X344933Y303183D01*
X343695Y300195D01*
X341409Y297909D01*
X338421Y296671D01*
X321979Y296671D01*
G37*
%LPD*%
%LPC*%
G36*
X321979Y233171D02*
X321979Y233171D01*
X318991Y234409D01*
X316705Y236695D01*
X315467Y239683D01*
X315467Y242917D01*
X316705Y245905D01*
X318991Y248191D01*
X321979Y249429D01*
X338421Y249429D01*
X341409Y248191D01*
X343695Y245905D01*
X344933Y242917D01*
X344933Y239683D01*
X343695Y236695D01*
X341409Y234409D01*
X338421Y233171D01*
X321979Y233171D01*
G37*
%LPD*%
%LPC*%
G36*
X245779Y207771D02*
X245779Y207771D01*
X242791Y209009D01*
X240505Y211295D01*
X239267Y214283D01*
X239267Y217517D01*
X240505Y220505D01*
X242791Y222791D01*
X245779Y224029D01*
X262221Y224029D01*
X265209Y222791D01*
X267495Y220505D01*
X268733Y217517D01*
X268733Y214283D01*
X267495Y211295D01*
X265209Y209009D01*
X262221Y207771D01*
X245779Y207771D01*
G37*
%LPD*%
%LPC*%
G36*
X321979Y182371D02*
X321979Y182371D01*
X318991Y183609D01*
X316705Y185895D01*
X315467Y188883D01*
X315467Y192117D01*
X316705Y195105D01*
X318991Y197391D01*
X321979Y198629D01*
X338421Y198629D01*
X341409Y197391D01*
X343695Y195105D01*
X344933Y192117D01*
X344933Y188883D01*
X343695Y185895D01*
X341409Y183609D01*
X338421Y182371D01*
X321979Y182371D01*
G37*
%LPD*%
%LPC*%
G36*
X245779Y182371D02*
X245779Y182371D01*
X242791Y183609D01*
X240505Y185895D01*
X239267Y188883D01*
X239267Y192117D01*
X240505Y195105D01*
X242791Y197391D01*
X245779Y198629D01*
X262221Y198629D01*
X265209Y197391D01*
X267495Y195105D01*
X268733Y192117D01*
X268733Y188883D01*
X267495Y185895D01*
X265209Y183609D01*
X262221Y182371D01*
X245779Y182371D01*
G37*
%LPD*%
%LPC*%
G36*
X321979Y156971D02*
X321979Y156971D01*
X318991Y158209D01*
X316705Y160495D01*
X315467Y163483D01*
X315467Y166717D01*
X316705Y169705D01*
X318991Y171991D01*
X321979Y173229D01*
X338421Y173229D01*
X341409Y171991D01*
X343695Y169705D01*
X344933Y166717D01*
X344933Y163483D01*
X343695Y160495D01*
X341409Y158209D01*
X338421Y156971D01*
X321979Y156971D01*
G37*
%LPD*%
%LPC*%
G36*
X245779Y156971D02*
X245779Y156971D01*
X242791Y158209D01*
X240505Y160495D01*
X239267Y163483D01*
X239267Y166717D01*
X240505Y169705D01*
X242791Y171991D01*
X245779Y173229D01*
X262221Y173229D01*
X265209Y171991D01*
X267495Y169705D01*
X268733Y166717D01*
X268733Y163483D01*
X267495Y160495D01*
X265209Y158209D01*
X262221Y156971D01*
X245779Y156971D01*
G37*
%LPD*%
%LPC*%
G36*
X245779Y131571D02*
X245779Y131571D01*
X242791Y132809D01*
X240505Y135095D01*
X239267Y138083D01*
X239267Y141317D01*
X240505Y144305D01*
X242791Y146591D01*
X245779Y147829D01*
X262221Y147829D01*
X265209Y146591D01*
X267495Y144305D01*
X268733Y141317D01*
X268733Y138083D01*
X267495Y135095D01*
X265209Y132809D01*
X262221Y131571D01*
X245779Y131571D01*
G37*
%LPD*%
%LPC*%
G36*
X245779Y106171D02*
X245779Y106171D01*
X242791Y107409D01*
X240505Y109695D01*
X239267Y112683D01*
X239267Y115917D01*
X240505Y118905D01*
X242791Y121191D01*
X245779Y122429D01*
X262221Y122429D01*
X265209Y121191D01*
X267495Y118905D01*
X268733Y115917D01*
X268733Y112683D01*
X267495Y109695D01*
X265209Y107409D01*
X262221Y106171D01*
X245779Y106171D01*
G37*
%LPD*%
%LPC*%
G36*
X321979Y55371D02*
X321979Y55371D01*
X318991Y56609D01*
X316705Y58895D01*
X315467Y61883D01*
X315467Y65117D01*
X316705Y68105D01*
X318991Y70391D01*
X321979Y71629D01*
X338421Y71629D01*
X341409Y70391D01*
X343695Y68105D01*
X344933Y65117D01*
X344933Y61883D01*
X343695Y58895D01*
X341409Y56609D01*
X338421Y55371D01*
X321979Y55371D01*
G37*
%LPD*%
%LPC*%
G36*
X321979Y29971D02*
X321979Y29971D01*
X318991Y31209D01*
X316705Y33495D01*
X315467Y36483D01*
X315467Y39717D01*
X316705Y42705D01*
X318991Y44991D01*
X321979Y46229D01*
X338421Y46229D01*
X341409Y44991D01*
X343695Y42705D01*
X344933Y39717D01*
X344933Y36483D01*
X343695Y33495D01*
X341409Y31209D01*
X338421Y29971D01*
X321979Y29971D01*
G37*
%LPD*%
%LPC*%
G36*
X415345Y422735D02*
X415345Y422735D01*
X410035Y428045D01*
X410035Y435555D01*
X415345Y440865D01*
X422855Y440865D01*
X428165Y435555D01*
X428165Y428045D01*
X422855Y422735D01*
X415345Y422735D01*
G37*
%LPD*%
%LPC*%
G36*
X440745Y181435D02*
X440745Y181435D01*
X435435Y186745D01*
X435435Y194255D01*
X440745Y199565D01*
X448255Y199565D01*
X453565Y194255D01*
X453565Y186745D01*
X448255Y181435D01*
X440745Y181435D01*
G37*
%LPD*%
%LPC*%
G36*
X440745Y156035D02*
X440745Y156035D01*
X435435Y161345D01*
X435435Y168855D01*
X440745Y174165D01*
X448255Y174165D01*
X453565Y168855D01*
X453565Y161345D01*
X448255Y156035D01*
X440745Y156035D01*
G37*
%LPD*%
G36*
X239151Y332506D02*
X239151Y332506D01*
X239267Y332523D01*
X239273Y332525D01*
X239279Y332526D01*
X239381Y332581D01*
X239486Y332634D01*
X239491Y332639D01*
X239496Y332642D01*
X239576Y332726D01*
X239659Y332810D01*
X239662Y332816D01*
X239666Y332820D01*
X239673Y332837D01*
X239739Y332957D01*
X240505Y334805D01*
X242791Y337091D01*
X245779Y338329D01*
X262221Y338329D01*
X265209Y337091D01*
X266162Y336138D01*
X266220Y336096D01*
X266272Y336047D01*
X266319Y336025D01*
X266361Y335994D01*
X266430Y335973D01*
X266495Y335943D01*
X266547Y335937D01*
X266597Y335922D01*
X266668Y335924D01*
X266739Y335916D01*
X266790Y335927D01*
X266842Y335928D01*
X266910Y335953D01*
X266980Y335968D01*
X267025Y335995D01*
X267073Y336013D01*
X267129Y336058D01*
X267191Y336095D01*
X267225Y336134D01*
X267265Y336167D01*
X267304Y336227D01*
X267351Y336281D01*
X267370Y336330D01*
X267398Y336374D01*
X267416Y336443D01*
X267443Y336510D01*
X267451Y336581D01*
X267459Y336612D01*
X267457Y336635D01*
X267461Y336676D01*
X267461Y349124D01*
X267450Y349194D01*
X267448Y349266D01*
X267430Y349315D01*
X267422Y349366D01*
X267388Y349430D01*
X267363Y349497D01*
X267331Y349538D01*
X267306Y349584D01*
X267254Y349633D01*
X267210Y349689D01*
X267166Y349717D01*
X267128Y349753D01*
X267063Y349783D01*
X267003Y349822D01*
X266952Y349835D01*
X266905Y349857D01*
X266834Y349865D01*
X266764Y349882D01*
X266712Y349878D01*
X266661Y349884D01*
X266590Y349869D01*
X266519Y349863D01*
X266471Y349843D01*
X266420Y349832D01*
X266359Y349795D01*
X266293Y349767D01*
X266237Y349722D01*
X266209Y349705D01*
X266194Y349688D01*
X266162Y349662D01*
X265209Y348709D01*
X262221Y347471D01*
X249420Y347471D01*
X249330Y347457D01*
X249239Y347449D01*
X249210Y347437D01*
X249178Y347432D01*
X249097Y347389D01*
X249013Y347353D01*
X248981Y347327D01*
X248960Y347316D01*
X248938Y347293D01*
X248882Y347248D01*
X235420Y333786D01*
X235378Y333728D01*
X235329Y333676D01*
X235307Y333629D01*
X235277Y333587D01*
X235256Y333518D01*
X235225Y333453D01*
X235220Y333401D01*
X235204Y333351D01*
X235206Y333280D01*
X235198Y333209D01*
X235209Y333158D01*
X235211Y333106D01*
X235235Y333038D01*
X235250Y332968D01*
X235277Y332924D01*
X235295Y332875D01*
X235340Y332819D01*
X235377Y332757D01*
X235416Y332723D01*
X235449Y332683D01*
X235509Y332644D01*
X235564Y332597D01*
X235612Y332578D01*
X235656Y332550D01*
X235725Y332532D01*
X235792Y332505D01*
X235863Y332497D01*
X235894Y332489D01*
X235918Y332491D01*
X235958Y332487D01*
X239036Y332487D01*
X239151Y332506D01*
G37*
G36*
X266790Y310527D02*
X266790Y310527D01*
X266842Y310528D01*
X266910Y310553D01*
X266980Y310568D01*
X267025Y310595D01*
X267073Y310613D01*
X267129Y310658D01*
X267191Y310695D01*
X267225Y310734D01*
X267265Y310767D01*
X267304Y310827D01*
X267351Y310881D01*
X267370Y310930D01*
X267398Y310974D01*
X267416Y311043D01*
X267443Y311110D01*
X267451Y311181D01*
X267459Y311212D01*
X267457Y311235D01*
X267461Y311276D01*
X267461Y323724D01*
X267450Y323794D01*
X267448Y323866D01*
X267430Y323915D01*
X267422Y323966D01*
X267388Y324030D01*
X267363Y324097D01*
X267331Y324138D01*
X267306Y324184D01*
X267254Y324233D01*
X267210Y324289D01*
X267166Y324317D01*
X267128Y324353D01*
X267063Y324383D01*
X267003Y324422D01*
X266952Y324435D01*
X266905Y324457D01*
X266834Y324465D01*
X266764Y324482D01*
X266712Y324478D01*
X266661Y324484D01*
X266590Y324469D01*
X266519Y324463D01*
X266471Y324443D01*
X266420Y324432D01*
X266359Y324395D01*
X266293Y324367D01*
X266237Y324322D01*
X266209Y324305D01*
X266194Y324288D01*
X266162Y324262D01*
X265209Y323309D01*
X262221Y322071D01*
X245779Y322071D01*
X242791Y323309D01*
X240505Y325595D01*
X239739Y327443D01*
X239677Y327543D01*
X239618Y327643D01*
X239613Y327647D01*
X239610Y327652D01*
X239519Y327727D01*
X239431Y327803D01*
X239425Y327805D01*
X239420Y327809D01*
X239312Y327851D01*
X239203Y327895D01*
X239195Y327896D01*
X239191Y327897D01*
X239172Y327898D01*
X239036Y327913D01*
X235958Y327913D01*
X235888Y327902D01*
X235816Y327900D01*
X235767Y327882D01*
X235716Y327874D01*
X235652Y327840D01*
X235585Y327815D01*
X235544Y327783D01*
X235498Y327758D01*
X235449Y327706D01*
X235393Y327662D01*
X235365Y327618D01*
X235329Y327580D01*
X235299Y327515D01*
X235260Y327455D01*
X235247Y327404D01*
X235225Y327357D01*
X235217Y327286D01*
X235200Y327216D01*
X235204Y327164D01*
X235198Y327113D01*
X235213Y327042D01*
X235219Y326971D01*
X235239Y326923D01*
X235250Y326872D01*
X235287Y326811D01*
X235315Y326745D01*
X235360Y326689D01*
X235377Y326661D01*
X235394Y326646D01*
X235420Y326614D01*
X248882Y313152D01*
X248956Y313099D01*
X249026Y313039D01*
X249056Y313027D01*
X249082Y313008D01*
X249169Y312981D01*
X249254Y312947D01*
X249295Y312943D01*
X249317Y312936D01*
X249349Y312937D01*
X249421Y312929D01*
X262221Y312929D01*
X265209Y311691D01*
X266162Y310738D01*
X266220Y310696D01*
X266272Y310647D01*
X266319Y310625D01*
X266361Y310594D01*
X266430Y310573D01*
X266495Y310543D01*
X266547Y310537D01*
X266597Y310522D01*
X266668Y310524D01*
X266739Y310516D01*
X266790Y310527D01*
G37*
%LPC*%
G36*
X34733Y385571D02*
X34733Y385571D01*
X29971Y390333D01*
X29971Y397067D01*
X34733Y401829D01*
X41467Y401829D01*
X46229Y397067D01*
X46229Y390333D01*
X41467Y385571D01*
X34733Y385571D01*
G37*
%LPD*%
%LPC*%
G36*
X85533Y309371D02*
X85533Y309371D01*
X80771Y314133D01*
X80771Y320867D01*
X85533Y325629D01*
X92267Y325629D01*
X97029Y320867D01*
X97029Y314133D01*
X92267Y309371D01*
X85533Y309371D01*
G37*
%LPD*%
%LPC*%
G36*
X34733Y283971D02*
X34733Y283971D01*
X29971Y288733D01*
X29971Y295467D01*
X34733Y300229D01*
X41467Y300229D01*
X46229Y295467D01*
X46229Y288733D01*
X41467Y283971D01*
X34733Y283971D01*
G37*
%LPD*%
%LPC*%
G36*
X149033Y29971D02*
X149033Y29971D01*
X144271Y34733D01*
X144271Y41467D01*
X149033Y46229D01*
X155767Y46229D01*
X160529Y41467D01*
X160529Y34733D01*
X155767Y29971D01*
X149033Y29971D01*
G37*
%LPD*%
D10*
X444500Y431800D03*
X419100Y431800D03*
X76200Y431800D03*
X50800Y431800D03*
D11*
X152400Y101600D03*
X101600Y101600D03*
X152400Y38100D03*
X101600Y38100D03*
D12*
X419100Y330200D03*
X419100Y355600D03*
D13*
X260604Y241300D02*
X247396Y241300D01*
X247396Y215900D02*
X260604Y215900D01*
X260604Y88900D02*
X247396Y88900D01*
X247396Y63500D02*
X260604Y63500D01*
X260604Y190500D02*
X247396Y190500D01*
X247396Y165100D02*
X260604Y165100D01*
X260604Y114300D02*
X247396Y114300D01*
X247396Y139700D02*
X260604Y139700D01*
X260604Y38100D02*
X247396Y38100D01*
X323596Y38100D02*
X336804Y38100D01*
X336804Y63500D02*
X323596Y63500D01*
X323596Y88900D02*
X336804Y88900D01*
X336804Y114300D02*
X323596Y114300D01*
X323596Y139700D02*
X336804Y139700D01*
X336804Y165100D02*
X323596Y165100D01*
X323596Y190500D02*
X336804Y190500D01*
X336804Y215900D02*
X323596Y215900D01*
X323596Y241300D02*
X336804Y241300D01*
X260604Y381000D02*
X247396Y381000D01*
X247396Y355600D02*
X260604Y355600D01*
X323596Y355600D02*
X336804Y355600D01*
X336804Y381000D02*
X323596Y381000D01*
X260604Y330200D02*
X247396Y330200D01*
X247396Y304800D02*
X260604Y304800D01*
X323596Y330200D02*
X336804Y330200D01*
X336804Y304800D02*
X323596Y304800D01*
D12*
X444500Y38100D03*
X444500Y63500D03*
D14*
X196088Y50800D02*
X184912Y50800D01*
X184912Y101600D02*
X196088Y101600D01*
D15*
X88900Y317500D03*
X88900Y393700D03*
X88900Y215900D03*
X88900Y292100D03*
X482600Y304800D03*
X482600Y381000D03*
X165100Y177800D03*
X165100Y254000D03*
X38100Y317500D03*
X38100Y393700D03*
X38100Y215900D03*
X38100Y292100D03*
D16*
X444500Y114300D03*
X444500Y139700D03*
X444500Y165100D03*
X444500Y190500D03*
D17*
X394716Y382016D02*
X444500Y431800D01*
X394716Y382016D02*
X330708Y382016D01*
X330200Y381000D01*
X102108Y101600D02*
X102108Y51308D01*
X102108Y39116D01*
X101600Y38100D01*
X101600Y101600D02*
X102108Y101600D01*
X89916Y112268D02*
X89916Y215900D01*
X89916Y112268D02*
X100584Y101600D01*
X89916Y215900D02*
X88900Y215900D01*
X100584Y101600D02*
X101600Y101600D01*
X243840Y48260D02*
X254000Y38100D01*
X243840Y48260D02*
X210312Y48260D01*
X201168Y39116D01*
X175260Y39116D01*
X163068Y51308D01*
X102108Y51308D01*
X431292Y51308D02*
X444500Y38100D01*
X431292Y51308D02*
X266700Y51308D01*
X254508Y39116D01*
X254000Y38100D01*
X231648Y333248D02*
X254000Y355600D01*
X231648Y333248D02*
X178308Y333248D01*
X89916Y421640D01*
X89916Y444500D01*
X88392Y446024D01*
X64008Y446024D01*
X50292Y432308D01*
X50800Y431800D01*
X176784Y330200D02*
X254000Y330200D01*
X176784Y330200D02*
X76200Y430784D01*
X76200Y431800D01*
X12192Y241808D02*
X38100Y215900D01*
X12192Y241808D02*
X12192Y290576D01*
X38100Y316484D01*
X38100Y317500D01*
X76200Y254000D02*
X165100Y254000D01*
X76200Y254000D02*
X38100Y215900D01*
X254508Y241808D02*
X254508Y281432D01*
X269748Y296672D01*
X269748Y365252D01*
X254000Y381000D01*
X254508Y241808D02*
X254000Y241300D01*
X102108Y304292D02*
X89916Y292100D01*
X102108Y327152D02*
X102108Y380492D01*
X102108Y327152D02*
X102108Y304292D01*
X102108Y380492D02*
X88900Y393700D01*
X88900Y292100D02*
X89916Y292100D01*
X231648Y327152D02*
X254000Y304800D01*
X231648Y327152D02*
X102108Y327152D01*
X330708Y356108D02*
X419100Y356108D01*
X330708Y356108D02*
X330200Y355600D01*
X443484Y380492D02*
X481584Y380492D01*
X443484Y380492D02*
X419100Y356108D01*
X481584Y380492D02*
X482600Y381000D01*
X419100Y356108D02*
X419100Y355600D01*
X443484Y305816D02*
X481584Y305816D01*
X443484Y305816D02*
X419100Y330200D01*
X481584Y305816D02*
X482600Y304800D01*
X419100Y330200D02*
X330200Y330200D01*
X240792Y51308D02*
X190500Y51308D01*
X240792Y51308D02*
X252984Y63500D01*
X254000Y63500D01*
X152400Y89408D02*
X152400Y101600D01*
X152400Y89408D02*
X190500Y51308D01*
X190500Y50800D01*
X190500Y101600D02*
X240792Y101600D01*
X252984Y89408D01*
X254000Y88900D01*
X291084Y177800D02*
X165100Y177800D01*
X291084Y177800D02*
X329184Y215900D01*
X330200Y215900D01*
X330708Y87884D02*
X364236Y54356D01*
X434340Y54356D01*
X443484Y63500D01*
X330708Y87884D02*
X330200Y88900D01*
X443484Y63500D02*
X444500Y63500D01*
X352044Y118364D02*
X330708Y139700D01*
X352044Y118364D02*
X422148Y118364D01*
X443484Y139700D01*
X330708Y139700D02*
X330200Y139700D01*
X443484Y139700D02*
X444500Y139700D01*
X443484Y115316D02*
X330708Y115316D01*
X330200Y114300D01*
X443484Y115316D02*
X444500Y114300D01*
M02*
