G04 EAGLE Gerber RS-274X export*
G75*
%MOMM*%
%FSLAX34Y34*%
%LPD*%
%INSilkscreen Top*%
%IPPOS*%
%AMOC8*
5,1,8,0,0,1.08239X$1,22.5*%
G01*
%ADD10C,0.203200*%
%ADD11C,0.127000*%
%ADD12C,0.101600*%
%ADD13C,0.152400*%
%ADD14C,0.304800*%
%ADD15C,0.050800*%


D10*
X458490Y420250D02*
X405110Y420250D01*
X405110Y443350D01*
X458490Y443350D01*
X458490Y420250D01*
D11*
X440337Y458202D02*
X444641Y461645D01*
X444641Y446151D01*
X440337Y446151D02*
X448945Y446151D01*
D12*
X475742Y390074D02*
X475742Y386828D01*
X475742Y390074D02*
X475740Y390187D01*
X475734Y390300D01*
X475724Y390413D01*
X475710Y390526D01*
X475693Y390638D01*
X475671Y390749D01*
X475646Y390859D01*
X475616Y390969D01*
X475583Y391077D01*
X475546Y391184D01*
X475506Y391290D01*
X475461Y391394D01*
X475413Y391497D01*
X475362Y391598D01*
X475307Y391697D01*
X475249Y391794D01*
X475187Y391889D01*
X475122Y391982D01*
X475054Y392072D01*
X474983Y392160D01*
X474908Y392246D01*
X474831Y392329D01*
X474751Y392409D01*
X474668Y392486D01*
X474582Y392561D01*
X474494Y392632D01*
X474404Y392700D01*
X474311Y392765D01*
X474216Y392827D01*
X474119Y392885D01*
X474020Y392940D01*
X473919Y392991D01*
X473816Y393039D01*
X473712Y393084D01*
X473606Y393124D01*
X473499Y393161D01*
X473391Y393194D01*
X473281Y393224D01*
X473171Y393249D01*
X473060Y393271D01*
X472948Y393288D01*
X472835Y393302D01*
X472722Y393312D01*
X472609Y393318D01*
X472496Y393320D01*
X472383Y393318D01*
X472270Y393312D01*
X472157Y393302D01*
X472044Y393288D01*
X471932Y393271D01*
X471821Y393249D01*
X471711Y393224D01*
X471601Y393194D01*
X471493Y393161D01*
X471386Y393124D01*
X471280Y393084D01*
X471176Y393039D01*
X471073Y392991D01*
X470972Y392940D01*
X470873Y392885D01*
X470776Y392827D01*
X470681Y392765D01*
X470588Y392700D01*
X470498Y392632D01*
X470410Y392561D01*
X470324Y392486D01*
X470241Y392409D01*
X470161Y392329D01*
X470084Y392246D01*
X470009Y392160D01*
X469938Y392072D01*
X469870Y391982D01*
X469805Y391889D01*
X469743Y391794D01*
X469685Y391697D01*
X469630Y391598D01*
X469579Y391497D01*
X469531Y391394D01*
X469486Y391290D01*
X469446Y391184D01*
X469409Y391077D01*
X469376Y390969D01*
X469346Y390859D01*
X469321Y390749D01*
X469299Y390638D01*
X469282Y390526D01*
X469268Y390413D01*
X469258Y390300D01*
X469252Y390187D01*
X469250Y390074D01*
X464058Y390723D02*
X464058Y386828D01*
X464058Y390723D02*
X464060Y390824D01*
X464066Y390924D01*
X464076Y391024D01*
X464089Y391124D01*
X464107Y391223D01*
X464128Y391322D01*
X464153Y391419D01*
X464182Y391516D01*
X464215Y391611D01*
X464251Y391705D01*
X464291Y391797D01*
X464334Y391888D01*
X464381Y391977D01*
X464431Y392064D01*
X464485Y392150D01*
X464542Y392233D01*
X464602Y392313D01*
X464665Y392392D01*
X464732Y392468D01*
X464801Y392541D01*
X464873Y392611D01*
X464947Y392679D01*
X465024Y392744D01*
X465104Y392805D01*
X465186Y392864D01*
X465270Y392919D01*
X465356Y392971D01*
X465444Y393020D01*
X465534Y393065D01*
X465626Y393107D01*
X465719Y393145D01*
X465814Y393179D01*
X465909Y393210D01*
X466006Y393237D01*
X466104Y393260D01*
X466203Y393280D01*
X466303Y393295D01*
X466403Y393307D01*
X466503Y393315D01*
X466604Y393319D01*
X466704Y393319D01*
X466805Y393315D01*
X466905Y393307D01*
X467005Y393295D01*
X467105Y393280D01*
X467204Y393260D01*
X467302Y393237D01*
X467399Y393210D01*
X467494Y393179D01*
X467589Y393145D01*
X467682Y393107D01*
X467774Y393065D01*
X467864Y393020D01*
X467952Y392971D01*
X468038Y392919D01*
X468122Y392864D01*
X468204Y392805D01*
X468284Y392744D01*
X468361Y392679D01*
X468435Y392611D01*
X468507Y392541D01*
X468576Y392468D01*
X468643Y392392D01*
X468706Y392313D01*
X468766Y392233D01*
X468823Y392150D01*
X468877Y392064D01*
X468927Y391977D01*
X468974Y391888D01*
X469017Y391797D01*
X469057Y391705D01*
X469093Y391611D01*
X469126Y391516D01*
X469155Y391419D01*
X469180Y391322D01*
X469201Y391223D01*
X469219Y391124D01*
X469232Y391024D01*
X469242Y390924D01*
X469248Y390824D01*
X469250Y390723D01*
X469251Y390723D02*
X469251Y388126D01*
X464058Y397609D02*
X475742Y401504D01*
X464058Y405398D01*
X475742Y409688D02*
X475742Y412933D01*
X475740Y413046D01*
X475734Y413159D01*
X475724Y413272D01*
X475710Y413385D01*
X475693Y413497D01*
X475671Y413608D01*
X475646Y413718D01*
X475616Y413828D01*
X475583Y413936D01*
X475546Y414043D01*
X475506Y414149D01*
X475461Y414253D01*
X475413Y414356D01*
X475362Y414457D01*
X475307Y414556D01*
X475249Y414653D01*
X475187Y414748D01*
X475122Y414841D01*
X475054Y414931D01*
X474983Y415019D01*
X474908Y415105D01*
X474831Y415188D01*
X474751Y415268D01*
X474668Y415345D01*
X474582Y415420D01*
X474494Y415491D01*
X474404Y415559D01*
X474311Y415624D01*
X474216Y415686D01*
X474119Y415744D01*
X474020Y415799D01*
X473919Y415850D01*
X473816Y415898D01*
X473712Y415943D01*
X473606Y415983D01*
X473499Y416020D01*
X473391Y416053D01*
X473281Y416083D01*
X473171Y416108D01*
X473060Y416130D01*
X472948Y416147D01*
X472835Y416161D01*
X472722Y416171D01*
X472609Y416177D01*
X472496Y416179D01*
X472383Y416177D01*
X472270Y416171D01*
X472157Y416161D01*
X472044Y416147D01*
X471932Y416130D01*
X471821Y416108D01*
X471711Y416083D01*
X471601Y416053D01*
X471493Y416020D01*
X471386Y415983D01*
X471280Y415943D01*
X471176Y415898D01*
X471073Y415850D01*
X470972Y415799D01*
X470873Y415744D01*
X470776Y415686D01*
X470681Y415624D01*
X470588Y415559D01*
X470498Y415491D01*
X470410Y415420D01*
X470324Y415345D01*
X470241Y415268D01*
X470161Y415188D01*
X470084Y415105D01*
X470009Y415019D01*
X469938Y414931D01*
X469870Y414841D01*
X469805Y414748D01*
X469743Y414653D01*
X469685Y414556D01*
X469630Y414457D01*
X469579Y414356D01*
X469531Y414253D01*
X469486Y414149D01*
X469446Y414043D01*
X469409Y413936D01*
X469376Y413828D01*
X469346Y413718D01*
X469321Y413608D01*
X469299Y413497D01*
X469282Y413385D01*
X469268Y413272D01*
X469258Y413159D01*
X469252Y413046D01*
X469250Y412933D01*
X464058Y413583D02*
X464058Y409688D01*
X464058Y413583D02*
X464060Y413684D01*
X464066Y413784D01*
X464076Y413884D01*
X464089Y413984D01*
X464107Y414083D01*
X464128Y414182D01*
X464153Y414279D01*
X464182Y414376D01*
X464215Y414471D01*
X464251Y414565D01*
X464291Y414657D01*
X464334Y414748D01*
X464381Y414837D01*
X464431Y414924D01*
X464485Y415010D01*
X464542Y415093D01*
X464602Y415173D01*
X464665Y415252D01*
X464732Y415328D01*
X464801Y415401D01*
X464873Y415471D01*
X464947Y415539D01*
X465024Y415604D01*
X465104Y415665D01*
X465186Y415724D01*
X465270Y415779D01*
X465356Y415831D01*
X465444Y415880D01*
X465534Y415925D01*
X465626Y415967D01*
X465719Y416005D01*
X465814Y416039D01*
X465909Y416070D01*
X466006Y416097D01*
X466104Y416120D01*
X466203Y416140D01*
X466303Y416155D01*
X466403Y416167D01*
X466503Y416175D01*
X466604Y416179D01*
X466704Y416179D01*
X466805Y416175D01*
X466905Y416167D01*
X467005Y416155D01*
X467105Y416140D01*
X467204Y416120D01*
X467302Y416097D01*
X467399Y416070D01*
X467494Y416039D01*
X467589Y416005D01*
X467682Y415967D01*
X467774Y415925D01*
X467864Y415880D01*
X467952Y415831D01*
X468038Y415779D01*
X468122Y415724D01*
X468204Y415665D01*
X468284Y415604D01*
X468361Y415539D01*
X468435Y415471D01*
X468507Y415401D01*
X468576Y415328D01*
X468643Y415252D01*
X468706Y415173D01*
X468766Y415093D01*
X468823Y415010D01*
X468877Y414924D01*
X468927Y414837D01*
X468974Y414748D01*
X469017Y414657D01*
X469057Y414565D01*
X469093Y414471D01*
X469126Y414376D01*
X469155Y414279D01*
X469180Y414182D01*
X469201Y414083D01*
X469219Y413984D01*
X469232Y413884D01*
X469242Y413784D01*
X469248Y413684D01*
X469250Y413583D01*
X469251Y413583D02*
X469251Y410986D01*
X477040Y420624D02*
X477040Y425817D01*
X475742Y431221D02*
X464058Y431221D01*
X475742Y429923D02*
X475742Y432520D01*
X464058Y432520D02*
X464058Y429923D01*
X464058Y437501D02*
X475742Y437501D01*
X475742Y443992D02*
X464058Y437501D01*
X464058Y443992D02*
X475742Y443992D01*
D10*
X90190Y420250D02*
X36810Y420250D01*
X36810Y443350D01*
X90190Y443350D01*
X90190Y420250D01*
D11*
X72037Y458202D02*
X76341Y461645D01*
X76341Y446151D01*
X72037Y446151D02*
X80645Y446151D01*
D12*
X107442Y402153D02*
X107442Y398258D01*
X107442Y402153D02*
X107440Y402252D01*
X107434Y402352D01*
X107425Y402451D01*
X107412Y402549D01*
X107395Y402647D01*
X107374Y402745D01*
X107349Y402841D01*
X107321Y402936D01*
X107289Y403030D01*
X107254Y403123D01*
X107215Y403215D01*
X107172Y403305D01*
X107127Y403393D01*
X107077Y403480D01*
X107025Y403564D01*
X106969Y403647D01*
X106911Y403727D01*
X106849Y403805D01*
X106784Y403880D01*
X106716Y403953D01*
X106646Y404023D01*
X106573Y404091D01*
X106498Y404156D01*
X106420Y404218D01*
X106340Y404276D01*
X106257Y404332D01*
X106173Y404384D01*
X106086Y404434D01*
X105998Y404479D01*
X105908Y404522D01*
X105816Y404561D01*
X105723Y404596D01*
X105629Y404628D01*
X105534Y404656D01*
X105438Y404681D01*
X105340Y404702D01*
X105242Y404719D01*
X105144Y404732D01*
X105045Y404741D01*
X104945Y404747D01*
X104846Y404749D01*
X103547Y404749D01*
X103448Y404747D01*
X103348Y404741D01*
X103249Y404732D01*
X103151Y404719D01*
X103053Y404702D01*
X102955Y404681D01*
X102859Y404656D01*
X102764Y404628D01*
X102670Y404596D01*
X102577Y404561D01*
X102485Y404522D01*
X102395Y404479D01*
X102307Y404434D01*
X102220Y404384D01*
X102136Y404332D01*
X102053Y404276D01*
X101973Y404218D01*
X101895Y404156D01*
X101820Y404091D01*
X101747Y404023D01*
X101677Y403953D01*
X101609Y403880D01*
X101544Y403805D01*
X101482Y403727D01*
X101424Y403647D01*
X101368Y403564D01*
X101316Y403480D01*
X101266Y403393D01*
X101221Y403305D01*
X101178Y403215D01*
X101139Y403123D01*
X101104Y403030D01*
X101072Y402936D01*
X101044Y402841D01*
X101019Y402745D01*
X100998Y402647D01*
X100981Y402549D01*
X100968Y402451D01*
X100959Y402352D01*
X100953Y402252D01*
X100951Y402153D01*
X100951Y398258D01*
X95758Y398258D01*
X95758Y404749D01*
X95758Y409039D02*
X107442Y412933D01*
X95758Y416828D01*
X108740Y420624D02*
X108740Y425817D01*
X107442Y431221D02*
X95758Y431221D01*
X107442Y429923D02*
X107442Y432520D01*
X95758Y432520D02*
X95758Y429923D01*
X95758Y437501D02*
X107442Y437501D01*
X107442Y443992D02*
X95758Y437501D01*
X95758Y443992D02*
X107442Y443992D01*
D13*
X148590Y95250D02*
X148588Y95110D01*
X148582Y94970D01*
X148573Y94830D01*
X148559Y94691D01*
X148542Y94552D01*
X148521Y94414D01*
X148496Y94276D01*
X148467Y94139D01*
X148435Y94003D01*
X148398Y93868D01*
X148358Y93734D01*
X148315Y93601D01*
X148267Y93469D01*
X148217Y93338D01*
X148162Y93209D01*
X148104Y93082D01*
X148043Y92956D01*
X147978Y92832D01*
X147909Y92710D01*
X147838Y92590D01*
X147763Y92472D01*
X147685Y92355D01*
X147603Y92241D01*
X147519Y92130D01*
X147431Y92021D01*
X147341Y91914D01*
X147247Y91809D01*
X147151Y91708D01*
X147052Y91609D01*
X146951Y91513D01*
X146846Y91419D01*
X146739Y91329D01*
X146630Y91241D01*
X146519Y91157D01*
X146405Y91075D01*
X146288Y90997D01*
X146170Y90922D01*
X146050Y90851D01*
X145928Y90782D01*
X145804Y90717D01*
X145678Y90656D01*
X145551Y90598D01*
X145422Y90543D01*
X145291Y90493D01*
X145159Y90445D01*
X145026Y90402D01*
X144892Y90362D01*
X144757Y90325D01*
X144621Y90293D01*
X144484Y90264D01*
X144346Y90239D01*
X144208Y90218D01*
X144069Y90201D01*
X143930Y90187D01*
X143790Y90178D01*
X143650Y90172D01*
X143510Y90170D01*
X148590Y107950D02*
X148588Y108090D01*
X148582Y108230D01*
X148573Y108370D01*
X148559Y108509D01*
X148542Y108648D01*
X148521Y108786D01*
X148496Y108924D01*
X148467Y109061D01*
X148435Y109197D01*
X148398Y109332D01*
X148358Y109466D01*
X148315Y109599D01*
X148267Y109731D01*
X148217Y109862D01*
X148162Y109991D01*
X148104Y110118D01*
X148043Y110244D01*
X147978Y110368D01*
X147909Y110490D01*
X147838Y110610D01*
X147763Y110728D01*
X147685Y110845D01*
X147603Y110959D01*
X147519Y111070D01*
X147431Y111179D01*
X147341Y111286D01*
X147247Y111391D01*
X147151Y111492D01*
X147052Y111591D01*
X146951Y111687D01*
X146846Y111781D01*
X146739Y111871D01*
X146630Y111959D01*
X146519Y112043D01*
X146405Y112125D01*
X146288Y112203D01*
X146170Y112278D01*
X146050Y112349D01*
X145928Y112418D01*
X145804Y112483D01*
X145678Y112544D01*
X145551Y112602D01*
X145422Y112657D01*
X145291Y112707D01*
X145159Y112755D01*
X145026Y112798D01*
X144892Y112838D01*
X144757Y112875D01*
X144621Y112907D01*
X144484Y112936D01*
X144346Y112961D01*
X144208Y112982D01*
X144069Y112999D01*
X143930Y113013D01*
X143790Y113022D01*
X143650Y113028D01*
X143510Y113030D01*
X143510Y90170D02*
X110490Y90170D01*
X110490Y113030D02*
X143510Y113030D01*
X110490Y90170D02*
X110350Y90172D01*
X110210Y90178D01*
X110070Y90187D01*
X109931Y90201D01*
X109792Y90218D01*
X109654Y90239D01*
X109516Y90264D01*
X109379Y90293D01*
X109243Y90325D01*
X109108Y90362D01*
X108974Y90402D01*
X108841Y90445D01*
X108709Y90493D01*
X108578Y90543D01*
X108449Y90598D01*
X108322Y90656D01*
X108196Y90717D01*
X108072Y90782D01*
X107950Y90851D01*
X107830Y90922D01*
X107712Y90997D01*
X107595Y91075D01*
X107481Y91157D01*
X107370Y91241D01*
X107261Y91329D01*
X107154Y91419D01*
X107049Y91513D01*
X106948Y91609D01*
X106849Y91708D01*
X106753Y91809D01*
X106659Y91914D01*
X106569Y92021D01*
X106481Y92130D01*
X106397Y92241D01*
X106315Y92355D01*
X106237Y92472D01*
X106162Y92590D01*
X106091Y92710D01*
X106022Y92832D01*
X105957Y92956D01*
X105896Y93082D01*
X105838Y93209D01*
X105783Y93338D01*
X105733Y93469D01*
X105685Y93601D01*
X105642Y93734D01*
X105602Y93868D01*
X105565Y94003D01*
X105533Y94139D01*
X105504Y94276D01*
X105479Y94414D01*
X105458Y94552D01*
X105441Y94691D01*
X105427Y94830D01*
X105418Y94970D01*
X105412Y95110D01*
X105410Y95250D01*
X105410Y107950D02*
X105412Y108090D01*
X105418Y108230D01*
X105427Y108370D01*
X105441Y108509D01*
X105458Y108648D01*
X105479Y108786D01*
X105504Y108924D01*
X105533Y109061D01*
X105565Y109197D01*
X105602Y109332D01*
X105642Y109466D01*
X105685Y109599D01*
X105733Y109731D01*
X105783Y109862D01*
X105838Y109991D01*
X105896Y110118D01*
X105957Y110244D01*
X106022Y110368D01*
X106091Y110490D01*
X106162Y110610D01*
X106237Y110728D01*
X106315Y110845D01*
X106397Y110959D01*
X106481Y111070D01*
X106569Y111179D01*
X106659Y111286D01*
X106753Y111391D01*
X106849Y111492D01*
X106948Y111591D01*
X107049Y111687D01*
X107154Y111781D01*
X107261Y111871D01*
X107370Y111959D01*
X107481Y112043D01*
X107595Y112125D01*
X107712Y112203D01*
X107830Y112278D01*
X107950Y112349D01*
X108072Y112418D01*
X108196Y112483D01*
X108322Y112544D01*
X108449Y112602D01*
X108578Y112657D01*
X108709Y112707D01*
X108841Y112755D01*
X108974Y112798D01*
X109108Y112838D01*
X109243Y112875D01*
X109379Y112907D01*
X109516Y112936D01*
X109654Y112961D01*
X109792Y112982D01*
X109931Y112999D01*
X110070Y113013D01*
X110210Y113022D01*
X110350Y113028D01*
X110490Y113030D01*
D14*
X130048Y101600D02*
X130048Y93980D01*
X130048Y101600D02*
X130048Y109220D01*
X123698Y101600D02*
X123698Y93980D01*
X123698Y101600D02*
X123698Y109220D01*
D13*
X123698Y101600D02*
X114300Y101600D01*
X130048Y101600D02*
X139700Y101600D01*
D11*
X137123Y75565D02*
X134583Y75565D01*
X134483Y75567D01*
X134384Y75573D01*
X134284Y75583D01*
X134186Y75596D01*
X134087Y75614D01*
X133990Y75635D01*
X133894Y75660D01*
X133798Y75689D01*
X133704Y75722D01*
X133611Y75758D01*
X133520Y75798D01*
X133430Y75842D01*
X133342Y75889D01*
X133256Y75939D01*
X133172Y75993D01*
X133090Y76050D01*
X133011Y76110D01*
X132933Y76174D01*
X132859Y76240D01*
X132787Y76309D01*
X132718Y76381D01*
X132652Y76455D01*
X132588Y76533D01*
X132528Y76612D01*
X132471Y76694D01*
X132417Y76778D01*
X132367Y76864D01*
X132320Y76952D01*
X132276Y77042D01*
X132236Y77133D01*
X132200Y77226D01*
X132167Y77320D01*
X132138Y77416D01*
X132113Y77512D01*
X132092Y77609D01*
X132074Y77708D01*
X132061Y77806D01*
X132051Y77906D01*
X132045Y78005D01*
X132043Y78105D01*
X132043Y84455D01*
X132045Y84555D01*
X132051Y84654D01*
X132061Y84754D01*
X132074Y84852D01*
X132092Y84951D01*
X132113Y85048D01*
X132138Y85144D01*
X132167Y85240D01*
X132200Y85334D01*
X132236Y85427D01*
X132276Y85518D01*
X132320Y85608D01*
X132367Y85696D01*
X132417Y85782D01*
X132471Y85866D01*
X132528Y85948D01*
X132588Y86027D01*
X132652Y86105D01*
X132718Y86179D01*
X132787Y86251D01*
X132859Y86320D01*
X132933Y86386D01*
X133011Y86450D01*
X133090Y86510D01*
X133172Y86567D01*
X133256Y86621D01*
X133342Y86671D01*
X133430Y86718D01*
X133520Y86762D01*
X133611Y86802D01*
X133704Y86838D01*
X133798Y86871D01*
X133894Y86900D01*
X133990Y86925D01*
X134087Y86946D01*
X134186Y86964D01*
X134284Y86977D01*
X134384Y86987D01*
X134483Y86993D01*
X134583Y86995D01*
X137123Y86995D01*
X141605Y84455D02*
X144780Y86995D01*
X144780Y75565D01*
X141605Y75565D02*
X147955Y75565D01*
D13*
X148590Y31750D02*
X148588Y31610D01*
X148582Y31470D01*
X148573Y31330D01*
X148559Y31191D01*
X148542Y31052D01*
X148521Y30914D01*
X148496Y30776D01*
X148467Y30639D01*
X148435Y30503D01*
X148398Y30368D01*
X148358Y30234D01*
X148315Y30101D01*
X148267Y29969D01*
X148217Y29838D01*
X148162Y29709D01*
X148104Y29582D01*
X148043Y29456D01*
X147978Y29332D01*
X147909Y29210D01*
X147838Y29090D01*
X147763Y28972D01*
X147685Y28855D01*
X147603Y28741D01*
X147519Y28630D01*
X147431Y28521D01*
X147341Y28414D01*
X147247Y28309D01*
X147151Y28208D01*
X147052Y28109D01*
X146951Y28013D01*
X146846Y27919D01*
X146739Y27829D01*
X146630Y27741D01*
X146519Y27657D01*
X146405Y27575D01*
X146288Y27497D01*
X146170Y27422D01*
X146050Y27351D01*
X145928Y27282D01*
X145804Y27217D01*
X145678Y27156D01*
X145551Y27098D01*
X145422Y27043D01*
X145291Y26993D01*
X145159Y26945D01*
X145026Y26902D01*
X144892Y26862D01*
X144757Y26825D01*
X144621Y26793D01*
X144484Y26764D01*
X144346Y26739D01*
X144208Y26718D01*
X144069Y26701D01*
X143930Y26687D01*
X143790Y26678D01*
X143650Y26672D01*
X143510Y26670D01*
X148590Y44450D02*
X148588Y44590D01*
X148582Y44730D01*
X148573Y44870D01*
X148559Y45009D01*
X148542Y45148D01*
X148521Y45286D01*
X148496Y45424D01*
X148467Y45561D01*
X148435Y45697D01*
X148398Y45832D01*
X148358Y45966D01*
X148315Y46099D01*
X148267Y46231D01*
X148217Y46362D01*
X148162Y46491D01*
X148104Y46618D01*
X148043Y46744D01*
X147978Y46868D01*
X147909Y46990D01*
X147838Y47110D01*
X147763Y47228D01*
X147685Y47345D01*
X147603Y47459D01*
X147519Y47570D01*
X147431Y47679D01*
X147341Y47786D01*
X147247Y47891D01*
X147151Y47992D01*
X147052Y48091D01*
X146951Y48187D01*
X146846Y48281D01*
X146739Y48371D01*
X146630Y48459D01*
X146519Y48543D01*
X146405Y48625D01*
X146288Y48703D01*
X146170Y48778D01*
X146050Y48849D01*
X145928Y48918D01*
X145804Y48983D01*
X145678Y49044D01*
X145551Y49102D01*
X145422Y49157D01*
X145291Y49207D01*
X145159Y49255D01*
X145026Y49298D01*
X144892Y49338D01*
X144757Y49375D01*
X144621Y49407D01*
X144484Y49436D01*
X144346Y49461D01*
X144208Y49482D01*
X144069Y49499D01*
X143930Y49513D01*
X143790Y49522D01*
X143650Y49528D01*
X143510Y49530D01*
X143510Y26670D02*
X110490Y26670D01*
X110490Y49530D02*
X143510Y49530D01*
X110490Y26670D02*
X110350Y26672D01*
X110210Y26678D01*
X110070Y26687D01*
X109931Y26701D01*
X109792Y26718D01*
X109654Y26739D01*
X109516Y26764D01*
X109379Y26793D01*
X109243Y26825D01*
X109108Y26862D01*
X108974Y26902D01*
X108841Y26945D01*
X108709Y26993D01*
X108578Y27043D01*
X108449Y27098D01*
X108322Y27156D01*
X108196Y27217D01*
X108072Y27282D01*
X107950Y27351D01*
X107830Y27422D01*
X107712Y27497D01*
X107595Y27575D01*
X107481Y27657D01*
X107370Y27741D01*
X107261Y27829D01*
X107154Y27919D01*
X107049Y28013D01*
X106948Y28109D01*
X106849Y28208D01*
X106753Y28309D01*
X106659Y28414D01*
X106569Y28521D01*
X106481Y28630D01*
X106397Y28741D01*
X106315Y28855D01*
X106237Y28972D01*
X106162Y29090D01*
X106091Y29210D01*
X106022Y29332D01*
X105957Y29456D01*
X105896Y29582D01*
X105838Y29709D01*
X105783Y29838D01*
X105733Y29969D01*
X105685Y30101D01*
X105642Y30234D01*
X105602Y30368D01*
X105565Y30503D01*
X105533Y30639D01*
X105504Y30776D01*
X105479Y30914D01*
X105458Y31052D01*
X105441Y31191D01*
X105427Y31330D01*
X105418Y31470D01*
X105412Y31610D01*
X105410Y31750D01*
X105410Y44450D02*
X105412Y44590D01*
X105418Y44730D01*
X105427Y44870D01*
X105441Y45009D01*
X105458Y45148D01*
X105479Y45286D01*
X105504Y45424D01*
X105533Y45561D01*
X105565Y45697D01*
X105602Y45832D01*
X105642Y45966D01*
X105685Y46099D01*
X105733Y46231D01*
X105783Y46362D01*
X105838Y46491D01*
X105896Y46618D01*
X105957Y46744D01*
X106022Y46868D01*
X106091Y46990D01*
X106162Y47110D01*
X106237Y47228D01*
X106315Y47345D01*
X106397Y47459D01*
X106481Y47570D01*
X106569Y47679D01*
X106659Y47786D01*
X106753Y47891D01*
X106849Y47992D01*
X106948Y48091D01*
X107049Y48187D01*
X107154Y48281D01*
X107261Y48371D01*
X107370Y48459D01*
X107481Y48543D01*
X107595Y48625D01*
X107712Y48703D01*
X107830Y48778D01*
X107950Y48849D01*
X108072Y48918D01*
X108196Y48983D01*
X108322Y49044D01*
X108449Y49102D01*
X108578Y49157D01*
X108709Y49207D01*
X108841Y49255D01*
X108974Y49298D01*
X109108Y49338D01*
X109243Y49375D01*
X109379Y49407D01*
X109516Y49436D01*
X109654Y49461D01*
X109792Y49482D01*
X109931Y49499D01*
X110070Y49513D01*
X110210Y49522D01*
X110350Y49528D01*
X110490Y49530D01*
D14*
X130048Y38100D02*
X130048Y30480D01*
X130048Y38100D02*
X130048Y45720D01*
X123698Y38100D02*
X123698Y30480D01*
X123698Y38100D02*
X123698Y45720D01*
D13*
X123698Y38100D02*
X114300Y38100D01*
X130048Y38100D02*
X139700Y38100D01*
D11*
X137123Y12065D02*
X134583Y12065D01*
X134483Y12067D01*
X134384Y12073D01*
X134284Y12083D01*
X134186Y12096D01*
X134087Y12114D01*
X133990Y12135D01*
X133894Y12160D01*
X133798Y12189D01*
X133704Y12222D01*
X133611Y12258D01*
X133520Y12298D01*
X133430Y12342D01*
X133342Y12389D01*
X133256Y12439D01*
X133172Y12493D01*
X133090Y12550D01*
X133011Y12610D01*
X132933Y12674D01*
X132859Y12740D01*
X132787Y12809D01*
X132718Y12881D01*
X132652Y12955D01*
X132588Y13033D01*
X132528Y13112D01*
X132471Y13194D01*
X132417Y13278D01*
X132367Y13364D01*
X132320Y13452D01*
X132276Y13542D01*
X132236Y13633D01*
X132200Y13726D01*
X132167Y13820D01*
X132138Y13916D01*
X132113Y14012D01*
X132092Y14109D01*
X132074Y14208D01*
X132061Y14306D01*
X132051Y14406D01*
X132045Y14505D01*
X132043Y14605D01*
X132043Y20955D01*
X132045Y21055D01*
X132051Y21154D01*
X132061Y21254D01*
X132074Y21352D01*
X132092Y21451D01*
X132113Y21548D01*
X132138Y21644D01*
X132167Y21740D01*
X132200Y21834D01*
X132236Y21927D01*
X132276Y22018D01*
X132320Y22108D01*
X132367Y22196D01*
X132417Y22282D01*
X132471Y22366D01*
X132528Y22448D01*
X132588Y22527D01*
X132652Y22605D01*
X132718Y22679D01*
X132787Y22751D01*
X132859Y22820D01*
X132933Y22886D01*
X133011Y22950D01*
X133090Y23010D01*
X133172Y23067D01*
X133256Y23121D01*
X133342Y23171D01*
X133430Y23218D01*
X133520Y23262D01*
X133611Y23302D01*
X133704Y23338D01*
X133798Y23371D01*
X133894Y23400D01*
X133990Y23425D01*
X134087Y23446D01*
X134186Y23464D01*
X134284Y23477D01*
X134384Y23487D01*
X134483Y23493D01*
X134583Y23495D01*
X137123Y23495D01*
X145098Y23496D02*
X145202Y23494D01*
X145307Y23488D01*
X145411Y23479D01*
X145514Y23466D01*
X145617Y23448D01*
X145719Y23428D01*
X145821Y23403D01*
X145921Y23375D01*
X146021Y23343D01*
X146119Y23307D01*
X146216Y23268D01*
X146311Y23226D01*
X146405Y23180D01*
X146497Y23130D01*
X146587Y23078D01*
X146675Y23022D01*
X146761Y22962D01*
X146845Y22900D01*
X146926Y22835D01*
X147005Y22767D01*
X147082Y22695D01*
X147155Y22622D01*
X147227Y22545D01*
X147295Y22466D01*
X147360Y22385D01*
X147422Y22301D01*
X147482Y22215D01*
X147538Y22127D01*
X147590Y22037D01*
X147640Y21945D01*
X147686Y21851D01*
X147728Y21756D01*
X147767Y21659D01*
X147803Y21561D01*
X147835Y21461D01*
X147863Y21361D01*
X147888Y21259D01*
X147908Y21157D01*
X147926Y21054D01*
X147939Y20951D01*
X147948Y20847D01*
X147954Y20742D01*
X147956Y20638D01*
X145098Y23495D02*
X144980Y23493D01*
X144861Y23487D01*
X144743Y23478D01*
X144626Y23465D01*
X144509Y23447D01*
X144392Y23427D01*
X144276Y23402D01*
X144161Y23374D01*
X144048Y23341D01*
X143935Y23306D01*
X143823Y23266D01*
X143713Y23224D01*
X143604Y23177D01*
X143496Y23127D01*
X143391Y23074D01*
X143287Y23017D01*
X143185Y22957D01*
X143085Y22894D01*
X142987Y22827D01*
X142891Y22758D01*
X142798Y22685D01*
X142707Y22609D01*
X142618Y22531D01*
X142532Y22449D01*
X142449Y22365D01*
X142368Y22279D01*
X142291Y22189D01*
X142216Y22098D01*
X142144Y22004D01*
X142075Y21907D01*
X142010Y21809D01*
X141947Y21708D01*
X141888Y21605D01*
X141832Y21501D01*
X141780Y21395D01*
X141731Y21287D01*
X141686Y21178D01*
X141644Y21067D01*
X141606Y20955D01*
X147003Y18416D02*
X147079Y18491D01*
X147154Y18570D01*
X147225Y18651D01*
X147294Y18735D01*
X147359Y18821D01*
X147421Y18909D01*
X147481Y18999D01*
X147537Y19091D01*
X147590Y19186D01*
X147639Y19282D01*
X147685Y19380D01*
X147728Y19479D01*
X147767Y19580D01*
X147802Y19682D01*
X147834Y19785D01*
X147862Y19889D01*
X147887Y19994D01*
X147908Y20101D01*
X147925Y20207D01*
X147938Y20314D01*
X147947Y20422D01*
X147953Y20530D01*
X147955Y20638D01*
X147003Y18415D02*
X141605Y12065D01*
X147955Y12065D01*
D10*
X405110Y367150D02*
X433090Y367150D01*
X433090Y318650D01*
X405110Y318650D01*
X405110Y367150D01*
D11*
X418959Y315849D02*
X414655Y312406D01*
X418959Y315849D02*
X418959Y300355D01*
X414655Y300355D02*
X423263Y300355D01*
X423263Y383096D02*
X423261Y383218D01*
X423255Y383339D01*
X423246Y383461D01*
X423232Y383582D01*
X423215Y383702D01*
X423194Y383822D01*
X423170Y383941D01*
X423141Y384059D01*
X423109Y384177D01*
X423073Y384293D01*
X423034Y384408D01*
X422991Y384522D01*
X422944Y384635D01*
X422894Y384745D01*
X422841Y384855D01*
X422784Y384962D01*
X422724Y385068D01*
X422660Y385172D01*
X422593Y385274D01*
X422523Y385373D01*
X422450Y385470D01*
X422374Y385565D01*
X422295Y385658D01*
X422213Y385748D01*
X422128Y385835D01*
X422041Y385920D01*
X421951Y386002D01*
X421858Y386081D01*
X421763Y386157D01*
X421666Y386230D01*
X421567Y386300D01*
X421465Y386367D01*
X421361Y386431D01*
X421255Y386491D01*
X421148Y386548D01*
X421038Y386601D01*
X420928Y386651D01*
X420815Y386698D01*
X420701Y386741D01*
X420586Y386780D01*
X420470Y386816D01*
X420352Y386848D01*
X420234Y386877D01*
X420115Y386901D01*
X419995Y386922D01*
X419875Y386939D01*
X419754Y386953D01*
X419632Y386962D01*
X419511Y386968D01*
X419389Y386970D01*
X419389Y386969D02*
X419250Y386967D01*
X419111Y386961D01*
X418972Y386952D01*
X418834Y386938D01*
X418696Y386920D01*
X418559Y386899D01*
X418422Y386874D01*
X418286Y386845D01*
X418151Y386812D01*
X418016Y386776D01*
X417883Y386736D01*
X417751Y386692D01*
X417621Y386644D01*
X417491Y386593D01*
X417364Y386538D01*
X417237Y386480D01*
X417113Y386418D01*
X416990Y386353D01*
X416869Y386284D01*
X416750Y386212D01*
X416633Y386136D01*
X416519Y386058D01*
X416406Y385976D01*
X416296Y385891D01*
X416188Y385803D01*
X416083Y385712D01*
X415981Y385618D01*
X415881Y385522D01*
X415783Y385422D01*
X415689Y385320D01*
X415597Y385216D01*
X415509Y385108D01*
X415423Y384999D01*
X415341Y384887D01*
X415262Y384772D01*
X415186Y384656D01*
X415113Y384538D01*
X415043Y384417D01*
X414977Y384295D01*
X414915Y384170D01*
X414856Y384045D01*
X414800Y383917D01*
X414748Y383788D01*
X414700Y383658D01*
X414655Y383526D01*
X421972Y380083D02*
X422061Y380170D01*
X422147Y380260D01*
X422231Y380353D01*
X422312Y380448D01*
X422390Y380545D01*
X422465Y380645D01*
X422537Y380747D01*
X422606Y380851D01*
X422671Y380957D01*
X422734Y381065D01*
X422793Y381175D01*
X422849Y381287D01*
X422902Y381400D01*
X422951Y381514D01*
X422996Y381631D01*
X423039Y381748D01*
X423077Y381867D01*
X423112Y381986D01*
X423144Y382107D01*
X423172Y382229D01*
X423196Y382351D01*
X423216Y382474D01*
X423233Y382598D01*
X423246Y382722D01*
X423256Y382847D01*
X423261Y382971D01*
X423263Y383096D01*
X421972Y380083D02*
X414655Y371475D01*
X423263Y371475D01*
D12*
X399542Y323201D02*
X399542Y320604D01*
X399540Y320505D01*
X399534Y320405D01*
X399525Y320306D01*
X399512Y320208D01*
X399495Y320110D01*
X399474Y320012D01*
X399449Y319916D01*
X399421Y319821D01*
X399389Y319727D01*
X399354Y319634D01*
X399315Y319542D01*
X399272Y319452D01*
X399227Y319364D01*
X399177Y319277D01*
X399125Y319193D01*
X399069Y319110D01*
X399011Y319030D01*
X398949Y318952D01*
X398884Y318877D01*
X398816Y318804D01*
X398746Y318734D01*
X398673Y318666D01*
X398598Y318601D01*
X398520Y318539D01*
X398440Y318481D01*
X398357Y318425D01*
X398273Y318373D01*
X398186Y318323D01*
X398098Y318278D01*
X398008Y318235D01*
X397916Y318196D01*
X397823Y318161D01*
X397729Y318129D01*
X397634Y318101D01*
X397538Y318076D01*
X397440Y318055D01*
X397342Y318038D01*
X397244Y318025D01*
X397145Y318016D01*
X397045Y318010D01*
X396946Y318008D01*
X390454Y318008D01*
X390355Y318010D01*
X390255Y318016D01*
X390156Y318025D01*
X390058Y318038D01*
X389960Y318056D01*
X389862Y318076D01*
X389766Y318101D01*
X389670Y318129D01*
X389576Y318161D01*
X389483Y318196D01*
X389392Y318235D01*
X389302Y318278D01*
X389213Y318323D01*
X389127Y318373D01*
X389042Y318425D01*
X388960Y318481D01*
X388880Y318540D01*
X388802Y318601D01*
X388726Y318666D01*
X388653Y318734D01*
X388583Y318804D01*
X388515Y318877D01*
X388450Y318953D01*
X388389Y319031D01*
X388330Y319111D01*
X388274Y319193D01*
X388222Y319278D01*
X388173Y319364D01*
X388127Y319453D01*
X388084Y319543D01*
X388045Y319634D01*
X388010Y319727D01*
X387978Y319821D01*
X387950Y319917D01*
X387925Y320013D01*
X387905Y320111D01*
X387887Y320209D01*
X387874Y320307D01*
X387865Y320406D01*
X387859Y320505D01*
X387857Y320605D01*
X387858Y320604D02*
X387858Y323201D01*
X387858Y330812D02*
X399542Y326917D01*
X399542Y334706D02*
X387858Y330812D01*
X396621Y333733D02*
X396621Y327891D01*
X399542Y339377D02*
X387858Y339377D01*
X399542Y345868D01*
X387858Y345868D01*
D13*
X321310Y254000D02*
X321310Y25400D01*
X262890Y25400D02*
X262890Y254000D01*
X262890Y25400D02*
X321310Y25400D01*
X321310Y254000D02*
X302260Y254000D01*
X281940Y254000D02*
X262890Y254000D01*
X281940Y254000D02*
X281943Y253753D01*
X281952Y253505D01*
X281967Y253258D01*
X281988Y253012D01*
X282015Y252766D01*
X282048Y252521D01*
X282087Y252276D01*
X282132Y252033D01*
X282183Y251791D01*
X282240Y251550D01*
X282302Y251311D01*
X282371Y251073D01*
X282445Y250837D01*
X282525Y250603D01*
X282610Y250371D01*
X282702Y250141D01*
X282798Y249913D01*
X282901Y249688D01*
X283008Y249465D01*
X283122Y249245D01*
X283240Y249028D01*
X283364Y248813D01*
X283493Y248602D01*
X283627Y248394D01*
X283766Y248189D01*
X283910Y247988D01*
X284058Y247790D01*
X284212Y247596D01*
X284370Y247406D01*
X284533Y247220D01*
X284700Y247038D01*
X284872Y246860D01*
X285048Y246686D01*
X285228Y246516D01*
X285413Y246351D01*
X285601Y246191D01*
X285793Y246035D01*
X285989Y245883D01*
X286188Y245737D01*
X286391Y245595D01*
X286598Y245459D01*
X286807Y245327D01*
X287020Y245201D01*
X287236Y245080D01*
X287454Y244964D01*
X287676Y244854D01*
X287900Y244749D01*
X288126Y244649D01*
X288355Y244555D01*
X288586Y244467D01*
X288820Y244384D01*
X289055Y244307D01*
X289292Y244236D01*
X289530Y244170D01*
X289770Y244111D01*
X290012Y244057D01*
X290255Y244009D01*
X290498Y243967D01*
X290743Y243931D01*
X290989Y243901D01*
X291235Y243877D01*
X291482Y243859D01*
X291729Y243847D01*
X291976Y243841D01*
X292224Y243841D01*
X292471Y243847D01*
X292718Y243859D01*
X292965Y243877D01*
X293211Y243901D01*
X293457Y243931D01*
X293702Y243967D01*
X293945Y244009D01*
X294188Y244057D01*
X294430Y244111D01*
X294670Y244170D01*
X294908Y244236D01*
X295145Y244307D01*
X295380Y244384D01*
X295614Y244467D01*
X295845Y244555D01*
X296074Y244649D01*
X296300Y244749D01*
X296524Y244854D01*
X296746Y244964D01*
X296964Y245080D01*
X297180Y245201D01*
X297393Y245327D01*
X297602Y245459D01*
X297809Y245595D01*
X298012Y245737D01*
X298211Y245883D01*
X298407Y246035D01*
X298599Y246191D01*
X298787Y246351D01*
X298972Y246516D01*
X299152Y246686D01*
X299328Y246860D01*
X299500Y247038D01*
X299667Y247220D01*
X299830Y247406D01*
X299988Y247596D01*
X300142Y247790D01*
X300290Y247988D01*
X300434Y248189D01*
X300573Y248394D01*
X300707Y248602D01*
X300836Y248813D01*
X300960Y249028D01*
X301078Y249245D01*
X301192Y249465D01*
X301299Y249688D01*
X301402Y249913D01*
X301498Y250141D01*
X301590Y250371D01*
X301675Y250603D01*
X301755Y250837D01*
X301829Y251073D01*
X301898Y251311D01*
X301960Y251550D01*
X302017Y251791D01*
X302068Y252033D01*
X302113Y252276D01*
X302152Y252521D01*
X302185Y252766D01*
X302212Y253012D01*
X302233Y253258D01*
X302248Y253505D01*
X302257Y253753D01*
X302260Y254000D01*
D11*
X263525Y257175D02*
X263525Y268605D01*
X262255Y257175D02*
X264795Y257175D01*
X264795Y268605D02*
X262255Y268605D01*
X271997Y257175D02*
X274537Y257175D01*
X271997Y257175D02*
X271897Y257177D01*
X271798Y257183D01*
X271698Y257193D01*
X271600Y257206D01*
X271501Y257224D01*
X271404Y257245D01*
X271308Y257270D01*
X271212Y257299D01*
X271118Y257332D01*
X271025Y257368D01*
X270934Y257408D01*
X270844Y257452D01*
X270756Y257499D01*
X270670Y257549D01*
X270586Y257603D01*
X270504Y257660D01*
X270425Y257720D01*
X270347Y257784D01*
X270273Y257850D01*
X270201Y257919D01*
X270132Y257991D01*
X270066Y258065D01*
X270002Y258143D01*
X269942Y258222D01*
X269885Y258304D01*
X269831Y258388D01*
X269781Y258474D01*
X269734Y258562D01*
X269690Y258652D01*
X269650Y258743D01*
X269614Y258836D01*
X269581Y258930D01*
X269552Y259026D01*
X269527Y259122D01*
X269506Y259219D01*
X269488Y259318D01*
X269475Y259416D01*
X269465Y259516D01*
X269459Y259615D01*
X269457Y259715D01*
X269457Y266065D01*
X269459Y266165D01*
X269465Y266264D01*
X269475Y266364D01*
X269488Y266462D01*
X269506Y266561D01*
X269527Y266658D01*
X269552Y266754D01*
X269581Y266850D01*
X269614Y266944D01*
X269650Y267037D01*
X269690Y267128D01*
X269734Y267218D01*
X269781Y267306D01*
X269831Y267392D01*
X269885Y267476D01*
X269942Y267558D01*
X270002Y267637D01*
X270066Y267715D01*
X270132Y267789D01*
X270201Y267861D01*
X270273Y267930D01*
X270347Y267996D01*
X270425Y268060D01*
X270504Y268120D01*
X270586Y268177D01*
X270670Y268231D01*
X270756Y268281D01*
X270844Y268328D01*
X270934Y268372D01*
X271025Y268412D01*
X271118Y268448D01*
X271212Y268481D01*
X271308Y268510D01*
X271404Y268535D01*
X271501Y268556D01*
X271600Y268574D01*
X271698Y268587D01*
X271798Y268597D01*
X271897Y268603D01*
X271997Y268605D01*
X274537Y268605D01*
X279019Y266065D02*
X282194Y268605D01*
X282194Y257175D01*
X279019Y257175D02*
X285369Y257175D01*
D13*
X321310Y292100D02*
X321310Y393700D01*
X262890Y393700D02*
X262890Y292100D01*
X321310Y292100D01*
X321310Y393700D02*
X302260Y393700D01*
X281940Y393700D02*
X262890Y393700D01*
X281940Y393700D02*
X281943Y393453D01*
X281952Y393205D01*
X281967Y392958D01*
X281988Y392712D01*
X282015Y392466D01*
X282048Y392221D01*
X282087Y391976D01*
X282132Y391733D01*
X282183Y391491D01*
X282240Y391250D01*
X282302Y391011D01*
X282371Y390773D01*
X282445Y390537D01*
X282525Y390303D01*
X282610Y390071D01*
X282702Y389841D01*
X282798Y389613D01*
X282901Y389388D01*
X283008Y389165D01*
X283122Y388945D01*
X283240Y388728D01*
X283364Y388513D01*
X283493Y388302D01*
X283627Y388094D01*
X283766Y387889D01*
X283910Y387688D01*
X284058Y387490D01*
X284212Y387296D01*
X284370Y387106D01*
X284533Y386920D01*
X284700Y386738D01*
X284872Y386560D01*
X285048Y386386D01*
X285228Y386216D01*
X285413Y386051D01*
X285601Y385891D01*
X285793Y385735D01*
X285989Y385583D01*
X286188Y385437D01*
X286391Y385295D01*
X286598Y385159D01*
X286807Y385027D01*
X287020Y384901D01*
X287236Y384780D01*
X287454Y384664D01*
X287676Y384554D01*
X287900Y384449D01*
X288126Y384349D01*
X288355Y384255D01*
X288586Y384167D01*
X288820Y384084D01*
X289055Y384007D01*
X289292Y383936D01*
X289530Y383870D01*
X289770Y383811D01*
X290012Y383757D01*
X290255Y383709D01*
X290498Y383667D01*
X290743Y383631D01*
X290989Y383601D01*
X291235Y383577D01*
X291482Y383559D01*
X291729Y383547D01*
X291976Y383541D01*
X292224Y383541D01*
X292471Y383547D01*
X292718Y383559D01*
X292965Y383577D01*
X293211Y383601D01*
X293457Y383631D01*
X293702Y383667D01*
X293945Y383709D01*
X294188Y383757D01*
X294430Y383811D01*
X294670Y383870D01*
X294908Y383936D01*
X295145Y384007D01*
X295380Y384084D01*
X295614Y384167D01*
X295845Y384255D01*
X296074Y384349D01*
X296300Y384449D01*
X296524Y384554D01*
X296746Y384664D01*
X296964Y384780D01*
X297180Y384901D01*
X297393Y385027D01*
X297602Y385159D01*
X297809Y385295D01*
X298012Y385437D01*
X298211Y385583D01*
X298407Y385735D01*
X298599Y385891D01*
X298787Y386051D01*
X298972Y386216D01*
X299152Y386386D01*
X299328Y386560D01*
X299500Y386738D01*
X299667Y386920D01*
X299830Y387106D01*
X299988Y387296D01*
X300142Y387490D01*
X300290Y387688D01*
X300434Y387889D01*
X300573Y388094D01*
X300707Y388302D01*
X300836Y388513D01*
X300960Y388728D01*
X301078Y388945D01*
X301192Y389165D01*
X301299Y389388D01*
X301402Y389613D01*
X301498Y389841D01*
X301590Y390071D01*
X301675Y390303D01*
X301755Y390537D01*
X301829Y390773D01*
X301898Y391011D01*
X301960Y391250D01*
X302017Y391491D01*
X302068Y391733D01*
X302113Y391976D01*
X302152Y392221D01*
X302185Y392466D01*
X302212Y392712D01*
X302233Y392958D01*
X302248Y393205D01*
X302257Y393453D01*
X302260Y393700D01*
D11*
X264795Y396875D02*
X264795Y408305D01*
X263525Y396875D02*
X266065Y396875D01*
X266065Y408305D02*
X263525Y408305D01*
X273267Y396875D02*
X275807Y396875D01*
X273267Y396875D02*
X273167Y396877D01*
X273068Y396883D01*
X272968Y396893D01*
X272870Y396906D01*
X272771Y396924D01*
X272674Y396945D01*
X272578Y396970D01*
X272482Y396999D01*
X272388Y397032D01*
X272295Y397068D01*
X272204Y397108D01*
X272114Y397152D01*
X272026Y397199D01*
X271940Y397249D01*
X271856Y397303D01*
X271774Y397360D01*
X271695Y397420D01*
X271617Y397484D01*
X271543Y397550D01*
X271471Y397619D01*
X271402Y397691D01*
X271336Y397765D01*
X271272Y397843D01*
X271212Y397922D01*
X271155Y398004D01*
X271101Y398088D01*
X271051Y398174D01*
X271004Y398262D01*
X270960Y398352D01*
X270920Y398443D01*
X270884Y398536D01*
X270851Y398630D01*
X270822Y398726D01*
X270797Y398822D01*
X270776Y398919D01*
X270758Y399018D01*
X270745Y399116D01*
X270735Y399216D01*
X270729Y399315D01*
X270727Y399415D01*
X270727Y405765D01*
X270729Y405865D01*
X270735Y405964D01*
X270745Y406064D01*
X270758Y406162D01*
X270776Y406261D01*
X270797Y406358D01*
X270822Y406454D01*
X270851Y406550D01*
X270884Y406644D01*
X270920Y406737D01*
X270960Y406828D01*
X271004Y406918D01*
X271051Y407006D01*
X271101Y407092D01*
X271155Y407176D01*
X271212Y407258D01*
X271272Y407337D01*
X271336Y407415D01*
X271402Y407489D01*
X271471Y407561D01*
X271543Y407630D01*
X271617Y407696D01*
X271695Y407760D01*
X271774Y407820D01*
X271856Y407877D01*
X271940Y407931D01*
X272026Y407981D01*
X272114Y408028D01*
X272204Y408072D01*
X272295Y408112D01*
X272388Y408148D01*
X272482Y408181D01*
X272578Y408210D01*
X272674Y408235D01*
X272771Y408256D01*
X272870Y408274D01*
X272968Y408287D01*
X273068Y408297D01*
X273167Y408303D01*
X273267Y408305D01*
X275807Y408305D01*
X283781Y408306D02*
X283885Y408304D01*
X283990Y408298D01*
X284094Y408289D01*
X284197Y408276D01*
X284300Y408258D01*
X284402Y408238D01*
X284504Y408213D01*
X284604Y408185D01*
X284704Y408153D01*
X284802Y408117D01*
X284899Y408078D01*
X284994Y408036D01*
X285088Y407990D01*
X285180Y407940D01*
X285270Y407888D01*
X285358Y407832D01*
X285444Y407772D01*
X285528Y407710D01*
X285609Y407645D01*
X285688Y407577D01*
X285765Y407505D01*
X285838Y407432D01*
X285910Y407355D01*
X285978Y407276D01*
X286043Y407195D01*
X286105Y407111D01*
X286165Y407025D01*
X286221Y406937D01*
X286273Y406847D01*
X286323Y406755D01*
X286369Y406661D01*
X286411Y406566D01*
X286450Y406469D01*
X286486Y406371D01*
X286518Y406271D01*
X286546Y406171D01*
X286571Y406069D01*
X286591Y405967D01*
X286609Y405864D01*
X286622Y405761D01*
X286631Y405657D01*
X286637Y405552D01*
X286639Y405448D01*
X283781Y408305D02*
X283663Y408303D01*
X283544Y408297D01*
X283426Y408288D01*
X283309Y408275D01*
X283192Y408257D01*
X283075Y408237D01*
X282959Y408212D01*
X282844Y408184D01*
X282731Y408151D01*
X282618Y408116D01*
X282506Y408076D01*
X282396Y408034D01*
X282287Y407987D01*
X282179Y407937D01*
X282074Y407884D01*
X281970Y407827D01*
X281868Y407767D01*
X281768Y407704D01*
X281670Y407637D01*
X281574Y407568D01*
X281481Y407495D01*
X281390Y407419D01*
X281301Y407341D01*
X281215Y407259D01*
X281132Y407175D01*
X281051Y407089D01*
X280974Y406999D01*
X280899Y406908D01*
X280827Y406814D01*
X280758Y406717D01*
X280693Y406619D01*
X280630Y406518D01*
X280571Y406415D01*
X280515Y406311D01*
X280463Y406205D01*
X280414Y406097D01*
X280369Y405988D01*
X280327Y405877D01*
X280289Y405765D01*
X285687Y403226D02*
X285763Y403301D01*
X285838Y403380D01*
X285909Y403461D01*
X285978Y403545D01*
X286043Y403631D01*
X286105Y403719D01*
X286165Y403809D01*
X286221Y403901D01*
X286274Y403996D01*
X286323Y404092D01*
X286369Y404190D01*
X286412Y404289D01*
X286451Y404390D01*
X286486Y404492D01*
X286518Y404595D01*
X286546Y404699D01*
X286571Y404804D01*
X286592Y404911D01*
X286609Y405017D01*
X286622Y405124D01*
X286631Y405232D01*
X286637Y405340D01*
X286639Y405448D01*
X285686Y403225D02*
X280289Y396875D01*
X286639Y396875D01*
D10*
X430510Y75050D02*
X458490Y75050D01*
X458490Y26550D01*
X430510Y26550D01*
X430510Y75050D01*
D11*
X444359Y23749D02*
X440055Y20306D01*
X444359Y23749D02*
X444359Y8255D01*
X440055Y8255D02*
X448663Y8255D01*
X448663Y90996D02*
X448661Y91118D01*
X448655Y91239D01*
X448646Y91361D01*
X448632Y91482D01*
X448615Y91602D01*
X448594Y91722D01*
X448570Y91841D01*
X448541Y91959D01*
X448509Y92077D01*
X448473Y92193D01*
X448434Y92308D01*
X448391Y92422D01*
X448344Y92535D01*
X448294Y92645D01*
X448241Y92755D01*
X448184Y92862D01*
X448124Y92968D01*
X448060Y93072D01*
X447993Y93174D01*
X447923Y93273D01*
X447850Y93370D01*
X447774Y93465D01*
X447695Y93558D01*
X447613Y93648D01*
X447528Y93735D01*
X447441Y93820D01*
X447351Y93902D01*
X447258Y93981D01*
X447163Y94057D01*
X447066Y94130D01*
X446967Y94200D01*
X446865Y94267D01*
X446761Y94331D01*
X446655Y94391D01*
X446548Y94448D01*
X446438Y94501D01*
X446328Y94551D01*
X446215Y94598D01*
X446101Y94641D01*
X445986Y94680D01*
X445870Y94716D01*
X445752Y94748D01*
X445634Y94777D01*
X445515Y94801D01*
X445395Y94822D01*
X445275Y94839D01*
X445154Y94853D01*
X445032Y94862D01*
X444911Y94868D01*
X444789Y94870D01*
X444789Y94869D02*
X444650Y94867D01*
X444511Y94861D01*
X444372Y94852D01*
X444234Y94838D01*
X444096Y94820D01*
X443959Y94799D01*
X443822Y94774D01*
X443686Y94745D01*
X443551Y94712D01*
X443416Y94676D01*
X443283Y94636D01*
X443151Y94592D01*
X443021Y94544D01*
X442891Y94493D01*
X442764Y94438D01*
X442637Y94380D01*
X442513Y94318D01*
X442390Y94253D01*
X442269Y94184D01*
X442150Y94112D01*
X442033Y94036D01*
X441919Y93958D01*
X441806Y93876D01*
X441696Y93791D01*
X441588Y93703D01*
X441483Y93612D01*
X441381Y93518D01*
X441281Y93422D01*
X441183Y93322D01*
X441089Y93220D01*
X440997Y93116D01*
X440909Y93008D01*
X440823Y92899D01*
X440741Y92787D01*
X440662Y92672D01*
X440586Y92556D01*
X440513Y92438D01*
X440443Y92317D01*
X440377Y92195D01*
X440315Y92070D01*
X440256Y91945D01*
X440200Y91817D01*
X440148Y91688D01*
X440100Y91558D01*
X440055Y91426D01*
X447372Y87983D02*
X447461Y88070D01*
X447547Y88160D01*
X447631Y88253D01*
X447712Y88348D01*
X447790Y88445D01*
X447865Y88545D01*
X447937Y88647D01*
X448006Y88751D01*
X448071Y88857D01*
X448134Y88965D01*
X448193Y89075D01*
X448249Y89187D01*
X448302Y89300D01*
X448351Y89414D01*
X448396Y89531D01*
X448439Y89648D01*
X448477Y89767D01*
X448512Y89886D01*
X448544Y90007D01*
X448572Y90129D01*
X448596Y90251D01*
X448616Y90374D01*
X448633Y90498D01*
X448646Y90622D01*
X448656Y90747D01*
X448661Y90871D01*
X448663Y90996D01*
X447372Y87983D02*
X440055Y79375D01*
X448663Y79375D01*
D12*
X424942Y27206D02*
X413258Y27206D01*
X424942Y25908D02*
X424942Y28504D01*
X413258Y28504D02*
X413258Y25908D01*
X413258Y33486D02*
X424942Y33486D01*
X424942Y39977D02*
X413258Y33486D01*
X413258Y39977D02*
X424942Y39977D01*
X424942Y47780D02*
X413258Y47780D01*
X413258Y44535D02*
X413258Y51026D01*
D13*
X213360Y41910D02*
X213360Y110490D01*
X167640Y110490D02*
X167640Y41910D01*
D15*
X208280Y41910D02*
X208280Y110490D01*
X172720Y110490D02*
X172720Y41910D01*
X172720Y110490D02*
X172725Y110923D01*
X172741Y111356D01*
X172767Y111788D01*
X172804Y112219D01*
X172852Y112650D01*
X172909Y113079D01*
X172978Y113506D01*
X173056Y113932D01*
X173145Y114356D01*
X173245Y114777D01*
X173354Y115196D01*
X173474Y115612D01*
X173604Y116025D01*
X173743Y116435D01*
X173893Y116842D01*
X174053Y117244D01*
X174222Y117643D01*
X174401Y118037D01*
X174590Y118427D01*
X174788Y118812D01*
X174995Y119192D01*
X175211Y119567D01*
X175437Y119936D01*
X175672Y120300D01*
X175915Y120659D01*
X176167Y121011D01*
X176427Y121357D01*
X176696Y121696D01*
X176973Y122029D01*
X177258Y122355D01*
X177551Y122674D01*
X177851Y122986D01*
X178159Y123290D01*
X178475Y123587D01*
X178797Y123876D01*
X179127Y124157D01*
X179463Y124429D01*
X179805Y124694D01*
X180155Y124950D01*
X180510Y125198D01*
X180871Y125437D01*
X181238Y125667D01*
X181610Y125888D01*
X181988Y126100D01*
X182370Y126303D01*
X182758Y126496D01*
X183150Y126680D01*
X183546Y126854D01*
X183947Y127018D01*
X184351Y127173D01*
X184759Y127318D01*
X185171Y127453D01*
X185585Y127577D01*
X186003Y127692D01*
X186423Y127796D01*
X186846Y127890D01*
X187270Y127974D01*
X187697Y128048D01*
X188126Y128111D01*
X188555Y128163D01*
X188986Y128205D01*
X189418Y128237D01*
X189851Y128258D01*
X190284Y128269D01*
X190716Y128269D01*
X191149Y128258D01*
X191582Y128237D01*
X192014Y128205D01*
X192445Y128163D01*
X192874Y128111D01*
X193303Y128048D01*
X193730Y127974D01*
X194154Y127890D01*
X194577Y127796D01*
X194997Y127692D01*
X195415Y127577D01*
X195829Y127453D01*
X196241Y127318D01*
X196649Y127173D01*
X197053Y127018D01*
X197454Y126854D01*
X197850Y126680D01*
X198242Y126496D01*
X198630Y126303D01*
X199012Y126100D01*
X199390Y125888D01*
X199762Y125667D01*
X200129Y125437D01*
X200490Y125198D01*
X200845Y124950D01*
X201195Y124694D01*
X201537Y124429D01*
X201873Y124157D01*
X202203Y123876D01*
X202525Y123587D01*
X202841Y123290D01*
X203149Y122986D01*
X203449Y122674D01*
X203742Y122355D01*
X204027Y122029D01*
X204304Y121696D01*
X204573Y121357D01*
X204833Y121011D01*
X205085Y120659D01*
X205328Y120300D01*
X205563Y119936D01*
X205789Y119567D01*
X206005Y119192D01*
X206212Y118812D01*
X206410Y118427D01*
X206599Y118037D01*
X206778Y117643D01*
X206947Y117244D01*
X207107Y116842D01*
X207257Y116435D01*
X207396Y116025D01*
X207526Y115612D01*
X207646Y115196D01*
X207755Y114777D01*
X207855Y114356D01*
X207944Y113932D01*
X208022Y113506D01*
X208091Y113079D01*
X208148Y112650D01*
X208196Y112219D01*
X208233Y111788D01*
X208259Y111356D01*
X208275Y110923D01*
X208280Y110490D01*
D13*
X213360Y110490D02*
X213353Y111047D01*
X213333Y111603D01*
X213299Y112159D01*
X213252Y112713D01*
X213191Y113267D01*
X213116Y113818D01*
X213029Y114368D01*
X212928Y114916D01*
X212813Y115460D01*
X212685Y116002D01*
X212545Y116541D01*
X212391Y117076D01*
X212224Y117607D01*
X212044Y118134D01*
X211852Y118656D01*
X211646Y119174D01*
X211429Y119686D01*
X211199Y120193D01*
X210956Y120694D01*
X210702Y121189D01*
X210435Y121678D01*
X210157Y122160D01*
X209867Y122635D01*
X209565Y123103D01*
X209252Y123564D01*
X208928Y124017D01*
X208594Y124461D01*
X208248Y124898D01*
X207892Y125326D01*
X207525Y125745D01*
X207149Y126155D01*
X206763Y126556D01*
X206367Y126947D01*
X205961Y127328D01*
X205546Y127700D01*
X205123Y128061D01*
X204691Y128412D01*
X204250Y128752D01*
X203801Y129082D01*
X203345Y129400D01*
X202880Y129707D01*
X202409Y130003D01*
X201930Y130287D01*
X201445Y130560D01*
X200953Y130820D01*
X200454Y131069D01*
X199950Y131305D01*
X199441Y131529D01*
X198926Y131741D01*
X198406Y131939D01*
X197881Y132126D01*
X197352Y132299D01*
X196819Y132459D01*
X196282Y132607D01*
X195742Y132741D01*
X195198Y132862D01*
X194652Y132970D01*
X194104Y133064D01*
X193553Y133145D01*
X193000Y133213D01*
X192446Y133267D01*
X191891Y133308D01*
X191335Y133335D01*
X190778Y133348D01*
X190222Y133348D01*
X189665Y133335D01*
X189109Y133308D01*
X188554Y133267D01*
X188000Y133213D01*
X187447Y133145D01*
X186896Y133064D01*
X186348Y132970D01*
X185802Y132862D01*
X185258Y132741D01*
X184718Y132607D01*
X184181Y132459D01*
X183648Y132299D01*
X183119Y132126D01*
X182594Y131939D01*
X182074Y131741D01*
X181559Y131529D01*
X181050Y131305D01*
X180546Y131069D01*
X180047Y130820D01*
X179555Y130560D01*
X179070Y130287D01*
X178591Y130003D01*
X178120Y129707D01*
X177655Y129400D01*
X177199Y129082D01*
X176750Y128752D01*
X176309Y128412D01*
X175877Y128061D01*
X175454Y127700D01*
X175039Y127328D01*
X174633Y126947D01*
X174237Y126556D01*
X173851Y126155D01*
X173475Y125745D01*
X173108Y125326D01*
X172752Y124898D01*
X172406Y124461D01*
X172072Y124017D01*
X171748Y123564D01*
X171435Y123103D01*
X171133Y122635D01*
X170843Y122160D01*
X170565Y121678D01*
X170298Y121189D01*
X170044Y120694D01*
X169801Y120193D01*
X169571Y119686D01*
X169354Y119174D01*
X169148Y118656D01*
X168956Y118134D01*
X168776Y117607D01*
X168609Y117076D01*
X168455Y116541D01*
X168315Y116002D01*
X168187Y115460D01*
X168072Y114916D01*
X167971Y114368D01*
X167884Y113818D01*
X167809Y113267D01*
X167748Y112713D01*
X167701Y112159D01*
X167667Y111603D01*
X167647Y111047D01*
X167640Y110490D01*
X167640Y41910D02*
X167647Y41353D01*
X167667Y40797D01*
X167701Y40241D01*
X167748Y39687D01*
X167809Y39133D01*
X167884Y38582D01*
X167971Y38032D01*
X168072Y37484D01*
X168187Y36940D01*
X168315Y36398D01*
X168455Y35859D01*
X168609Y35324D01*
X168776Y34793D01*
X168956Y34266D01*
X169148Y33744D01*
X169354Y33226D01*
X169571Y32714D01*
X169801Y32207D01*
X170044Y31706D01*
X170298Y31211D01*
X170565Y30722D01*
X170843Y30240D01*
X171133Y29765D01*
X171435Y29297D01*
X171748Y28836D01*
X172072Y28383D01*
X172406Y27939D01*
X172752Y27502D01*
X173108Y27074D01*
X173475Y26655D01*
X173851Y26245D01*
X174237Y25844D01*
X174633Y25453D01*
X175039Y25072D01*
X175454Y24700D01*
X175877Y24339D01*
X176309Y23988D01*
X176750Y23648D01*
X177199Y23318D01*
X177655Y23000D01*
X178120Y22693D01*
X178591Y22397D01*
X179070Y22113D01*
X179555Y21840D01*
X180047Y21580D01*
X180546Y21331D01*
X181050Y21095D01*
X181559Y20871D01*
X182074Y20659D01*
X182594Y20461D01*
X183119Y20274D01*
X183648Y20101D01*
X184181Y19941D01*
X184718Y19793D01*
X185258Y19659D01*
X185802Y19538D01*
X186348Y19430D01*
X186896Y19336D01*
X187447Y19255D01*
X188000Y19187D01*
X188554Y19133D01*
X189109Y19092D01*
X189665Y19065D01*
X190222Y19052D01*
X190778Y19052D01*
X191335Y19065D01*
X191891Y19092D01*
X192446Y19133D01*
X193000Y19187D01*
X193553Y19255D01*
X194104Y19336D01*
X194652Y19430D01*
X195198Y19538D01*
X195742Y19659D01*
X196282Y19793D01*
X196819Y19941D01*
X197352Y20101D01*
X197881Y20274D01*
X198406Y20461D01*
X198926Y20659D01*
X199441Y20871D01*
X199950Y21095D01*
X200454Y21331D01*
X200953Y21580D01*
X201445Y21840D01*
X201930Y22113D01*
X202409Y22397D01*
X202880Y22693D01*
X203345Y23000D01*
X203801Y23318D01*
X204250Y23648D01*
X204691Y23988D01*
X205123Y24339D01*
X205546Y24700D01*
X205961Y25072D01*
X206367Y25453D01*
X206763Y25844D01*
X207149Y26245D01*
X207525Y26655D01*
X207892Y27074D01*
X208248Y27502D01*
X208594Y27939D01*
X208928Y28383D01*
X209252Y28836D01*
X209565Y29297D01*
X209867Y29765D01*
X210157Y30240D01*
X210435Y30722D01*
X210702Y31211D01*
X210956Y31706D01*
X211199Y32207D01*
X211429Y32714D01*
X211646Y33226D01*
X211852Y33744D01*
X212044Y34266D01*
X212224Y34793D01*
X212391Y35324D01*
X212545Y35859D01*
X212685Y36398D01*
X212813Y36940D01*
X212928Y37484D01*
X213029Y38032D01*
X213116Y38582D01*
X213191Y39133D01*
X213252Y39687D01*
X213299Y40241D01*
X213333Y40797D01*
X213353Y41353D01*
X213360Y41910D01*
D15*
X208280Y41910D02*
X208275Y41477D01*
X208259Y41044D01*
X208233Y40612D01*
X208196Y40181D01*
X208148Y39750D01*
X208091Y39321D01*
X208022Y38894D01*
X207944Y38468D01*
X207855Y38044D01*
X207755Y37623D01*
X207646Y37204D01*
X207526Y36788D01*
X207396Y36375D01*
X207257Y35965D01*
X207107Y35558D01*
X206947Y35156D01*
X206778Y34757D01*
X206599Y34363D01*
X206410Y33973D01*
X206212Y33588D01*
X206005Y33208D01*
X205789Y32833D01*
X205563Y32464D01*
X205328Y32100D01*
X205085Y31741D01*
X204833Y31389D01*
X204573Y31043D01*
X204304Y30704D01*
X204027Y30371D01*
X203742Y30045D01*
X203449Y29726D01*
X203149Y29414D01*
X202841Y29110D01*
X202525Y28813D01*
X202203Y28524D01*
X201873Y28243D01*
X201537Y27971D01*
X201195Y27706D01*
X200845Y27450D01*
X200490Y27202D01*
X200129Y26963D01*
X199762Y26733D01*
X199390Y26512D01*
X199012Y26300D01*
X198630Y26097D01*
X198242Y25904D01*
X197850Y25720D01*
X197454Y25546D01*
X197053Y25382D01*
X196649Y25227D01*
X196241Y25082D01*
X195829Y24947D01*
X195415Y24823D01*
X194997Y24708D01*
X194577Y24604D01*
X194154Y24510D01*
X193730Y24426D01*
X193303Y24352D01*
X192874Y24289D01*
X192445Y24237D01*
X192014Y24195D01*
X191582Y24163D01*
X191149Y24142D01*
X190716Y24131D01*
X190284Y24131D01*
X189851Y24142D01*
X189418Y24163D01*
X188986Y24195D01*
X188555Y24237D01*
X188126Y24289D01*
X187697Y24352D01*
X187270Y24426D01*
X186846Y24510D01*
X186423Y24604D01*
X186003Y24708D01*
X185585Y24823D01*
X185171Y24947D01*
X184759Y25082D01*
X184351Y25227D01*
X183947Y25382D01*
X183546Y25546D01*
X183150Y25720D01*
X182758Y25904D01*
X182370Y26097D01*
X181988Y26300D01*
X181610Y26512D01*
X181238Y26733D01*
X180871Y26963D01*
X180510Y27202D01*
X180155Y27450D01*
X179805Y27706D01*
X179463Y27971D01*
X179127Y28243D01*
X178797Y28524D01*
X178475Y28813D01*
X178159Y29110D01*
X177851Y29414D01*
X177551Y29726D01*
X177258Y30045D01*
X176973Y30371D01*
X176696Y30704D01*
X176427Y31043D01*
X176167Y31389D01*
X175915Y31741D01*
X175672Y32100D01*
X175437Y32464D01*
X175211Y32833D01*
X174995Y33208D01*
X174788Y33588D01*
X174590Y33973D01*
X174401Y34363D01*
X174222Y34757D01*
X174053Y35156D01*
X173893Y35558D01*
X173743Y35965D01*
X173604Y36375D01*
X173474Y36788D01*
X173354Y37204D01*
X173245Y37623D01*
X173145Y38044D01*
X173056Y38468D01*
X172978Y38894D01*
X172909Y39321D01*
X172852Y39750D01*
X172804Y40181D01*
X172767Y40612D01*
X172741Y41044D01*
X172725Y41477D01*
X172720Y41910D01*
D11*
X160020Y26035D02*
X154940Y26035D01*
X154829Y26037D01*
X154719Y26043D01*
X154608Y26052D01*
X154498Y26066D01*
X154389Y26083D01*
X154280Y26104D01*
X154172Y26129D01*
X154065Y26158D01*
X153959Y26190D01*
X153854Y26226D01*
X153751Y26266D01*
X153649Y26309D01*
X153548Y26356D01*
X153449Y26407D01*
X153353Y26460D01*
X153258Y26517D01*
X153165Y26578D01*
X153074Y26641D01*
X152985Y26708D01*
X152899Y26778D01*
X152816Y26851D01*
X152734Y26926D01*
X152656Y27004D01*
X152581Y27086D01*
X152508Y27169D01*
X152438Y27255D01*
X152371Y27344D01*
X152308Y27435D01*
X152247Y27528D01*
X152190Y27622D01*
X152137Y27719D01*
X152086Y27818D01*
X152039Y27919D01*
X151996Y28021D01*
X151956Y28124D01*
X151920Y28229D01*
X151888Y28335D01*
X151859Y28442D01*
X151834Y28550D01*
X151813Y28659D01*
X151796Y28768D01*
X151782Y28878D01*
X151773Y28989D01*
X151767Y29099D01*
X151765Y29210D01*
X151767Y29321D01*
X151773Y29431D01*
X151782Y29542D01*
X151796Y29652D01*
X151813Y29761D01*
X151834Y29870D01*
X151859Y29978D01*
X151888Y30085D01*
X151920Y30191D01*
X151956Y30296D01*
X151996Y30399D01*
X152039Y30501D01*
X152086Y30602D01*
X152137Y30701D01*
X152190Y30797D01*
X152247Y30892D01*
X152308Y30985D01*
X152371Y31076D01*
X152438Y31165D01*
X152508Y31251D01*
X152581Y31334D01*
X152656Y31416D01*
X152734Y31494D01*
X152816Y31569D01*
X152899Y31642D01*
X152985Y31712D01*
X153074Y31779D01*
X153165Y31842D01*
X153258Y31903D01*
X153353Y31960D01*
X153449Y32013D01*
X153548Y32064D01*
X153649Y32111D01*
X153751Y32154D01*
X153854Y32194D01*
X153959Y32230D01*
X154065Y32262D01*
X154172Y32291D01*
X154280Y32316D01*
X154389Y32337D01*
X154498Y32354D01*
X154608Y32368D01*
X154719Y32377D01*
X154829Y32383D01*
X154940Y32385D01*
X160020Y32385D01*
X160131Y32383D01*
X160241Y32377D01*
X160352Y32368D01*
X160462Y32354D01*
X160571Y32337D01*
X160680Y32316D01*
X160788Y32291D01*
X160895Y32262D01*
X161001Y32230D01*
X161106Y32194D01*
X161209Y32154D01*
X161311Y32111D01*
X161412Y32064D01*
X161511Y32013D01*
X161608Y31960D01*
X161702Y31903D01*
X161795Y31842D01*
X161886Y31779D01*
X161975Y31712D01*
X162061Y31642D01*
X162144Y31569D01*
X162226Y31494D01*
X162304Y31416D01*
X162379Y31334D01*
X162452Y31251D01*
X162522Y31165D01*
X162589Y31076D01*
X162652Y30985D01*
X162713Y30892D01*
X162770Y30797D01*
X162823Y30701D01*
X162874Y30602D01*
X162921Y30501D01*
X162964Y30399D01*
X163004Y30296D01*
X163040Y30191D01*
X163072Y30085D01*
X163101Y29978D01*
X163126Y29870D01*
X163147Y29761D01*
X163164Y29652D01*
X163178Y29542D01*
X163187Y29431D01*
X163193Y29321D01*
X163195Y29210D01*
X163193Y29099D01*
X163187Y28989D01*
X163178Y28878D01*
X163164Y28768D01*
X163147Y28659D01*
X163126Y28550D01*
X163101Y28442D01*
X163072Y28335D01*
X163040Y28229D01*
X163004Y28124D01*
X162964Y28021D01*
X162921Y27919D01*
X162874Y27818D01*
X162823Y27719D01*
X162770Y27622D01*
X162713Y27528D01*
X162652Y27435D01*
X162589Y27344D01*
X162522Y27255D01*
X162452Y27169D01*
X162379Y27086D01*
X162304Y27004D01*
X162226Y26926D01*
X162144Y26851D01*
X162061Y26778D01*
X161975Y26708D01*
X161886Y26641D01*
X161795Y26578D01*
X161702Y26517D01*
X161607Y26460D01*
X161511Y26407D01*
X161412Y26356D01*
X161311Y26309D01*
X161209Y26266D01*
X161106Y26226D01*
X161001Y26190D01*
X160895Y26158D01*
X160788Y26129D01*
X160680Y26104D01*
X160571Y26083D01*
X160462Y26066D01*
X160352Y26052D01*
X160241Y26043D01*
X160131Y26037D01*
X160020Y26035D01*
X160655Y31115D02*
X163195Y33655D01*
X154305Y37096D02*
X151765Y40271D01*
X163195Y40271D01*
X163195Y37096D02*
X163195Y43446D01*
D13*
X80010Y323850D02*
X79910Y323852D01*
X79811Y323858D01*
X79711Y323868D01*
X79613Y323881D01*
X79514Y323899D01*
X79417Y323920D01*
X79321Y323945D01*
X79225Y323974D01*
X79131Y324007D01*
X79038Y324043D01*
X78947Y324083D01*
X78857Y324127D01*
X78769Y324174D01*
X78683Y324224D01*
X78599Y324278D01*
X78517Y324335D01*
X78438Y324395D01*
X78360Y324459D01*
X78286Y324525D01*
X78214Y324594D01*
X78145Y324666D01*
X78079Y324740D01*
X78015Y324818D01*
X77955Y324897D01*
X77898Y324979D01*
X77844Y325063D01*
X77794Y325149D01*
X77747Y325237D01*
X77703Y325327D01*
X77663Y325418D01*
X77627Y325511D01*
X77594Y325605D01*
X77565Y325701D01*
X77540Y325797D01*
X77519Y325894D01*
X77501Y325993D01*
X77488Y326091D01*
X77478Y326191D01*
X77472Y326290D01*
X77470Y326390D01*
X97790Y323850D02*
X97890Y323852D01*
X97989Y323858D01*
X98089Y323868D01*
X98187Y323881D01*
X98286Y323899D01*
X98383Y323920D01*
X98479Y323945D01*
X98575Y323974D01*
X98669Y324007D01*
X98762Y324043D01*
X98853Y324083D01*
X98943Y324127D01*
X99031Y324174D01*
X99117Y324224D01*
X99201Y324278D01*
X99283Y324335D01*
X99362Y324395D01*
X99440Y324459D01*
X99514Y324525D01*
X99586Y324594D01*
X99655Y324666D01*
X99721Y324740D01*
X99785Y324818D01*
X99845Y324897D01*
X99902Y324979D01*
X99956Y325063D01*
X100006Y325149D01*
X100053Y325237D01*
X100097Y325327D01*
X100137Y325418D01*
X100173Y325511D01*
X100206Y325605D01*
X100235Y325701D01*
X100260Y325797D01*
X100281Y325894D01*
X100299Y325993D01*
X100312Y326091D01*
X100322Y326191D01*
X100328Y326290D01*
X100330Y326390D01*
X100330Y384810D02*
X100328Y384910D01*
X100322Y385009D01*
X100312Y385109D01*
X100299Y385207D01*
X100281Y385306D01*
X100260Y385403D01*
X100235Y385499D01*
X100206Y385595D01*
X100173Y385689D01*
X100137Y385782D01*
X100097Y385873D01*
X100053Y385963D01*
X100006Y386051D01*
X99956Y386137D01*
X99902Y386221D01*
X99845Y386303D01*
X99785Y386382D01*
X99721Y386460D01*
X99655Y386534D01*
X99586Y386606D01*
X99514Y386675D01*
X99440Y386741D01*
X99362Y386805D01*
X99283Y386865D01*
X99201Y386922D01*
X99117Y386976D01*
X99031Y387026D01*
X98943Y387073D01*
X98853Y387117D01*
X98762Y387157D01*
X98669Y387193D01*
X98575Y387226D01*
X98479Y387255D01*
X98383Y387280D01*
X98286Y387301D01*
X98187Y387319D01*
X98089Y387332D01*
X97989Y387342D01*
X97890Y387348D01*
X97790Y387350D01*
X80010Y387350D02*
X79910Y387348D01*
X79811Y387342D01*
X79711Y387332D01*
X79613Y387319D01*
X79514Y387301D01*
X79417Y387280D01*
X79321Y387255D01*
X79225Y387226D01*
X79131Y387193D01*
X79038Y387157D01*
X78947Y387117D01*
X78857Y387073D01*
X78769Y387026D01*
X78683Y386976D01*
X78599Y386922D01*
X78517Y386865D01*
X78438Y386805D01*
X78360Y386741D01*
X78286Y386675D01*
X78214Y386606D01*
X78145Y386534D01*
X78079Y386460D01*
X78015Y386382D01*
X77955Y386303D01*
X77898Y386221D01*
X77844Y386137D01*
X77794Y386051D01*
X77747Y385963D01*
X77703Y385873D01*
X77663Y385782D01*
X77627Y385689D01*
X77594Y385595D01*
X77565Y385499D01*
X77540Y385403D01*
X77519Y385306D01*
X77501Y385207D01*
X77488Y385109D01*
X77478Y385009D01*
X77472Y384910D01*
X77470Y384810D01*
X77470Y330200D02*
X77470Y326390D01*
X77470Y330200D02*
X78740Y331470D01*
X100330Y330200D02*
X100330Y326390D01*
X100330Y330200D02*
X99060Y331470D01*
X78740Y379730D02*
X77470Y381000D01*
X78740Y379730D02*
X78740Y331470D01*
X99060Y379730D02*
X100330Y381000D01*
X99060Y379730D02*
X99060Y331470D01*
X77470Y381000D02*
X77470Y384810D01*
X100330Y384810D02*
X100330Y381000D01*
D11*
X74295Y330835D02*
X62865Y330835D01*
X62865Y334010D01*
X62867Y334121D01*
X62873Y334231D01*
X62882Y334342D01*
X62896Y334452D01*
X62913Y334561D01*
X62934Y334670D01*
X62959Y334778D01*
X62988Y334885D01*
X63020Y334991D01*
X63056Y335096D01*
X63096Y335199D01*
X63139Y335301D01*
X63186Y335402D01*
X63237Y335501D01*
X63290Y335598D01*
X63347Y335692D01*
X63408Y335785D01*
X63471Y335876D01*
X63538Y335965D01*
X63608Y336051D01*
X63681Y336134D01*
X63756Y336216D01*
X63834Y336294D01*
X63916Y336369D01*
X63999Y336442D01*
X64085Y336512D01*
X64174Y336579D01*
X64265Y336642D01*
X64358Y336703D01*
X64452Y336760D01*
X64549Y336813D01*
X64648Y336864D01*
X64749Y336911D01*
X64851Y336954D01*
X64954Y336994D01*
X65059Y337030D01*
X65165Y337062D01*
X65272Y337091D01*
X65380Y337116D01*
X65489Y337137D01*
X65598Y337154D01*
X65708Y337168D01*
X65819Y337177D01*
X65929Y337183D01*
X66040Y337185D01*
X66151Y337183D01*
X66261Y337177D01*
X66372Y337168D01*
X66482Y337154D01*
X66591Y337137D01*
X66700Y337116D01*
X66808Y337091D01*
X66915Y337062D01*
X67021Y337030D01*
X67126Y336994D01*
X67229Y336954D01*
X67331Y336911D01*
X67432Y336864D01*
X67531Y336813D01*
X67628Y336760D01*
X67722Y336703D01*
X67815Y336642D01*
X67906Y336579D01*
X67995Y336512D01*
X68081Y336442D01*
X68164Y336369D01*
X68246Y336294D01*
X68324Y336216D01*
X68399Y336134D01*
X68472Y336051D01*
X68542Y335965D01*
X68609Y335876D01*
X68672Y335785D01*
X68733Y335692D01*
X68790Y335598D01*
X68843Y335501D01*
X68894Y335402D01*
X68941Y335301D01*
X68984Y335199D01*
X69024Y335096D01*
X69060Y334991D01*
X69092Y334885D01*
X69121Y334778D01*
X69146Y334670D01*
X69167Y334561D01*
X69184Y334452D01*
X69198Y334342D01*
X69207Y334231D01*
X69213Y334121D01*
X69215Y334010D01*
X69215Y330835D01*
X69215Y334645D02*
X74295Y337185D01*
X65405Y342182D02*
X62865Y345357D01*
X74295Y345357D01*
X74295Y342182D02*
X74295Y348532D01*
D13*
X77470Y224790D02*
X77472Y224690D01*
X77478Y224591D01*
X77488Y224491D01*
X77501Y224393D01*
X77519Y224294D01*
X77540Y224197D01*
X77565Y224101D01*
X77594Y224005D01*
X77627Y223911D01*
X77663Y223818D01*
X77703Y223727D01*
X77747Y223637D01*
X77794Y223549D01*
X77844Y223463D01*
X77898Y223379D01*
X77955Y223297D01*
X78015Y223218D01*
X78079Y223140D01*
X78145Y223066D01*
X78214Y222994D01*
X78286Y222925D01*
X78360Y222859D01*
X78438Y222795D01*
X78517Y222735D01*
X78599Y222678D01*
X78683Y222624D01*
X78769Y222574D01*
X78857Y222527D01*
X78947Y222483D01*
X79038Y222443D01*
X79131Y222407D01*
X79225Y222374D01*
X79321Y222345D01*
X79417Y222320D01*
X79514Y222299D01*
X79613Y222281D01*
X79711Y222268D01*
X79811Y222258D01*
X79910Y222252D01*
X80010Y222250D01*
X97790Y222250D02*
X97890Y222252D01*
X97989Y222258D01*
X98089Y222268D01*
X98187Y222281D01*
X98286Y222299D01*
X98383Y222320D01*
X98479Y222345D01*
X98575Y222374D01*
X98669Y222407D01*
X98762Y222443D01*
X98853Y222483D01*
X98943Y222527D01*
X99031Y222574D01*
X99117Y222624D01*
X99201Y222678D01*
X99283Y222735D01*
X99362Y222795D01*
X99440Y222859D01*
X99514Y222925D01*
X99586Y222994D01*
X99655Y223066D01*
X99721Y223140D01*
X99785Y223218D01*
X99845Y223297D01*
X99902Y223379D01*
X99956Y223463D01*
X100006Y223549D01*
X100053Y223637D01*
X100097Y223727D01*
X100137Y223818D01*
X100173Y223911D01*
X100206Y224005D01*
X100235Y224101D01*
X100260Y224197D01*
X100281Y224294D01*
X100299Y224393D01*
X100312Y224491D01*
X100322Y224591D01*
X100328Y224690D01*
X100330Y224790D01*
X100330Y283210D02*
X100328Y283310D01*
X100322Y283409D01*
X100312Y283509D01*
X100299Y283607D01*
X100281Y283706D01*
X100260Y283803D01*
X100235Y283899D01*
X100206Y283995D01*
X100173Y284089D01*
X100137Y284182D01*
X100097Y284273D01*
X100053Y284363D01*
X100006Y284451D01*
X99956Y284537D01*
X99902Y284621D01*
X99845Y284703D01*
X99785Y284782D01*
X99721Y284860D01*
X99655Y284934D01*
X99586Y285006D01*
X99514Y285075D01*
X99440Y285141D01*
X99362Y285205D01*
X99283Y285265D01*
X99201Y285322D01*
X99117Y285376D01*
X99031Y285426D01*
X98943Y285473D01*
X98853Y285517D01*
X98762Y285557D01*
X98669Y285593D01*
X98575Y285626D01*
X98479Y285655D01*
X98383Y285680D01*
X98286Y285701D01*
X98187Y285719D01*
X98089Y285732D01*
X97989Y285742D01*
X97890Y285748D01*
X97790Y285750D01*
X80010Y285750D02*
X79910Y285748D01*
X79811Y285742D01*
X79711Y285732D01*
X79613Y285719D01*
X79514Y285701D01*
X79417Y285680D01*
X79321Y285655D01*
X79225Y285626D01*
X79131Y285593D01*
X79038Y285557D01*
X78947Y285517D01*
X78857Y285473D01*
X78769Y285426D01*
X78683Y285376D01*
X78599Y285322D01*
X78517Y285265D01*
X78438Y285205D01*
X78360Y285141D01*
X78286Y285075D01*
X78214Y285006D01*
X78145Y284934D01*
X78079Y284860D01*
X78015Y284782D01*
X77955Y284703D01*
X77898Y284621D01*
X77844Y284537D01*
X77794Y284451D01*
X77747Y284363D01*
X77703Y284273D01*
X77663Y284182D01*
X77627Y284089D01*
X77594Y283995D01*
X77565Y283899D01*
X77540Y283803D01*
X77519Y283706D01*
X77501Y283607D01*
X77488Y283509D01*
X77478Y283409D01*
X77472Y283310D01*
X77470Y283210D01*
X77470Y228600D02*
X77470Y224790D01*
X77470Y228600D02*
X78740Y229870D01*
X100330Y228600D02*
X100330Y224790D01*
X100330Y228600D02*
X99060Y229870D01*
X78740Y278130D02*
X77470Y279400D01*
X78740Y278130D02*
X78740Y229870D01*
X99060Y278130D02*
X100330Y279400D01*
X99060Y278130D02*
X99060Y229870D01*
X77470Y279400D02*
X77470Y283210D01*
X100330Y283210D02*
X100330Y279400D01*
D11*
X74295Y229235D02*
X62865Y229235D01*
X62865Y232410D01*
X62867Y232521D01*
X62873Y232631D01*
X62882Y232742D01*
X62896Y232852D01*
X62913Y232961D01*
X62934Y233070D01*
X62959Y233178D01*
X62988Y233285D01*
X63020Y233391D01*
X63056Y233496D01*
X63096Y233599D01*
X63139Y233701D01*
X63186Y233802D01*
X63237Y233901D01*
X63290Y233998D01*
X63347Y234092D01*
X63408Y234185D01*
X63471Y234276D01*
X63538Y234365D01*
X63608Y234451D01*
X63681Y234534D01*
X63756Y234616D01*
X63834Y234694D01*
X63916Y234769D01*
X63999Y234842D01*
X64085Y234912D01*
X64174Y234979D01*
X64265Y235042D01*
X64358Y235103D01*
X64452Y235160D01*
X64549Y235213D01*
X64648Y235264D01*
X64749Y235311D01*
X64851Y235354D01*
X64954Y235394D01*
X65059Y235430D01*
X65165Y235462D01*
X65272Y235491D01*
X65380Y235516D01*
X65489Y235537D01*
X65598Y235554D01*
X65708Y235568D01*
X65819Y235577D01*
X65929Y235583D01*
X66040Y235585D01*
X66151Y235583D01*
X66261Y235577D01*
X66372Y235568D01*
X66482Y235554D01*
X66591Y235537D01*
X66700Y235516D01*
X66808Y235491D01*
X66915Y235462D01*
X67021Y235430D01*
X67126Y235394D01*
X67229Y235354D01*
X67331Y235311D01*
X67432Y235264D01*
X67531Y235213D01*
X67628Y235160D01*
X67722Y235103D01*
X67815Y235042D01*
X67906Y234979D01*
X67995Y234912D01*
X68081Y234842D01*
X68164Y234769D01*
X68246Y234694D01*
X68324Y234616D01*
X68399Y234534D01*
X68472Y234451D01*
X68542Y234365D01*
X68609Y234276D01*
X68672Y234185D01*
X68733Y234092D01*
X68790Y233998D01*
X68843Y233901D01*
X68894Y233802D01*
X68941Y233701D01*
X68984Y233599D01*
X69024Y233496D01*
X69060Y233391D01*
X69092Y233285D01*
X69121Y233178D01*
X69146Y233070D01*
X69167Y232961D01*
X69184Y232852D01*
X69198Y232742D01*
X69207Y232631D01*
X69213Y232521D01*
X69215Y232410D01*
X69215Y229235D01*
X69215Y233045D02*
X74295Y235585D01*
X65723Y246933D02*
X65619Y246931D01*
X65514Y246925D01*
X65410Y246916D01*
X65307Y246903D01*
X65204Y246885D01*
X65102Y246865D01*
X65000Y246840D01*
X64900Y246812D01*
X64800Y246780D01*
X64702Y246744D01*
X64605Y246705D01*
X64510Y246663D01*
X64416Y246617D01*
X64324Y246567D01*
X64234Y246515D01*
X64146Y246459D01*
X64060Y246399D01*
X63976Y246337D01*
X63895Y246272D01*
X63816Y246204D01*
X63739Y246132D01*
X63666Y246059D01*
X63594Y245982D01*
X63526Y245903D01*
X63461Y245822D01*
X63399Y245738D01*
X63339Y245652D01*
X63283Y245564D01*
X63231Y245474D01*
X63181Y245382D01*
X63135Y245288D01*
X63093Y245193D01*
X63054Y245096D01*
X63018Y244998D01*
X62986Y244898D01*
X62958Y244798D01*
X62933Y244696D01*
X62913Y244594D01*
X62895Y244491D01*
X62882Y244388D01*
X62873Y244284D01*
X62867Y244179D01*
X62865Y244075D01*
X62867Y243957D01*
X62873Y243838D01*
X62882Y243720D01*
X62895Y243603D01*
X62913Y243486D01*
X62933Y243369D01*
X62958Y243253D01*
X62986Y243138D01*
X63019Y243025D01*
X63054Y242912D01*
X63094Y242800D01*
X63136Y242690D01*
X63183Y242581D01*
X63233Y242473D01*
X63286Y242368D01*
X63343Y242264D01*
X63403Y242162D01*
X63466Y242062D01*
X63533Y241964D01*
X63602Y241868D01*
X63675Y241775D01*
X63751Y241684D01*
X63829Y241595D01*
X63911Y241509D01*
X63995Y241426D01*
X64081Y241345D01*
X64171Y241268D01*
X64262Y241193D01*
X64356Y241121D01*
X64453Y241052D01*
X64551Y240987D01*
X64652Y240924D01*
X64755Y240865D01*
X64859Y240809D01*
X64965Y240757D01*
X65073Y240708D01*
X65182Y240663D01*
X65293Y240621D01*
X65405Y240583D01*
X67945Y245980D02*
X67870Y246056D01*
X67791Y246131D01*
X67710Y246202D01*
X67626Y246271D01*
X67540Y246336D01*
X67452Y246398D01*
X67362Y246458D01*
X67270Y246514D01*
X67175Y246567D01*
X67079Y246616D01*
X66981Y246662D01*
X66882Y246705D01*
X66781Y246744D01*
X66679Y246779D01*
X66576Y246811D01*
X66472Y246839D01*
X66367Y246864D01*
X66260Y246885D01*
X66154Y246902D01*
X66047Y246915D01*
X65939Y246924D01*
X65831Y246930D01*
X65723Y246932D01*
X67945Y245980D02*
X74295Y240582D01*
X74295Y246932D01*
D13*
X471170Y313690D02*
X471172Y313590D01*
X471178Y313491D01*
X471188Y313391D01*
X471201Y313293D01*
X471219Y313194D01*
X471240Y313097D01*
X471265Y313001D01*
X471294Y312905D01*
X471327Y312811D01*
X471363Y312718D01*
X471403Y312627D01*
X471447Y312537D01*
X471494Y312449D01*
X471544Y312363D01*
X471598Y312279D01*
X471655Y312197D01*
X471715Y312118D01*
X471779Y312040D01*
X471845Y311966D01*
X471914Y311894D01*
X471986Y311825D01*
X472060Y311759D01*
X472138Y311695D01*
X472217Y311635D01*
X472299Y311578D01*
X472383Y311524D01*
X472469Y311474D01*
X472557Y311427D01*
X472647Y311383D01*
X472738Y311343D01*
X472831Y311307D01*
X472925Y311274D01*
X473021Y311245D01*
X473117Y311220D01*
X473214Y311199D01*
X473313Y311181D01*
X473411Y311168D01*
X473511Y311158D01*
X473610Y311152D01*
X473710Y311150D01*
X491490Y311150D02*
X491590Y311152D01*
X491689Y311158D01*
X491789Y311168D01*
X491887Y311181D01*
X491986Y311199D01*
X492083Y311220D01*
X492179Y311245D01*
X492275Y311274D01*
X492369Y311307D01*
X492462Y311343D01*
X492553Y311383D01*
X492643Y311427D01*
X492731Y311474D01*
X492817Y311524D01*
X492901Y311578D01*
X492983Y311635D01*
X493062Y311695D01*
X493140Y311759D01*
X493214Y311825D01*
X493286Y311894D01*
X493355Y311966D01*
X493421Y312040D01*
X493485Y312118D01*
X493545Y312197D01*
X493602Y312279D01*
X493656Y312363D01*
X493706Y312449D01*
X493753Y312537D01*
X493797Y312627D01*
X493837Y312718D01*
X493873Y312811D01*
X493906Y312905D01*
X493935Y313001D01*
X493960Y313097D01*
X493981Y313194D01*
X493999Y313293D01*
X494012Y313391D01*
X494022Y313491D01*
X494028Y313590D01*
X494030Y313690D01*
X494030Y372110D02*
X494028Y372210D01*
X494022Y372309D01*
X494012Y372409D01*
X493999Y372507D01*
X493981Y372606D01*
X493960Y372703D01*
X493935Y372799D01*
X493906Y372895D01*
X493873Y372989D01*
X493837Y373082D01*
X493797Y373173D01*
X493753Y373263D01*
X493706Y373351D01*
X493656Y373437D01*
X493602Y373521D01*
X493545Y373603D01*
X493485Y373682D01*
X493421Y373760D01*
X493355Y373834D01*
X493286Y373906D01*
X493214Y373975D01*
X493140Y374041D01*
X493062Y374105D01*
X492983Y374165D01*
X492901Y374222D01*
X492817Y374276D01*
X492731Y374326D01*
X492643Y374373D01*
X492553Y374417D01*
X492462Y374457D01*
X492369Y374493D01*
X492275Y374526D01*
X492179Y374555D01*
X492083Y374580D01*
X491986Y374601D01*
X491887Y374619D01*
X491789Y374632D01*
X491689Y374642D01*
X491590Y374648D01*
X491490Y374650D01*
X473710Y374650D02*
X473610Y374648D01*
X473511Y374642D01*
X473411Y374632D01*
X473313Y374619D01*
X473214Y374601D01*
X473117Y374580D01*
X473021Y374555D01*
X472925Y374526D01*
X472831Y374493D01*
X472738Y374457D01*
X472647Y374417D01*
X472557Y374373D01*
X472469Y374326D01*
X472383Y374276D01*
X472299Y374222D01*
X472217Y374165D01*
X472138Y374105D01*
X472060Y374041D01*
X471986Y373975D01*
X471914Y373906D01*
X471845Y373834D01*
X471779Y373760D01*
X471715Y373682D01*
X471655Y373603D01*
X471598Y373521D01*
X471544Y373437D01*
X471494Y373351D01*
X471447Y373263D01*
X471403Y373173D01*
X471363Y373082D01*
X471327Y372989D01*
X471294Y372895D01*
X471265Y372799D01*
X471240Y372703D01*
X471219Y372606D01*
X471201Y372507D01*
X471188Y372409D01*
X471178Y372309D01*
X471172Y372210D01*
X471170Y372110D01*
X471170Y317500D02*
X471170Y313690D01*
X471170Y317500D02*
X472440Y318770D01*
X494030Y317500D02*
X494030Y313690D01*
X494030Y317500D02*
X492760Y318770D01*
X472440Y367030D02*
X471170Y368300D01*
X472440Y367030D02*
X472440Y318770D01*
X492760Y367030D02*
X494030Y368300D01*
X492760Y367030D02*
X492760Y318770D01*
X471170Y368300D02*
X471170Y372110D01*
X494030Y372110D02*
X494030Y368300D01*
D11*
X467995Y318135D02*
X456565Y318135D01*
X456565Y321310D01*
X456567Y321421D01*
X456573Y321531D01*
X456582Y321642D01*
X456596Y321752D01*
X456613Y321861D01*
X456634Y321970D01*
X456659Y322078D01*
X456688Y322185D01*
X456720Y322291D01*
X456756Y322396D01*
X456796Y322499D01*
X456839Y322601D01*
X456886Y322702D01*
X456937Y322801D01*
X456990Y322898D01*
X457047Y322992D01*
X457108Y323085D01*
X457171Y323176D01*
X457238Y323265D01*
X457308Y323351D01*
X457381Y323434D01*
X457456Y323516D01*
X457534Y323594D01*
X457616Y323669D01*
X457699Y323742D01*
X457785Y323812D01*
X457874Y323879D01*
X457965Y323942D01*
X458058Y324003D01*
X458153Y324060D01*
X458249Y324113D01*
X458348Y324164D01*
X458449Y324211D01*
X458551Y324254D01*
X458654Y324294D01*
X458759Y324330D01*
X458865Y324362D01*
X458972Y324391D01*
X459080Y324416D01*
X459189Y324437D01*
X459298Y324454D01*
X459408Y324468D01*
X459519Y324477D01*
X459629Y324483D01*
X459740Y324485D01*
X459851Y324483D01*
X459961Y324477D01*
X460072Y324468D01*
X460182Y324454D01*
X460291Y324437D01*
X460400Y324416D01*
X460508Y324391D01*
X460615Y324362D01*
X460721Y324330D01*
X460826Y324294D01*
X460929Y324254D01*
X461031Y324211D01*
X461132Y324164D01*
X461231Y324113D01*
X461328Y324060D01*
X461422Y324003D01*
X461515Y323942D01*
X461606Y323879D01*
X461695Y323812D01*
X461781Y323742D01*
X461864Y323669D01*
X461946Y323594D01*
X462024Y323516D01*
X462099Y323434D01*
X462172Y323351D01*
X462242Y323265D01*
X462309Y323176D01*
X462372Y323085D01*
X462433Y322992D01*
X462490Y322898D01*
X462543Y322801D01*
X462594Y322702D01*
X462641Y322601D01*
X462684Y322499D01*
X462724Y322396D01*
X462760Y322291D01*
X462792Y322185D01*
X462821Y322078D01*
X462846Y321970D01*
X462867Y321861D01*
X462884Y321752D01*
X462898Y321642D01*
X462907Y321531D01*
X462913Y321421D01*
X462915Y321310D01*
X462915Y318135D01*
X462915Y321945D02*
X467995Y324485D01*
X467995Y329482D02*
X467995Y332657D01*
X467993Y332768D01*
X467987Y332878D01*
X467978Y332989D01*
X467964Y333099D01*
X467947Y333208D01*
X467926Y333317D01*
X467901Y333425D01*
X467872Y333532D01*
X467840Y333638D01*
X467804Y333743D01*
X467764Y333846D01*
X467721Y333948D01*
X467674Y334049D01*
X467623Y334148D01*
X467570Y334245D01*
X467513Y334339D01*
X467452Y334432D01*
X467389Y334523D01*
X467322Y334612D01*
X467252Y334698D01*
X467179Y334781D01*
X467104Y334863D01*
X467026Y334941D01*
X466944Y335016D01*
X466861Y335089D01*
X466775Y335159D01*
X466686Y335226D01*
X466595Y335289D01*
X466502Y335350D01*
X466408Y335407D01*
X466311Y335460D01*
X466212Y335511D01*
X466111Y335558D01*
X466009Y335601D01*
X465906Y335641D01*
X465801Y335677D01*
X465695Y335709D01*
X465588Y335738D01*
X465480Y335763D01*
X465371Y335784D01*
X465262Y335801D01*
X465152Y335815D01*
X465041Y335824D01*
X464931Y335830D01*
X464820Y335832D01*
X464709Y335830D01*
X464599Y335824D01*
X464488Y335815D01*
X464378Y335801D01*
X464269Y335784D01*
X464160Y335763D01*
X464052Y335738D01*
X463945Y335709D01*
X463839Y335677D01*
X463734Y335641D01*
X463631Y335601D01*
X463529Y335558D01*
X463428Y335511D01*
X463329Y335460D01*
X463233Y335407D01*
X463138Y335350D01*
X463045Y335289D01*
X462954Y335226D01*
X462865Y335159D01*
X462779Y335089D01*
X462696Y335016D01*
X462614Y334941D01*
X462536Y334863D01*
X462461Y334781D01*
X462388Y334698D01*
X462318Y334612D01*
X462251Y334523D01*
X462188Y334432D01*
X462127Y334339D01*
X462070Y334245D01*
X462017Y334148D01*
X461966Y334049D01*
X461919Y333948D01*
X461876Y333846D01*
X461836Y333743D01*
X461800Y333638D01*
X461768Y333532D01*
X461739Y333425D01*
X461714Y333317D01*
X461693Y333208D01*
X461676Y333099D01*
X461662Y332989D01*
X461653Y332878D01*
X461647Y332768D01*
X461645Y332657D01*
X456565Y333292D02*
X456565Y329482D01*
X456565Y333292D02*
X456567Y333392D01*
X456573Y333491D01*
X456583Y333591D01*
X456596Y333689D01*
X456614Y333788D01*
X456635Y333885D01*
X456660Y333981D01*
X456689Y334077D01*
X456722Y334171D01*
X456758Y334264D01*
X456798Y334355D01*
X456842Y334445D01*
X456889Y334533D01*
X456939Y334619D01*
X456993Y334703D01*
X457050Y334785D01*
X457110Y334864D01*
X457174Y334942D01*
X457240Y335016D01*
X457309Y335088D01*
X457381Y335157D01*
X457455Y335223D01*
X457533Y335287D01*
X457612Y335347D01*
X457694Y335404D01*
X457778Y335458D01*
X457864Y335508D01*
X457952Y335555D01*
X458042Y335599D01*
X458133Y335639D01*
X458226Y335675D01*
X458320Y335708D01*
X458416Y335737D01*
X458512Y335762D01*
X458609Y335783D01*
X458708Y335801D01*
X458806Y335814D01*
X458906Y335824D01*
X459005Y335830D01*
X459105Y335832D01*
X459205Y335830D01*
X459304Y335824D01*
X459404Y335814D01*
X459502Y335801D01*
X459601Y335783D01*
X459698Y335762D01*
X459794Y335737D01*
X459890Y335708D01*
X459984Y335675D01*
X460077Y335639D01*
X460168Y335599D01*
X460258Y335555D01*
X460346Y335508D01*
X460432Y335458D01*
X460516Y335404D01*
X460598Y335347D01*
X460677Y335287D01*
X460755Y335223D01*
X460829Y335157D01*
X460901Y335088D01*
X460970Y335016D01*
X461036Y334942D01*
X461100Y334864D01*
X461160Y334785D01*
X461217Y334703D01*
X461271Y334619D01*
X461321Y334533D01*
X461368Y334445D01*
X461412Y334355D01*
X461452Y334264D01*
X461488Y334171D01*
X461521Y334077D01*
X461550Y333981D01*
X461575Y333885D01*
X461596Y333788D01*
X461614Y333689D01*
X461627Y333591D01*
X461637Y333491D01*
X461643Y333392D01*
X461645Y333292D01*
X461645Y330752D01*
D13*
X156210Y184150D02*
X156110Y184152D01*
X156011Y184158D01*
X155911Y184168D01*
X155813Y184181D01*
X155714Y184199D01*
X155617Y184220D01*
X155521Y184245D01*
X155425Y184274D01*
X155331Y184307D01*
X155238Y184343D01*
X155147Y184383D01*
X155057Y184427D01*
X154969Y184474D01*
X154883Y184524D01*
X154799Y184578D01*
X154717Y184635D01*
X154638Y184695D01*
X154560Y184759D01*
X154486Y184825D01*
X154414Y184894D01*
X154345Y184966D01*
X154279Y185040D01*
X154215Y185118D01*
X154155Y185197D01*
X154098Y185279D01*
X154044Y185363D01*
X153994Y185449D01*
X153947Y185537D01*
X153903Y185627D01*
X153863Y185718D01*
X153827Y185811D01*
X153794Y185905D01*
X153765Y186001D01*
X153740Y186097D01*
X153719Y186194D01*
X153701Y186293D01*
X153688Y186391D01*
X153678Y186491D01*
X153672Y186590D01*
X153670Y186690D01*
X173990Y184150D02*
X174090Y184152D01*
X174189Y184158D01*
X174289Y184168D01*
X174387Y184181D01*
X174486Y184199D01*
X174583Y184220D01*
X174679Y184245D01*
X174775Y184274D01*
X174869Y184307D01*
X174962Y184343D01*
X175053Y184383D01*
X175143Y184427D01*
X175231Y184474D01*
X175317Y184524D01*
X175401Y184578D01*
X175483Y184635D01*
X175562Y184695D01*
X175640Y184759D01*
X175714Y184825D01*
X175786Y184894D01*
X175855Y184966D01*
X175921Y185040D01*
X175985Y185118D01*
X176045Y185197D01*
X176102Y185279D01*
X176156Y185363D01*
X176206Y185449D01*
X176253Y185537D01*
X176297Y185627D01*
X176337Y185718D01*
X176373Y185811D01*
X176406Y185905D01*
X176435Y186001D01*
X176460Y186097D01*
X176481Y186194D01*
X176499Y186293D01*
X176512Y186391D01*
X176522Y186491D01*
X176528Y186590D01*
X176530Y186690D01*
X176530Y245110D02*
X176528Y245210D01*
X176522Y245309D01*
X176512Y245409D01*
X176499Y245507D01*
X176481Y245606D01*
X176460Y245703D01*
X176435Y245799D01*
X176406Y245895D01*
X176373Y245989D01*
X176337Y246082D01*
X176297Y246173D01*
X176253Y246263D01*
X176206Y246351D01*
X176156Y246437D01*
X176102Y246521D01*
X176045Y246603D01*
X175985Y246682D01*
X175921Y246760D01*
X175855Y246834D01*
X175786Y246906D01*
X175714Y246975D01*
X175640Y247041D01*
X175562Y247105D01*
X175483Y247165D01*
X175401Y247222D01*
X175317Y247276D01*
X175231Y247326D01*
X175143Y247373D01*
X175053Y247417D01*
X174962Y247457D01*
X174869Y247493D01*
X174775Y247526D01*
X174679Y247555D01*
X174583Y247580D01*
X174486Y247601D01*
X174387Y247619D01*
X174289Y247632D01*
X174189Y247642D01*
X174090Y247648D01*
X173990Y247650D01*
X156210Y247650D02*
X156110Y247648D01*
X156011Y247642D01*
X155911Y247632D01*
X155813Y247619D01*
X155714Y247601D01*
X155617Y247580D01*
X155521Y247555D01*
X155425Y247526D01*
X155331Y247493D01*
X155238Y247457D01*
X155147Y247417D01*
X155057Y247373D01*
X154969Y247326D01*
X154883Y247276D01*
X154799Y247222D01*
X154717Y247165D01*
X154638Y247105D01*
X154560Y247041D01*
X154486Y246975D01*
X154414Y246906D01*
X154345Y246834D01*
X154279Y246760D01*
X154215Y246682D01*
X154155Y246603D01*
X154098Y246521D01*
X154044Y246437D01*
X153994Y246351D01*
X153947Y246263D01*
X153903Y246173D01*
X153863Y246082D01*
X153827Y245989D01*
X153794Y245895D01*
X153765Y245799D01*
X153740Y245703D01*
X153719Y245606D01*
X153701Y245507D01*
X153688Y245409D01*
X153678Y245309D01*
X153672Y245210D01*
X153670Y245110D01*
X153670Y190500D02*
X153670Y186690D01*
X153670Y190500D02*
X154940Y191770D01*
X176530Y190500D02*
X176530Y186690D01*
X176530Y190500D02*
X175260Y191770D01*
X154940Y240030D02*
X153670Y241300D01*
X154940Y240030D02*
X154940Y191770D01*
X175260Y240030D02*
X176530Y241300D01*
X175260Y240030D02*
X175260Y191770D01*
X153670Y241300D02*
X153670Y245110D01*
X176530Y245110D02*
X176530Y241300D01*
D11*
X150495Y191135D02*
X139065Y191135D01*
X139065Y194310D01*
X139067Y194421D01*
X139073Y194531D01*
X139082Y194642D01*
X139096Y194752D01*
X139113Y194861D01*
X139134Y194970D01*
X139159Y195078D01*
X139188Y195185D01*
X139220Y195291D01*
X139256Y195396D01*
X139296Y195499D01*
X139339Y195601D01*
X139386Y195702D01*
X139437Y195801D01*
X139490Y195898D01*
X139547Y195992D01*
X139608Y196085D01*
X139671Y196176D01*
X139738Y196265D01*
X139808Y196351D01*
X139881Y196434D01*
X139956Y196516D01*
X140034Y196594D01*
X140116Y196669D01*
X140199Y196742D01*
X140285Y196812D01*
X140374Y196879D01*
X140465Y196942D01*
X140558Y197003D01*
X140653Y197060D01*
X140749Y197113D01*
X140848Y197164D01*
X140949Y197211D01*
X141051Y197254D01*
X141154Y197294D01*
X141259Y197330D01*
X141365Y197362D01*
X141472Y197391D01*
X141580Y197416D01*
X141689Y197437D01*
X141798Y197454D01*
X141908Y197468D01*
X142019Y197477D01*
X142129Y197483D01*
X142240Y197485D01*
X142351Y197483D01*
X142461Y197477D01*
X142572Y197468D01*
X142682Y197454D01*
X142791Y197437D01*
X142900Y197416D01*
X143008Y197391D01*
X143115Y197362D01*
X143221Y197330D01*
X143326Y197294D01*
X143429Y197254D01*
X143531Y197211D01*
X143632Y197164D01*
X143731Y197113D01*
X143828Y197060D01*
X143922Y197003D01*
X144015Y196942D01*
X144106Y196879D01*
X144195Y196812D01*
X144281Y196742D01*
X144364Y196669D01*
X144446Y196594D01*
X144524Y196516D01*
X144599Y196434D01*
X144672Y196351D01*
X144742Y196265D01*
X144809Y196176D01*
X144872Y196085D01*
X144933Y195992D01*
X144990Y195898D01*
X145043Y195801D01*
X145094Y195702D01*
X145141Y195601D01*
X145184Y195499D01*
X145224Y195396D01*
X145260Y195291D01*
X145292Y195185D01*
X145321Y195078D01*
X145346Y194970D01*
X145367Y194861D01*
X145384Y194752D01*
X145398Y194642D01*
X145407Y194531D01*
X145413Y194421D01*
X145415Y194310D01*
X145415Y191135D01*
X145415Y194945D02*
X150495Y197485D01*
X147955Y202482D02*
X139065Y205022D01*
X147955Y202482D02*
X147955Y208832D01*
X145415Y206927D02*
X150495Y206927D01*
D13*
X29210Y323850D02*
X29110Y323852D01*
X29011Y323858D01*
X28911Y323868D01*
X28813Y323881D01*
X28714Y323899D01*
X28617Y323920D01*
X28521Y323945D01*
X28425Y323974D01*
X28331Y324007D01*
X28238Y324043D01*
X28147Y324083D01*
X28057Y324127D01*
X27969Y324174D01*
X27883Y324224D01*
X27799Y324278D01*
X27717Y324335D01*
X27638Y324395D01*
X27560Y324459D01*
X27486Y324525D01*
X27414Y324594D01*
X27345Y324666D01*
X27279Y324740D01*
X27215Y324818D01*
X27155Y324897D01*
X27098Y324979D01*
X27044Y325063D01*
X26994Y325149D01*
X26947Y325237D01*
X26903Y325327D01*
X26863Y325418D01*
X26827Y325511D01*
X26794Y325605D01*
X26765Y325701D01*
X26740Y325797D01*
X26719Y325894D01*
X26701Y325993D01*
X26688Y326091D01*
X26678Y326191D01*
X26672Y326290D01*
X26670Y326390D01*
X46990Y323850D02*
X47090Y323852D01*
X47189Y323858D01*
X47289Y323868D01*
X47387Y323881D01*
X47486Y323899D01*
X47583Y323920D01*
X47679Y323945D01*
X47775Y323974D01*
X47869Y324007D01*
X47962Y324043D01*
X48053Y324083D01*
X48143Y324127D01*
X48231Y324174D01*
X48317Y324224D01*
X48401Y324278D01*
X48483Y324335D01*
X48562Y324395D01*
X48640Y324459D01*
X48714Y324525D01*
X48786Y324594D01*
X48855Y324666D01*
X48921Y324740D01*
X48985Y324818D01*
X49045Y324897D01*
X49102Y324979D01*
X49156Y325063D01*
X49206Y325149D01*
X49253Y325237D01*
X49297Y325327D01*
X49337Y325418D01*
X49373Y325511D01*
X49406Y325605D01*
X49435Y325701D01*
X49460Y325797D01*
X49481Y325894D01*
X49499Y325993D01*
X49512Y326091D01*
X49522Y326191D01*
X49528Y326290D01*
X49530Y326390D01*
X49530Y384810D02*
X49528Y384910D01*
X49522Y385009D01*
X49512Y385109D01*
X49499Y385207D01*
X49481Y385306D01*
X49460Y385403D01*
X49435Y385499D01*
X49406Y385595D01*
X49373Y385689D01*
X49337Y385782D01*
X49297Y385873D01*
X49253Y385963D01*
X49206Y386051D01*
X49156Y386137D01*
X49102Y386221D01*
X49045Y386303D01*
X48985Y386382D01*
X48921Y386460D01*
X48855Y386534D01*
X48786Y386606D01*
X48714Y386675D01*
X48640Y386741D01*
X48562Y386805D01*
X48483Y386865D01*
X48401Y386922D01*
X48317Y386976D01*
X48231Y387026D01*
X48143Y387073D01*
X48053Y387117D01*
X47962Y387157D01*
X47869Y387193D01*
X47775Y387226D01*
X47679Y387255D01*
X47583Y387280D01*
X47486Y387301D01*
X47387Y387319D01*
X47289Y387332D01*
X47189Y387342D01*
X47090Y387348D01*
X46990Y387350D01*
X29210Y387350D02*
X29110Y387348D01*
X29011Y387342D01*
X28911Y387332D01*
X28813Y387319D01*
X28714Y387301D01*
X28617Y387280D01*
X28521Y387255D01*
X28425Y387226D01*
X28331Y387193D01*
X28238Y387157D01*
X28147Y387117D01*
X28057Y387073D01*
X27969Y387026D01*
X27883Y386976D01*
X27799Y386922D01*
X27717Y386865D01*
X27638Y386805D01*
X27560Y386741D01*
X27486Y386675D01*
X27414Y386606D01*
X27345Y386534D01*
X27279Y386460D01*
X27215Y386382D01*
X27155Y386303D01*
X27098Y386221D01*
X27044Y386137D01*
X26994Y386051D01*
X26947Y385963D01*
X26903Y385873D01*
X26863Y385782D01*
X26827Y385689D01*
X26794Y385595D01*
X26765Y385499D01*
X26740Y385403D01*
X26719Y385306D01*
X26701Y385207D01*
X26688Y385109D01*
X26678Y385009D01*
X26672Y384910D01*
X26670Y384810D01*
X26670Y330200D02*
X26670Y326390D01*
X26670Y330200D02*
X27940Y331470D01*
X49530Y330200D02*
X49530Y326390D01*
X49530Y330200D02*
X48260Y331470D01*
X27940Y379730D02*
X26670Y381000D01*
X27940Y379730D02*
X27940Y331470D01*
X48260Y379730D02*
X49530Y381000D01*
X48260Y379730D02*
X48260Y331470D01*
X26670Y381000D02*
X26670Y384810D01*
X49530Y384810D02*
X49530Y381000D01*
D11*
X23495Y330835D02*
X12065Y330835D01*
X12065Y334010D01*
X12067Y334121D01*
X12073Y334231D01*
X12082Y334342D01*
X12096Y334452D01*
X12113Y334561D01*
X12134Y334670D01*
X12159Y334778D01*
X12188Y334885D01*
X12220Y334991D01*
X12256Y335096D01*
X12296Y335199D01*
X12339Y335301D01*
X12386Y335402D01*
X12437Y335501D01*
X12490Y335598D01*
X12547Y335692D01*
X12608Y335785D01*
X12671Y335876D01*
X12738Y335965D01*
X12808Y336051D01*
X12881Y336134D01*
X12956Y336216D01*
X13034Y336294D01*
X13116Y336369D01*
X13199Y336442D01*
X13285Y336512D01*
X13374Y336579D01*
X13465Y336642D01*
X13558Y336703D01*
X13652Y336760D01*
X13749Y336813D01*
X13848Y336864D01*
X13949Y336911D01*
X14051Y336954D01*
X14154Y336994D01*
X14259Y337030D01*
X14365Y337062D01*
X14472Y337091D01*
X14580Y337116D01*
X14689Y337137D01*
X14798Y337154D01*
X14908Y337168D01*
X15019Y337177D01*
X15129Y337183D01*
X15240Y337185D01*
X15351Y337183D01*
X15461Y337177D01*
X15572Y337168D01*
X15682Y337154D01*
X15791Y337137D01*
X15900Y337116D01*
X16008Y337091D01*
X16115Y337062D01*
X16221Y337030D01*
X16326Y336994D01*
X16429Y336954D01*
X16531Y336911D01*
X16632Y336864D01*
X16731Y336813D01*
X16828Y336760D01*
X16922Y336703D01*
X17015Y336642D01*
X17106Y336579D01*
X17195Y336512D01*
X17281Y336442D01*
X17364Y336369D01*
X17446Y336294D01*
X17524Y336216D01*
X17599Y336134D01*
X17672Y336051D01*
X17742Y335965D01*
X17809Y335876D01*
X17872Y335785D01*
X17933Y335692D01*
X17990Y335598D01*
X18043Y335501D01*
X18094Y335402D01*
X18141Y335301D01*
X18184Y335199D01*
X18224Y335096D01*
X18260Y334991D01*
X18292Y334885D01*
X18321Y334778D01*
X18346Y334670D01*
X18367Y334561D01*
X18384Y334452D01*
X18398Y334342D01*
X18407Y334231D01*
X18413Y334121D01*
X18415Y334010D01*
X18415Y330835D01*
X18415Y334645D02*
X23495Y337185D01*
X23495Y342182D02*
X23495Y345992D01*
X23493Y346092D01*
X23487Y346191D01*
X23477Y346291D01*
X23464Y346389D01*
X23446Y346488D01*
X23425Y346585D01*
X23400Y346681D01*
X23371Y346777D01*
X23338Y346871D01*
X23302Y346964D01*
X23262Y347055D01*
X23218Y347145D01*
X23171Y347233D01*
X23121Y347319D01*
X23067Y347403D01*
X23010Y347485D01*
X22950Y347564D01*
X22886Y347642D01*
X22820Y347716D01*
X22751Y347788D01*
X22679Y347857D01*
X22605Y347923D01*
X22527Y347987D01*
X22448Y348047D01*
X22366Y348104D01*
X22282Y348158D01*
X22196Y348208D01*
X22108Y348255D01*
X22018Y348299D01*
X21927Y348339D01*
X21834Y348375D01*
X21740Y348408D01*
X21644Y348437D01*
X21548Y348462D01*
X21451Y348483D01*
X21352Y348501D01*
X21254Y348514D01*
X21154Y348524D01*
X21055Y348530D01*
X20955Y348532D01*
X19685Y348532D01*
X19585Y348530D01*
X19486Y348524D01*
X19386Y348514D01*
X19288Y348501D01*
X19189Y348483D01*
X19092Y348462D01*
X18996Y348437D01*
X18900Y348408D01*
X18806Y348375D01*
X18713Y348339D01*
X18622Y348299D01*
X18532Y348255D01*
X18444Y348208D01*
X18358Y348158D01*
X18274Y348104D01*
X18192Y348047D01*
X18113Y347987D01*
X18035Y347923D01*
X17961Y347857D01*
X17889Y347788D01*
X17820Y347716D01*
X17754Y347642D01*
X17690Y347564D01*
X17630Y347485D01*
X17573Y347403D01*
X17519Y347319D01*
X17469Y347233D01*
X17422Y347145D01*
X17378Y347055D01*
X17338Y346964D01*
X17302Y346871D01*
X17269Y346777D01*
X17240Y346681D01*
X17215Y346585D01*
X17194Y346488D01*
X17176Y346389D01*
X17163Y346291D01*
X17153Y346191D01*
X17147Y346092D01*
X17145Y345992D01*
X17145Y342182D01*
X12065Y342182D01*
X12065Y348532D01*
D13*
X26670Y224790D02*
X26672Y224690D01*
X26678Y224591D01*
X26688Y224491D01*
X26701Y224393D01*
X26719Y224294D01*
X26740Y224197D01*
X26765Y224101D01*
X26794Y224005D01*
X26827Y223911D01*
X26863Y223818D01*
X26903Y223727D01*
X26947Y223637D01*
X26994Y223549D01*
X27044Y223463D01*
X27098Y223379D01*
X27155Y223297D01*
X27215Y223218D01*
X27279Y223140D01*
X27345Y223066D01*
X27414Y222994D01*
X27486Y222925D01*
X27560Y222859D01*
X27638Y222795D01*
X27717Y222735D01*
X27799Y222678D01*
X27883Y222624D01*
X27969Y222574D01*
X28057Y222527D01*
X28147Y222483D01*
X28238Y222443D01*
X28331Y222407D01*
X28425Y222374D01*
X28521Y222345D01*
X28617Y222320D01*
X28714Y222299D01*
X28813Y222281D01*
X28911Y222268D01*
X29011Y222258D01*
X29110Y222252D01*
X29210Y222250D01*
X46990Y222250D02*
X47090Y222252D01*
X47189Y222258D01*
X47289Y222268D01*
X47387Y222281D01*
X47486Y222299D01*
X47583Y222320D01*
X47679Y222345D01*
X47775Y222374D01*
X47869Y222407D01*
X47962Y222443D01*
X48053Y222483D01*
X48143Y222527D01*
X48231Y222574D01*
X48317Y222624D01*
X48401Y222678D01*
X48483Y222735D01*
X48562Y222795D01*
X48640Y222859D01*
X48714Y222925D01*
X48786Y222994D01*
X48855Y223066D01*
X48921Y223140D01*
X48985Y223218D01*
X49045Y223297D01*
X49102Y223379D01*
X49156Y223463D01*
X49206Y223549D01*
X49253Y223637D01*
X49297Y223727D01*
X49337Y223818D01*
X49373Y223911D01*
X49406Y224005D01*
X49435Y224101D01*
X49460Y224197D01*
X49481Y224294D01*
X49499Y224393D01*
X49512Y224491D01*
X49522Y224591D01*
X49528Y224690D01*
X49530Y224790D01*
X49530Y283210D02*
X49528Y283310D01*
X49522Y283409D01*
X49512Y283509D01*
X49499Y283607D01*
X49481Y283706D01*
X49460Y283803D01*
X49435Y283899D01*
X49406Y283995D01*
X49373Y284089D01*
X49337Y284182D01*
X49297Y284273D01*
X49253Y284363D01*
X49206Y284451D01*
X49156Y284537D01*
X49102Y284621D01*
X49045Y284703D01*
X48985Y284782D01*
X48921Y284860D01*
X48855Y284934D01*
X48786Y285006D01*
X48714Y285075D01*
X48640Y285141D01*
X48562Y285205D01*
X48483Y285265D01*
X48401Y285322D01*
X48317Y285376D01*
X48231Y285426D01*
X48143Y285473D01*
X48053Y285517D01*
X47962Y285557D01*
X47869Y285593D01*
X47775Y285626D01*
X47679Y285655D01*
X47583Y285680D01*
X47486Y285701D01*
X47387Y285719D01*
X47289Y285732D01*
X47189Y285742D01*
X47090Y285748D01*
X46990Y285750D01*
X29210Y285750D02*
X29110Y285748D01*
X29011Y285742D01*
X28911Y285732D01*
X28813Y285719D01*
X28714Y285701D01*
X28617Y285680D01*
X28521Y285655D01*
X28425Y285626D01*
X28331Y285593D01*
X28238Y285557D01*
X28147Y285517D01*
X28057Y285473D01*
X27969Y285426D01*
X27883Y285376D01*
X27799Y285322D01*
X27717Y285265D01*
X27638Y285205D01*
X27560Y285141D01*
X27486Y285075D01*
X27414Y285006D01*
X27345Y284934D01*
X27279Y284860D01*
X27215Y284782D01*
X27155Y284703D01*
X27098Y284621D01*
X27044Y284537D01*
X26994Y284451D01*
X26947Y284363D01*
X26903Y284273D01*
X26863Y284182D01*
X26827Y284089D01*
X26794Y283995D01*
X26765Y283899D01*
X26740Y283803D01*
X26719Y283706D01*
X26701Y283607D01*
X26688Y283509D01*
X26678Y283409D01*
X26672Y283310D01*
X26670Y283210D01*
X26670Y228600D02*
X26670Y224790D01*
X26670Y228600D02*
X27940Y229870D01*
X49530Y228600D02*
X49530Y224790D01*
X49530Y228600D02*
X48260Y229870D01*
X27940Y278130D02*
X26670Y279400D01*
X27940Y278130D02*
X27940Y229870D01*
X48260Y278130D02*
X49530Y279400D01*
X48260Y278130D02*
X48260Y229870D01*
X26670Y279400D02*
X26670Y283210D01*
X49530Y283210D02*
X49530Y279400D01*
D11*
X23495Y229235D02*
X12065Y229235D01*
X12065Y232410D01*
X12067Y232521D01*
X12073Y232631D01*
X12082Y232742D01*
X12096Y232852D01*
X12113Y232961D01*
X12134Y233070D01*
X12159Y233178D01*
X12188Y233285D01*
X12220Y233391D01*
X12256Y233496D01*
X12296Y233599D01*
X12339Y233701D01*
X12386Y233802D01*
X12437Y233901D01*
X12490Y233998D01*
X12547Y234092D01*
X12608Y234185D01*
X12671Y234276D01*
X12738Y234365D01*
X12808Y234451D01*
X12881Y234534D01*
X12956Y234616D01*
X13034Y234694D01*
X13116Y234769D01*
X13199Y234842D01*
X13285Y234912D01*
X13374Y234979D01*
X13465Y235042D01*
X13558Y235103D01*
X13652Y235160D01*
X13749Y235213D01*
X13848Y235264D01*
X13949Y235311D01*
X14051Y235354D01*
X14154Y235394D01*
X14259Y235430D01*
X14365Y235462D01*
X14472Y235491D01*
X14580Y235516D01*
X14689Y235537D01*
X14798Y235554D01*
X14908Y235568D01*
X15019Y235577D01*
X15129Y235583D01*
X15240Y235585D01*
X15351Y235583D01*
X15461Y235577D01*
X15572Y235568D01*
X15682Y235554D01*
X15791Y235537D01*
X15900Y235516D01*
X16008Y235491D01*
X16115Y235462D01*
X16221Y235430D01*
X16326Y235394D01*
X16429Y235354D01*
X16531Y235311D01*
X16632Y235264D01*
X16731Y235213D01*
X16828Y235160D01*
X16922Y235103D01*
X17015Y235042D01*
X17106Y234979D01*
X17195Y234912D01*
X17281Y234842D01*
X17364Y234769D01*
X17446Y234694D01*
X17524Y234616D01*
X17599Y234534D01*
X17672Y234451D01*
X17742Y234365D01*
X17809Y234276D01*
X17872Y234185D01*
X17933Y234092D01*
X17990Y233998D01*
X18043Y233901D01*
X18094Y233802D01*
X18141Y233701D01*
X18184Y233599D01*
X18224Y233496D01*
X18260Y233391D01*
X18292Y233285D01*
X18321Y233178D01*
X18346Y233070D01*
X18367Y232961D01*
X18384Y232852D01*
X18398Y232742D01*
X18407Y232631D01*
X18413Y232521D01*
X18415Y232410D01*
X18415Y229235D01*
X18415Y233045D02*
X23495Y235585D01*
X17145Y240582D02*
X17145Y244392D01*
X17147Y244492D01*
X17153Y244591D01*
X17163Y244691D01*
X17176Y244789D01*
X17194Y244888D01*
X17215Y244985D01*
X17240Y245081D01*
X17269Y245177D01*
X17302Y245271D01*
X17338Y245364D01*
X17378Y245455D01*
X17422Y245545D01*
X17469Y245633D01*
X17519Y245719D01*
X17573Y245803D01*
X17630Y245885D01*
X17690Y245964D01*
X17754Y246042D01*
X17820Y246116D01*
X17889Y246188D01*
X17961Y246257D01*
X18035Y246323D01*
X18113Y246387D01*
X18192Y246447D01*
X18274Y246504D01*
X18358Y246558D01*
X18444Y246608D01*
X18532Y246655D01*
X18622Y246699D01*
X18713Y246739D01*
X18806Y246775D01*
X18900Y246808D01*
X18996Y246837D01*
X19092Y246862D01*
X19189Y246883D01*
X19288Y246901D01*
X19386Y246914D01*
X19486Y246924D01*
X19585Y246930D01*
X19685Y246932D01*
X20320Y246932D01*
X20431Y246930D01*
X20541Y246924D01*
X20652Y246915D01*
X20762Y246901D01*
X20871Y246884D01*
X20980Y246863D01*
X21088Y246838D01*
X21195Y246809D01*
X21301Y246777D01*
X21406Y246741D01*
X21509Y246701D01*
X21611Y246658D01*
X21712Y246611D01*
X21811Y246560D01*
X21908Y246507D01*
X22002Y246450D01*
X22095Y246389D01*
X22186Y246326D01*
X22275Y246259D01*
X22361Y246189D01*
X22444Y246116D01*
X22526Y246041D01*
X22604Y245963D01*
X22679Y245881D01*
X22752Y245798D01*
X22822Y245712D01*
X22889Y245623D01*
X22952Y245532D01*
X23013Y245439D01*
X23070Y245344D01*
X23123Y245248D01*
X23174Y245149D01*
X23221Y245048D01*
X23264Y244946D01*
X23304Y244843D01*
X23340Y244738D01*
X23372Y244632D01*
X23401Y244525D01*
X23426Y244417D01*
X23447Y244308D01*
X23464Y244199D01*
X23478Y244089D01*
X23487Y243978D01*
X23493Y243868D01*
X23495Y243757D01*
X23493Y243646D01*
X23487Y243536D01*
X23478Y243425D01*
X23464Y243315D01*
X23447Y243206D01*
X23426Y243097D01*
X23401Y242989D01*
X23372Y242882D01*
X23340Y242776D01*
X23304Y242671D01*
X23264Y242568D01*
X23221Y242466D01*
X23174Y242365D01*
X23123Y242266D01*
X23070Y242169D01*
X23013Y242075D01*
X22952Y241982D01*
X22889Y241891D01*
X22822Y241802D01*
X22752Y241716D01*
X22679Y241633D01*
X22604Y241551D01*
X22526Y241473D01*
X22444Y241398D01*
X22361Y241325D01*
X22275Y241255D01*
X22186Y241188D01*
X22095Y241125D01*
X22002Y241064D01*
X21907Y241007D01*
X21811Y240954D01*
X21712Y240903D01*
X21611Y240856D01*
X21509Y240813D01*
X21406Y240773D01*
X21301Y240737D01*
X21195Y240705D01*
X21088Y240676D01*
X20980Y240651D01*
X20871Y240630D01*
X20762Y240613D01*
X20652Y240599D01*
X20541Y240590D01*
X20431Y240584D01*
X20320Y240582D01*
X17145Y240582D01*
X17005Y240584D01*
X16865Y240590D01*
X16725Y240599D01*
X16586Y240613D01*
X16447Y240630D01*
X16309Y240651D01*
X16171Y240676D01*
X16034Y240705D01*
X15898Y240737D01*
X15763Y240774D01*
X15629Y240814D01*
X15496Y240857D01*
X15364Y240905D01*
X15233Y240955D01*
X15104Y241010D01*
X14977Y241068D01*
X14851Y241129D01*
X14727Y241194D01*
X14605Y241263D01*
X14485Y241334D01*
X14367Y241409D01*
X14250Y241487D01*
X14136Y241569D01*
X14025Y241653D01*
X13916Y241741D01*
X13809Y241831D01*
X13704Y241925D01*
X13603Y242021D01*
X13504Y242120D01*
X13408Y242221D01*
X13314Y242326D01*
X13224Y242433D01*
X13136Y242542D01*
X13052Y242653D01*
X12970Y242767D01*
X12892Y242884D01*
X12817Y243002D01*
X12746Y243122D01*
X12677Y243244D01*
X12612Y243368D01*
X12551Y243494D01*
X12493Y243621D01*
X12438Y243750D01*
X12388Y243881D01*
X12340Y244013D01*
X12297Y244146D01*
X12257Y244280D01*
X12220Y244415D01*
X12188Y244551D01*
X12159Y244688D01*
X12134Y244826D01*
X12113Y244964D01*
X12096Y245103D01*
X12082Y245242D01*
X12073Y245382D01*
X12067Y245522D01*
X12065Y245662D01*
D10*
X432950Y204490D02*
X432950Y100310D01*
X432950Y204490D02*
X456050Y204490D01*
X456050Y100310D01*
X432950Y100310D01*
D11*
X458851Y114159D02*
X462294Y109855D01*
X458851Y114159D02*
X474345Y114159D01*
X474345Y109855D02*
X474345Y118463D01*
D12*
X438446Y85654D02*
X438444Y85555D01*
X438438Y85455D01*
X438429Y85356D01*
X438416Y85258D01*
X438399Y85160D01*
X438378Y85062D01*
X438353Y84966D01*
X438325Y84871D01*
X438293Y84777D01*
X438258Y84684D01*
X438219Y84592D01*
X438176Y84502D01*
X438131Y84414D01*
X438081Y84327D01*
X438029Y84243D01*
X437973Y84160D01*
X437915Y84080D01*
X437853Y84002D01*
X437788Y83927D01*
X437720Y83854D01*
X437650Y83784D01*
X437577Y83716D01*
X437502Y83651D01*
X437424Y83589D01*
X437344Y83531D01*
X437261Y83475D01*
X437177Y83423D01*
X437090Y83373D01*
X437002Y83328D01*
X436912Y83285D01*
X436820Y83246D01*
X436727Y83211D01*
X436633Y83179D01*
X436538Y83151D01*
X436442Y83126D01*
X436344Y83105D01*
X436246Y83088D01*
X436148Y83075D01*
X436049Y83066D01*
X435949Y83060D01*
X435850Y83058D01*
X435706Y83060D01*
X435561Y83066D01*
X435417Y83075D01*
X435274Y83088D01*
X435130Y83105D01*
X434987Y83126D01*
X434845Y83151D01*
X434704Y83179D01*
X434563Y83211D01*
X434423Y83247D01*
X434284Y83286D01*
X434146Y83329D01*
X434010Y83376D01*
X433874Y83426D01*
X433740Y83480D01*
X433608Y83537D01*
X433477Y83598D01*
X433348Y83662D01*
X433220Y83730D01*
X433094Y83800D01*
X432970Y83875D01*
X432849Y83952D01*
X432729Y84033D01*
X432611Y84116D01*
X432496Y84203D01*
X432383Y84293D01*
X432272Y84386D01*
X432164Y84481D01*
X432058Y84580D01*
X431955Y84681D01*
X432280Y92146D02*
X432282Y92245D01*
X432288Y92345D01*
X432297Y92444D01*
X432310Y92542D01*
X432327Y92640D01*
X432348Y92738D01*
X432373Y92834D01*
X432401Y92929D01*
X432433Y93023D01*
X432468Y93116D01*
X432507Y93208D01*
X432550Y93298D01*
X432595Y93386D01*
X432645Y93473D01*
X432697Y93557D01*
X432753Y93640D01*
X432811Y93720D01*
X432873Y93798D01*
X432938Y93873D01*
X433006Y93946D01*
X433076Y94016D01*
X433149Y94084D01*
X433224Y94149D01*
X433302Y94211D01*
X433382Y94269D01*
X433465Y94325D01*
X433549Y94377D01*
X433636Y94427D01*
X433724Y94472D01*
X433814Y94515D01*
X433906Y94554D01*
X433999Y94589D01*
X434093Y94621D01*
X434188Y94649D01*
X434285Y94674D01*
X434382Y94695D01*
X434480Y94712D01*
X434578Y94725D01*
X434677Y94734D01*
X434777Y94740D01*
X434876Y94742D01*
X435012Y94740D01*
X435148Y94734D01*
X435284Y94725D01*
X435420Y94712D01*
X435555Y94694D01*
X435689Y94674D01*
X435823Y94649D01*
X435957Y94621D01*
X436089Y94588D01*
X436220Y94553D01*
X436351Y94513D01*
X436480Y94470D01*
X436608Y94424D01*
X436734Y94373D01*
X436860Y94320D01*
X436983Y94262D01*
X437105Y94202D01*
X437225Y94138D01*
X437344Y94070D01*
X437460Y94000D01*
X437574Y93926D01*
X437687Y93849D01*
X437797Y93768D01*
X433578Y89874D02*
X433492Y89927D01*
X433408Y89984D01*
X433326Y90043D01*
X433246Y90106D01*
X433169Y90172D01*
X433094Y90240D01*
X433022Y90312D01*
X432953Y90386D01*
X432887Y90463D01*
X432824Y90542D01*
X432764Y90624D01*
X432707Y90708D01*
X432653Y90794D01*
X432603Y90882D01*
X432556Y90972D01*
X432512Y91063D01*
X432473Y91157D01*
X432436Y91251D01*
X432404Y91347D01*
X432375Y91445D01*
X432350Y91543D01*
X432329Y91642D01*
X432311Y91742D01*
X432298Y91842D01*
X432288Y91943D01*
X432282Y92045D01*
X432280Y92146D01*
X437148Y87926D02*
X437234Y87873D01*
X437318Y87816D01*
X437400Y87757D01*
X437480Y87694D01*
X437557Y87628D01*
X437632Y87560D01*
X437704Y87488D01*
X437773Y87414D01*
X437839Y87337D01*
X437902Y87258D01*
X437962Y87176D01*
X438019Y87092D01*
X438073Y87006D01*
X438123Y86918D01*
X438170Y86828D01*
X438214Y86737D01*
X438253Y86643D01*
X438290Y86549D01*
X438322Y86453D01*
X438351Y86355D01*
X438376Y86257D01*
X438397Y86158D01*
X438415Y86058D01*
X438428Y85958D01*
X438438Y85857D01*
X438444Y85755D01*
X438446Y85654D01*
X437148Y87926D02*
X433578Y89874D01*
X443555Y94742D02*
X443555Y83058D01*
X443555Y94742D02*
X446800Y94742D01*
X446913Y94740D01*
X447026Y94734D01*
X447139Y94724D01*
X447252Y94710D01*
X447364Y94693D01*
X447475Y94671D01*
X447585Y94646D01*
X447695Y94616D01*
X447803Y94583D01*
X447910Y94546D01*
X448016Y94506D01*
X448120Y94461D01*
X448223Y94413D01*
X448324Y94362D01*
X448423Y94307D01*
X448520Y94249D01*
X448615Y94187D01*
X448708Y94122D01*
X448798Y94054D01*
X448886Y93983D01*
X448972Y93908D01*
X449055Y93831D01*
X449135Y93751D01*
X449212Y93668D01*
X449287Y93582D01*
X449358Y93494D01*
X449426Y93404D01*
X449491Y93311D01*
X449553Y93216D01*
X449611Y93119D01*
X449666Y93020D01*
X449717Y92919D01*
X449765Y92816D01*
X449810Y92712D01*
X449850Y92606D01*
X449887Y92499D01*
X449920Y92391D01*
X449950Y92281D01*
X449975Y92171D01*
X449997Y92060D01*
X450014Y91948D01*
X450028Y91835D01*
X450038Y91722D01*
X450044Y91609D01*
X450046Y91496D01*
X450044Y91383D01*
X450038Y91270D01*
X450028Y91157D01*
X450014Y91044D01*
X449997Y90932D01*
X449975Y90821D01*
X449950Y90711D01*
X449920Y90601D01*
X449887Y90493D01*
X449850Y90386D01*
X449810Y90280D01*
X449765Y90176D01*
X449717Y90073D01*
X449666Y89972D01*
X449611Y89873D01*
X449553Y89776D01*
X449491Y89681D01*
X449426Y89588D01*
X449358Y89498D01*
X449287Y89410D01*
X449212Y89324D01*
X449135Y89241D01*
X449055Y89161D01*
X448972Y89084D01*
X448886Y89009D01*
X448798Y88938D01*
X448708Y88870D01*
X448615Y88805D01*
X448520Y88743D01*
X448423Y88685D01*
X448324Y88630D01*
X448223Y88579D01*
X448120Y88531D01*
X448016Y88486D01*
X447910Y88446D01*
X447803Y88409D01*
X447695Y88376D01*
X447585Y88346D01*
X447475Y88321D01*
X447364Y88299D01*
X447252Y88282D01*
X447139Y88268D01*
X447026Y88258D01*
X446913Y88252D01*
X446800Y88250D01*
X446800Y88251D02*
X443555Y88251D01*
X455394Y83058D02*
X455394Y94742D01*
X454096Y83058D02*
X456692Y83058D01*
X456692Y94742D02*
X454096Y94742D01*
M02*
