G04 EAGLE Gerber RS-274X export*
G75*
%MOMM*%
%FSLAX34Y34*%
%LPD*%
%INSoldermask Top*%
%IPPOS*%
%AMOC8*
5,1,8,0,0,1.08239X$1,22.5*%
G01*
%ADD10P,1.852186X8X202.500000*%
%ADD11P,1.649562X8X202.500000*%
%ADD12P,1.852186X8X22.500000*%
%ADD13C,1.524000*%
%ADD14C,1.320800*%
%ADD15P,1.649562X8X112.500000*%
%ADD16P,1.852186X8X112.500000*%


D10*
X444500Y431800D03*
X419100Y431800D03*
X76200Y431800D03*
X50800Y431800D03*
D11*
X152400Y101600D03*
X101600Y101600D03*
X152400Y38100D03*
X101600Y38100D03*
D12*
X419100Y330200D03*
X419100Y355600D03*
D13*
X260604Y241300D02*
X247396Y241300D01*
X247396Y215900D02*
X260604Y215900D01*
X260604Y88900D02*
X247396Y88900D01*
X247396Y63500D02*
X260604Y63500D01*
X260604Y190500D02*
X247396Y190500D01*
X247396Y165100D02*
X260604Y165100D01*
X260604Y114300D02*
X247396Y114300D01*
X247396Y139700D02*
X260604Y139700D01*
X260604Y38100D02*
X247396Y38100D01*
X323596Y38100D02*
X336804Y38100D01*
X336804Y63500D02*
X323596Y63500D01*
X323596Y88900D02*
X336804Y88900D01*
X336804Y114300D02*
X323596Y114300D01*
X323596Y139700D02*
X336804Y139700D01*
X336804Y165100D02*
X323596Y165100D01*
X323596Y190500D02*
X336804Y190500D01*
X336804Y215900D02*
X323596Y215900D01*
X323596Y241300D02*
X336804Y241300D01*
X260604Y381000D02*
X247396Y381000D01*
X247396Y355600D02*
X260604Y355600D01*
X323596Y355600D02*
X336804Y355600D01*
X336804Y381000D02*
X323596Y381000D01*
X260604Y330200D02*
X247396Y330200D01*
X247396Y304800D02*
X260604Y304800D01*
X323596Y330200D02*
X336804Y330200D01*
X336804Y304800D02*
X323596Y304800D01*
D12*
X444500Y38100D03*
X444500Y63500D03*
D14*
X196088Y50800D02*
X184912Y50800D01*
X184912Y101600D02*
X196088Y101600D01*
D15*
X88900Y317500D03*
X88900Y393700D03*
X88900Y215900D03*
X88900Y292100D03*
X482600Y304800D03*
X482600Y381000D03*
X165100Y177800D03*
X165100Y254000D03*
X38100Y317500D03*
X38100Y393700D03*
X38100Y215900D03*
X38100Y292100D03*
D16*
X444500Y114300D03*
X444500Y139700D03*
X444500Y165100D03*
X444500Y190500D03*
M02*
