M48
;GenerationSoftware,Autodesk,EAGLE,9.6.2*%
;CreationDate,2023-11-08T05:27:01Z*%
FMAT,2
ICI,OFF
METRIC,TZ,000.000
T3C0.610
T2C0.813
T1C1.000
%
G90
M71
T1
X44450Y43180
X41910Y43180
X7620Y43180
X5080Y43180
X41910Y33020
X41910Y35560
X44450Y3810
X44450Y6350
X44450Y19050
X44450Y11430
X44450Y13970
X44450Y16510
T2
X25400Y8890
X25400Y6350
X25400Y19050
X25400Y16510
X25400Y11430
X25400Y13970
X25400Y3810
X33020Y3810
X33020Y6350
X33020Y8890
X33020Y11430
X33020Y13970
X33020Y16510
X33020Y19050
X33020Y21590
X33020Y24130
X25400Y38100
X25400Y35560
X33020Y35560
X33020Y38100
X25400Y33020
X25400Y30480
X33020Y33020
X33020Y30480
X15240Y10160
X10160Y10160
X8890Y31750
X15240Y3810
X8890Y21590
X8890Y29210
X48260Y30480
X48260Y38100
X16510Y17780
X16510Y25400
X8890Y39370
X3810Y39370
X3810Y21590
X3810Y29210
X10160Y3810
X25400Y24130
X25400Y21590
X3810Y31750
T3
X19050Y5080
X19050Y10160
M30